<?xml version="1.0" encoding="UTF-8"?>
<svg id="Layer_2" data-name="Layer 2" xmlns="http://www.w3.org/2000/svg" viewBox="0 0 537.96 48.41">
  <defs>
    <style>
      .cls-1 {
        fill: #b37474;
        stroke-width: 0px;
      }
    </style>
  </defs>
  <g id="text">
    <g>
      <path class="cls-1" d="M28.98,37.75c.99,1.87.22,3.57-1.04,4.4s-2.97.77-4.01-.94c-1.98-3.13-8.52-8.8-12.98-10.89-3.02-1.43-.38-6.16,3.46-4.18,2.09,1.04,4.51,2.47,6.82,4.07,3.13-1.92,8.8-6.27,11.33-8.8.71-.71,1.16-1.87-.5-1.87-6.87-.06-20.29.17-28.82.5-4.12.17-4.51-5.44-.06-5.55,8.63-.16,22.16-.44,31.29-.27,4.95.06,8.52,4.23,5.17,8.03-3.3,3.79-9.02,8.36-13.91,11.55,1.38,1.32,2.53,2.64,3.25,3.96Z"/>
      <path class="cls-1" d="M60.23,36.81c-5.06,3.08-7.92-2.53-4.18-4.34,10.12-4.95,20.62-15.07,26.84-24.86,2.42-3.79,7.26-.27,4.89,2.92-2.47,3.3-4.84,6.27-7.2,9.02-.17,5.61-.27,20.02-.11,25.52.11,4.18-5.83,4.67-5.77.17.05-4.4.27-13.36.33-19.8-4.34,4.23-9.07,7.92-14.79,11.38Z"/>
      <path class="cls-1" d="M133.32,11.24c2.36-.17,5.06-.39,7.26-.5,4.23-.22,7.92,2.75,5.88,6.65-6.71,12.81-14.3,23.98-29.75,30.08-4.67,1.81-6.93-3.57-2.36-5.17,12.21-4.23,21.28-15.23,25.35-24.58.44-1.04,0-2.09-1.32-2.03-2.31.06-6.32.44-8.8.71-3.74,4.95-8.58,10.72-12.37,13.31-3.68,2.47-6.93-2.25-3.19-4.56,5.28-3.24,12.43-13.36,14.96-17.71,1.81-3.08,7.31-.44,4.73,3.24l-.38.55Z"/>
      <path class="cls-1" d="M193.65,42.75c-6.82.22-10.61.17-15.95,0-5.61-.22-8.41-3.08-8.58-7.7-.16-5.44-.16-9.4,0-14.13.17-4.07,2.64-7.31,8.41-7.59,6.16-.27,11.27-.16,16.61,0,4.56.17,7.7,3.52,7.81,6.98.17,5,.17,9.9,0,14.63-.17,4.62-3.13,7.64-8.3,7.81ZM196.18,22.18c-.11-2.36-1.26-3.74-4.07-3.85-4.73-.17-9.07-.17-13.36,0-3.08.11-4.01,1.65-4.12,3.9-.22,3.57-.22,7.86,0,11.6.11,2.42,1.21,3.46,4.23,3.57,5,.17,8.3.27,13.31,0,2.31-.11,3.85-1.37,3.96-3.68.17-3.63.22-7.86.05-11.55Z"/>
      <path class="cls-1" d="M228.09,41.43c12.15-3.85,19.36-13.86,21.83-21.94.44-1.48.28-2.86-1.76-2.91-5.39-.17-14.08.17-22,.44-3.63.11-4.01-5.28-.11-5.44,7.26-.33,17.54-.38,24.53-.27,4.45.06,7.59,3.41,5.99,7.92-3.85,11-10.56,21.67-25.96,27.55-4.67,1.76-6.71-4.01-2.53-5.33ZM253.27,8.44c-2.8-1.15-.6-4.45,1.92-3.52,1.49.55,4.23,1.98,5.44,3.3,2.14,2.31-1.1,5.66-2.92,3.52-.71-.88-3.35-2.8-4.45-3.3ZM258.22,3.71c-2.8-1.1-.77-4.4,1.82-3.57,1.48.5,4.29,1.87,5.55,3.13,2.2,2.2-.93,5.66-2.8,3.57-.77-.83-3.46-2.69-4.56-3.13Z"/>
      <path class="cls-1" d="M280.28,47.59c-4.4,1.7-6.54-3.46-2.36-4.84,7.59-2.53,13.69-7.26,18.37-12.54-1.98-1.21-4.01-2.14-5.77-2.64-3.08-.82-1.65-5.5,2.2-4.4,2.03.55,4.51,1.59,6.93,2.86,1.87-2.64,3.41-5.33,4.62-7.86,1.04-2.25.83-2.53-.6-2.47-2.2.06-7.86.6-9.73.83-3.85,5.06-8.91,10.83-12.59,13.42-3.68,2.53-6.93-2.25-3.19-4.56,5.33-3.3,12.7-12.59,14.68-17.32,1.92-4.67,7.59-1.26,5.66,1.92-.27.44-.6.94-.99,1.48,2.69-.22,5.72-.5,8.36-.6,5.67-.17,6.65,3.79,4.51,7.7-2.04,3.68-4.07,7.09-6.21,10.23,1.54,1.1,2.97,2.25,3.96,3.46,1.26,1.48.88,3.24-.11,4.18-.99.93-2.64,1.21-3.91-.17-.82-.88-1.98-1.92-3.3-2.97-4.89,5.88-11.05,10.67-20.51,14.3Z"/>
      <path class="cls-1" d="M361.4,24.05c.99,1.48,3.79,6.21,4.07,8.85.44,3.9-2.8,4.84-5.67,2.86-.71-.49-1.48-.77-2.25-.93-4.34-.94-10.5-1.1-13.58-.17-3.08.93-4.01,3.74-1.1,5.44,2.75,1.59,6.98,2.2,11.38,1.98,5.06-.22,4.73,5.88-.5,5.72-5.06-.17-9.9-.88-13.75-3.24-6.43-3.96-5.66-12.87,3.13-14.63,5.22-1.04,10.56-.6,13.97-.38.83.05,1.04-.22.83-.94-.11-.38-.5-1.59-1.38-3.08-.99-1.7-2.31-3.68-3.63-5.77-.38.11-.71.17-1.04.22-6.32,1.38-11.11,1.04-14.9-.94-3.41-1.76-1.71-6.76,2.25-4.84,3.52,1.76,6.54,1.65,10.67.72-1.32-2.15-2.53-4.12-3.19-5.61-2.04-4.45,4.12-5.72,5.22-1.76.33,1.26,1.43,3.35,2.86,5.88.77-.27,1.54-.55,2.36-.83.77-.27,1.27-.71,2.04-1.1,4.45-2.25,6.38,3.08,3.02,4.78-1.43.71-3.02,1.43-4.56,1.98,1.26,1.98,2.58,3.96,3.74,5.77Z"/>
      <path class="cls-1" d="M405.07,38.68c0-2.53.38-4.07.28-6.54-.28-6.1-8.63-.94-10.17,1.81-1.32,2.36-2.86,4.78-3.46,7.48-.99,4.23-2.2,4.51-3.3,4.67-1.92.27-4.51-1.04-3.24-4.23,2.47-6.21,5.61-11.71,8.8-16.66,3.19-4.95,6.05-9.62,8.74-13.91.93-1.54,2.42-3.46,3.02-4.56,1.81-3.24,6.93-.49,5.11,2.97-.44.77-.83,1.38-1.26,1.92-.44.55-.99,1.15-1.59,1.87-2.64,2.97-4.4,5.28-5.83,7.31-1.43,2.04-2.53,3.79-3.74,5.61-.38.55-.22.44.17.11,1.98-1.76,11.49-4.34,12.26,4.95.17,2.14-.28,4.01-.28,6.05,0,4.89,4.73,4.29,7.97,1.38,2.8-2.53,4.01-5.17,5-7.7,1.59-4.07,7.37-1.26,5.28,2.86-1.54,3.02-3.68,6.6-6.93,9.13-5.94,4.67-16.94,5.88-16.83-4.51Z"/>
      <path class="cls-1" d="M449.79,11.46c-2.86-3.52,2.53-6.49,4.73-3.35,2.36,3.35,4.84,8.25,6.43,12.81,2.97-2.09,6.1-4.07,9.68-6.05,3.74-2.09,6.6,3.19,2.37,5.33-5.61,2.86-11.27,6.05-15.62,9.73-5.44,4.62-5.61,8.74-1.32,10.83,3.85,1.92,11.71.5,15.01-.71,4.62-1.76,6.27,4.56,1.37,5.94-4.34,1.21-13.53,2.31-18.97-.44-7.92-4.01-7.59-12.92,1.32-20.02.55-.44,1.04-.88,1.59-1.26-1.43-4.34-4.07-9.73-6.6-12.81Z"/>
      <path class="cls-1" d="M497.97,45c-1.76-5.55-1.59-12.65-.88-19.3s1.92-12.81,2.2-16.39c.33-4.45,6.1-3.35,5.55.11-.38,2.47-1.32,7.26-2.04,11.93-.71,4.67-1.26,9.29-1.04,11.49.11.99.16,1.15.71.06.16-.33.55-1.32.66-1.59,1.26-2.64,5.44-.77,3.46,3.35-.71,1.48-1.26,2.97-1.71,4.34-.44,1.38-.77,2.58-.99,3.46-.44,1.54.27,3.08-1.1,4.4-1.43,1.32-3.9,1.1-4.84-1.87ZM515.07,46.16c-4.78-2.75-4.89-9.02.83-11.55,2.97-1.32,6.32-1.37,9.68-.66,0-.88-.11-1.71-.17-2.75-.17-2.25-.28-6.49-.44-10.83-2.97.44-5.88.66-9.02.39-3.79-.33-3.13-5.94,1.1-5.22,2.42.44,5.06.28,7.75-.17-.05-3.08-.11-5.88-.05-7.59.11-3.57,5.5-3.08,5.28-.11-.11,1.54-.17,3.85-.17,6.54.93-.27,1.92-.49,2.8-.77,3.57-1.1,5.94,3.9,1.21,5.06-1.32.33-2.64.66-3.96.94.05,4.29.22,8.58.33,11.27.06,1.37.28,3.19.33,4.95,2.31,1.1,4.51,2.47,6.21,4.01,3.13,2.86-.77,7.64-3.52,4.73-.99-.99-2.15-1.98-3.41-2.86-2.09,4.34-8.8,8.03-14.79,4.62ZM525.08,38.96c-2.75-1.04-5.5-1.32-7.59-.33-1.32.6-1.65,2.47-.33,3.24,2.64,1.48,7.09.33,7.97-2.91h-.05Z"/>
    </g>
  </g>
</svg>