<?xml version="1.0" encoding="UTF-8"?>
<svg id="Layer_2" data-name="Layer 2" xmlns="http://www.w3.org/2000/svg" viewBox="0 0 523.15 124.38">
  <defs>
    <style>
      .cls-1 {
        fill: #b37474;
      }

      .cls-1, .cls-2, .cls-3 {
        stroke-width: 0px;
      }

      .cls-2 {
        fill: #b37474;
      }

      .cls-3 {
        fill: #f2cece;
      }
    </style>
  </defs>
  <g id="text">
    <g>
      <path class="cls-3" d="M287.73,34.31c4.57-5.38.93-14.72-4.03-21.53,2.93-1.1,2.8-4.17-4.25-9.07-1.43-.99-3.98.77-4.33,1.82-1.74-1.29-5.51-1.93-10.05-2.09-7.3,0-11.86,2.37-13.6,3.66-.35-1.05-1.9-2.43-3.39-1.52-8.61,5.32-7.78,8.78-4.85,9.88-4.96,6.81-8.93,16.15-4.36,21.53-5.18,3.39-1.54,6.27.5,6.19,3.06-.12,5.9-2.88,5.9-4.91,2.87,0,12.83,0,17.06,0h0c1.01,0,12.85,0,15.94,0,0,2.04,2.82,4.61,5.87,4.91,4.13.41,8.5-5.89,3.58-8.88Z"/>
      <g>
        <path class="cls-2" d="M261.72,35.02c5.73,0,9.58-2.56,9.58-6.38s-4.3-7.18-9.58-7.18-9.58,3.22-9.58,7.18,3.85,6.38,9.58,6.38ZM261.72,23.96c3.84,0,7.08,2.14,7.08,4.68,0,2.67-3.67,3.88-7.08,3.88s-7.08-1.22-7.08-3.88,3.24-4.68,7.08-4.68Z"/>
        <path class="cls-2" d="M274.63,23.92c1.08,0,1.95-.87,1.95-1.95s-.87-1.95-1.95-1.95-1.95.87-1.95,1.95.87,1.95,1.95,1.95Z"/>
        <path class="cls-2" d="M265.89,30.69c.77-.28,1.03-1.55.56-2.83-.46-1.28-1.65-2.6-2.42-2.33-.77.28-.84,2.05-.38,3.34.46,1.28,1.47,2.1,2.24,1.82Z"/>
        <path class="cls-2" d="M248.84,23.92c1.08,0,1.95-.87,1.95-1.95s-.87-1.95-1.95-1.95-1.95.87-1.95,1.95.87,1.95,1.95,1.95Z"/>
        <path class="cls-2" d="M257.58,30.69c.77.28,1.78-.53,2.24-1.82.46-1.28.39-3.06-.38-3.34-.77-.28-1.96,1.04-2.42,2.33-.46,1.28-.21,2.55.56,2.83Z"/>
        <path class="cls-2" d="M1.25,39.75h231.26c.93,2.9,4.01,4.91,6.82,4.91s5.89-2.01,6.82-4.91h31.13c.93,2.9,4.01,4.91,6.82,4.91s5.89-2.01,6.82-4.91h230.6c.69,0,1.25-.56,1.25-1.25s-.56-1.25-1.25-1.25h-230.36c-.12-.92-.52-2.12-1.67-3.06,3.99-6.05-.01-13.49-4.17-20.77.86-.64,1.49-1.46,1.56-2.47.16-2.37-3.07-5.87-5.3-7.49-1.97-1.43-3.63-1.9-4.9-1.38-.54.22-1.01.58-1.42,1.03-4.41-2.5-11.3-3.1-13.54-3.1s-9.15.59-13.54,3.1c-.41-.44-.88-.81-1.42-1.03-1.28-.51-2.92-.05-4.9,1.38-2.23,1.62-5.46,5.12-5.3,7.49.07,1.01.69,1.81,1.53,2.45-4.16,7.28-8.18,14.73-4.18,20.78-1.14.94-1.55,2.14-1.67,3.06H1.25c-.69,0-1.25.56-1.25,1.25s.56,1.25,1.25,1.25ZM239.33,42.16c-2.09,0-4.62-1.88-4.62-4.21,0-.69,0-2.78,4.62-2.78s4.62,2.09,4.62,2.78c0,2.33-2.52,4.21-4.62,4.21ZM284.11,42.16c-2.09,0-4.62-1.88-4.62-4.21,0-.69,0-2.78,4.62-2.78s4.62,2.09,4.62,2.78c0,2.33-2.52,4.21-4.62,4.21ZM277.63,4.39s.07-.02.14-.02c.32,0,1.1.19,2.36,1.11,2.44,1.77,4.33,4.47,4.27,5.3,0,.15-.5.91-2.6,1.66-3.02,1.08-5.95.97-6.4.5-.28-.32-.49-2.08.07-4.47.55-2.33,1.5-3.82,2.15-4.08ZM243.35,5.48c1.26-.92,2.04-1.11,2.36-1.11.06,0,.11,0,.14.02.65.26,1.6,1.75,2.15,4.08.57,2.39.35,4.15.07,4.47-.44.47-3.38.58-6.4-.5-2.09-.75-2.59-1.51-2.6-1.66-.06-.83,1.83-3.53,4.27-5.3ZM240.31,14.59c.22.09.45.17.66.25,1.45.5,3.46.94,5.27.94,1.53,0,2.91-.31,3.68-1.16,1.52-1.67.79-5.48.53-6.61-.15-.66-.44-1.73-.93-2.8,3.63-2.03,9.64-2.71,12.2-2.71s8.56.68,12.2,2.71c-.48,1.07-.77,2.14-.92,2.8-.26,1.13-.98,4.94.53,6.61.77.85,2.15,1.17,3.68,1.17,1.81,0,3.82-.44,5.27-.94.21-.07.42-.15.63-.24,4.15,7.26,7.55,13.58,4.09,18.45-.85-.24-1.88-.38-3.12-.38-5.59,0-6.84,2.8-7.07,4.57h-30.64c-.23-1.77-1.48-4.57-7.07-4.57-1.25,0-2.27.14-3.12.38-3.46-4.88-.05-11.2,4.1-18.46Z"/>
        <path class="cls-2" d="M521.9,121.88H1.62c-.69,0-1.25.56-1.25,1.25s.56,1.25,1.25,1.25h520.28c.69,0,1.25-.56,1.25-1.25s-.56-1.25-1.25-1.25Z"/>
        <path class="cls-2" d="M354.45,45.84h-10c-.41,0-.75.34-.75.75s.34.75.75.75h10c.41,0,.75-.34.75-.75s-.34-.75-.75-.75Z"/>
        <path class="cls-2" d="M334.45,45.84h-10c-.41,0-.75.34-.75.75s.34.75.75.75h10c.41,0,.75-.34.75-.75s-.34-.75-.75-.75Z"/>
        <path class="cls-2" d="M274.45,45.84h-10c-.41,0-.75.34-.75.75s.34.75.75.75h10c.41,0,.75-.34.75-.75s-.34-.75-.75-.75Z"/>
        <path class="cls-2" d="M374.45,45.84h-10c-.41,0-.75.34-.75.75s.34.75.75.75h10c.41,0,.75-.34.75-.75s-.34-.75-.75-.75Z"/>
        <path class="cls-2" d="M314.45,45.84h-10c-.41,0-.75.34-.75.75s.34.75.75.75h10c.41,0,.75-.34.75-.75s-.34-.75-.75-.75Z"/>
        <path class="cls-2" d="M294.45,45.84h-10c-.41,0-.75.34-.75.75s.34.75.75.75h10c.41,0,.75-.34.75-.75s-.34-.75-.75-.75Z"/>
        <path class="cls-2" d="M474.45,45.84h-10c-.41,0-.75.34-.75.75s.34.75.75.75h10c.41,0,.75-.34.75-.75s-.34-.75-.75-.75Z"/>
        <path class="cls-2" d="M394.45,45.84h-10c-.41,0-.75.34-.75.75s.34.75.75.75h10c.41,0,.75-.34.75-.75s-.34-.75-.75-.75Z"/>
        <path class="cls-2" d="M514.45,45.84h-10c-.41,0-.75.34-.75.75s.34.75.75.75h10c.41,0,.75-.34.75-.75s-.34-.75-.75-.75Z"/>
        <path class="cls-2" d="M254.45,45.84h-10c-.41,0-.75.34-.75.75s.34.75.75.75h10c.41,0,.75-.34.75-.75s-.34-.75-.75-.75Z"/>
        <path class="cls-2" d="M494.45,45.84h-10c-.41,0-.75.34-.75.75s.34.75.75.75h10c.41,0,.75-.34.75-.75s-.34-.75-.75-.75Z"/>
        <path class="cls-2" d="M434.45,45.84h-10c-.41,0-.75.34-.75.75s.34.75.75.75h10c.41,0,.75-.34.75-.75s-.34-.75-.75-.75Z"/>
        <path class="cls-2" d="M454.45,45.84h-10c-.41,0-.75.34-.75.75s.34.75.75.75h10c.41,0,.75-.34.75-.75s-.34-.75-.75-.75Z"/>
        <path class="cls-2" d="M414.45,45.84h-10c-.41,0-.75.34-.75.75s.34.75.75.75h10c.41,0,.75-.34.75-.75s-.34-.75-.75-.75Z"/>
        <path class="cls-2" d="M74.45,45.84h-10c-.41,0-.75.34-.75.75s.34.75.75.75h10c.41,0,.75-.34.75-.75s-.34-.75-.75-.75Z"/>
        <path class="cls-2" d="M174.45,45.84h-10c-.41,0-.75.34-.75.75s.34.75.75.75h10c.41,0,.75-.34.75-.75s-.34-.75-.75-.75Z"/>
        <path class="cls-2" d="M194.45,45.84h-10c-.41,0-.75.34-.75.75s.34.75.75.75h10c.41,0,.75-.34.75-.75s-.34-.75-.75-.75Z"/>
        <path class="cls-2" d="M114.45,45.84h-10c-.41,0-.75.34-.75.75s.34.75.75.75h10c.41,0,.75-.34.75-.75s-.34-.75-.75-.75Z"/>
        <path class="cls-2" d="M94.45,45.84h-10c-.41,0-.75.34-.75.75s.34.75.75.75h10c.41,0,.75-.34.75-.75s-.34-.75-.75-.75Z"/>
        <path class="cls-2" d="M214.45,45.84h-10c-.41,0-.75.34-.75.75s.34.75.75.75h10c.41,0,.75-.34.75-.75s-.34-.75-.75-.75Z"/>
        <path class="cls-2" d="M54.45,45.84h-10c-.41,0-.75.34-.75.75s.34.75.75.75h10c.41,0,.75-.34.75-.75s-.34-.75-.75-.75Z"/>
        <path class="cls-2" d="M154.45,45.84h-10c-.41,0-.75.34-.75.75s.34.75.75.75h10c.41,0,.75-.34.75-.75s-.34-.75-.75-.75Z"/>
        <path class="cls-2" d="M14.45,45.84H4.45c-.41,0-.75.34-.75.75s.34.75.75.75h10c.41,0,.75-.34.75-.75s-.34-.75-.75-.75Z"/>
        <path class="cls-2" d="M234.45,45.84h-10c-.41,0-.75.34-.75.75s.34.75.75.75h10c.41,0,.75-.34.75-.75s-.34-.75-.75-.75Z"/>
        <path class="cls-2" d="M34.45,45.84h-10c-.41,0-.75.34-.75.75s.34.75.75.75h10c.41,0,.75-.34.75-.75s-.34-.75-.75-.75Z"/>
        <path class="cls-2" d="M134.45,45.84h-10c-.41,0-.75.34-.75.75s.34.75.75.75h10c.41,0,.75-.34.75-.75s-.34-.75-.75-.75Z"/>
        <path class="cls-2" d="M134.45,113.87h-10c-.41,0-.75.34-.75.75s.34.75.75.75h10c.41,0,.75-.34.75-.75s-.34-.75-.75-.75Z"/>
        <path class="cls-2" d="M514.45,113.87h-10c-.41,0-.75.34-.75.75s.34.75.75.75h10c.41,0,.75-.34.75-.75s-.34-.75-.75-.75Z"/>
        <path class="cls-2" d="M114.45,113.87h-10c-.41,0-.75.34-.75.75s.34.75.75.75h10c.41,0,.75-.34.75-.75s-.34-.75-.75-.75Z"/>
        <path class="cls-2" d="M34.45,113.87h-10c-.41,0-.75.34-.75.75s.34.75.75.75h10c.41,0,.75-.34.75-.75s-.34-.75-.75-.75Z"/>
        <path class="cls-2" d="M274.45,113.87h-10c-.41,0-.75.34-.75.75s.34.75.75.75h10c.41,0,.75-.34.75-.75s-.34-.75-.75-.75Z"/>
        <path class="cls-2" d="M54.45,113.87h-10c-.41,0-.75.34-.75.75s.34.75.75.75h10c.41,0,.75-.34.75-.75s-.34-.75-.75-.75Z"/>
        <path class="cls-2" d="M74.45,113.87h-10c-.41,0-.75.34-.75.75s.34.75.75.75h10c.41,0,.75-.34.75-.75s-.34-.75-.75-.75Z"/>
        <path class="cls-2" d="M94.45,113.87h-10c-.41,0-.75.34-.75.75s.34.75.75.75h10c.41,0,.75-.34.75-.75s-.34-.75-.75-.75Z"/>
        <path class="cls-2" d="M494.45,113.87h-10c-.41,0-.75.34-.75.75s.34.75.75.75h10c.41,0,.75-.34.75-.75s-.34-.75-.75-.75Z"/>
        <path class="cls-2" d="M14.45,113.87H4.45c-.41,0-.75.34-.75.75s.34.75.75.75h10c.41,0,.75-.34.75-.75s-.34-.75-.75-.75Z"/>
        <path class="cls-2" d="M354.45,113.87h-10c-.41,0-.75.34-.75.75s.34.75.75.75h10c.41,0,.75-.34.75-.75s-.34-.75-.75-.75Z"/>
        <path class="cls-2" d="M334.45,113.87h-10c-.41,0-.75.34-.75.75s.34.75.75.75h10c.41,0,.75-.34.75-.75s-.34-.75-.75-.75Z"/>
        <path class="cls-2" d="M234.45,113.87h-10c-.41,0-.75.34-.75.75s.34.75.75.75h10c.41,0,.75-.34.75-.75s-.34-.75-.75-.75Z"/>
        <path class="cls-2" d="M214.45,113.87h-10c-.41,0-.75.34-.75.75s.34.75.75.75h10c.41,0,.75-.34.75-.75s-.34-.75-.75-.75Z"/>
        <path class="cls-2" d="M314.45,113.87h-10c-.41,0-.75.34-.75.75s.34.75.75.75h10c.41,0,.75-.34.75-.75s-.34-.75-.75-.75Z"/>
        <path class="cls-2" d="M254.45,113.87h-10c-.41,0-.75.34-.75.75s.34.75.75.75h10c.41,0,.75-.34.75-.75s-.34-.75-.75-.75Z"/>
        <path class="cls-2" d="M294.45,113.87h-10c-.41,0-.75.34-.75.75s.34.75.75.75h10c.41,0,.75-.34.75-.75s-.34-.75-.75-.75Z"/>
        <path class="cls-2" d="M374.45,113.87h-10c-.41,0-.75.34-.75.75s.34.75.75.75h10c.41,0,.75-.34.75-.75s-.34-.75-.75-.75Z"/>
        <path class="cls-2" d="M434.45,113.87h-10c-.41,0-.75.34-.75.75s.34.75.75.75h10c.41,0,.75-.34.75-.75s-.34-.75-.75-.75Z"/>
        <path class="cls-2" d="M454.45,113.87h-10c-.41,0-.75.34-.75.75s.34.75.75.75h10c.41,0,.75-.34.75-.75s-.34-.75-.75-.75Z"/>
        <path class="cls-2" d="M394.45,113.87h-10c-.41,0-.75.34-.75.75s.34.75.75.75h10c.41,0,.75-.34.75-.75s-.34-.75-.75-.75Z"/>
        <path class="cls-2" d="M474.45,113.87h-10c-.41,0-.75.34-.75.75s.34.75.75.75h10c.41,0,.75-.34.75-.75s-.34-.75-.75-.75Z"/>
        <path class="cls-2" d="M174.45,113.87h-10c-.41,0-.75.34-.75.75s.34.75.75.75h10c.41,0,.75-.34.75-.75s-.34-.75-.75-.75Z"/>
        <path class="cls-2" d="M194.45,113.87h-10c-.41,0-.75.34-.75.75s.34.75.75.75h10c.41,0,.75-.34.75-.75s-.34-.75-.75-.75Z"/>
        <path class="cls-2" d="M414.45,113.87h-10c-.41,0-.75.34-.75.75s.34.75.75.75h10c.41,0,.75-.34.75-.75s-.34-.75-.75-.75Z"/>
        <path class="cls-2" d="M154.45,113.87h-10c-.41,0-.75.34-.75.75s.34.75.75.75h10c.41,0,.75-.34.75-.75s-.34-.75-.75-.75Z"/>
      </g>
      <g>
        <path class="cls-1" d="M66.24,96.79c.44,7.86-6.6,7.75-11.11,5.55-6.54-3.19-4.73-7.09-1.82-10.28,1.71-1.81,4.51-3.96,7.75-5.83-.05-2.31-.11-4.67-.11-6.87-2.25.44-4.51.5-6.6.22-4.07-.49-3.41-5.99,1.16-5.06,1.38.27,3.41.06,5.55-.5,0-2.58-.11-4.34-.22-6.43-.22-4.07,5.83-3.96,5.55-.05-.11,1.21-.17,2.97-.28,4.62.83-.38,1.54-.82,2.2-1.26,2.97-1.98,6.32,2.36,2.47,4.67-1.65.99-3.41,1.81-5.17,2.47-.05,1.7-.05,3.74,0,5.83,1.54-.71,3.13-1.26,4.62-1.7,4.73-1.38,9.4-.94,12.21.05,9.07,3.13,7.59,10.56,4.78,14.63-3.57,5.17-11.27,6.93-17.65,3.3-3.13-1.81-.99-6.32,2.36-4.67,4.29,2.09,7.81,2.15,10.45-1.37,1.32-1.76,2.86-5.66-1.92-7.42-2.14-.82-5.06-.99-8.91-.11-1.98.44-3.9,1.21-5.77,2.09.11,2.91.33,5.77.44,8.14ZM57,95.03c-1.15,1.26-1.15,2.69.11,3.3,2.36,1.15,3.96.99,4.01-1.16.05-1.48.05-3.52,0-5.77-1.59,1.15-2.97,2.36-4.12,3.63ZM88.18,77.65c-1.43-1.27-4.45-2.58-7.26-2.25-3.35.38-4.23-4.51-.27-4.84,3.96-.33,9.46,1.04,11.44,3.13,1.32,1.37.99,2.91.05,3.9s-2.58,1.26-3.96.06Z"/>
        <path class="cls-1" d="M106.06,64.95c-1.54,0-2.36-1.21-2.36-2.42s.83-2.47,2.47-2.53h2.14c3.58,0,9.51.06,11.44.06,5.94.05,6.27,2.8,6.27,8.03,0,.99,0,1.92-.05,2.75-.11,3.35-2.37,5.11-6.21,5.11-.99,0-8.19-.11-8.74-.11-1.21,0-1.82.38-2.09,1.15-.06.22-.94,3.13-.94,4.12,0,.82.66.99,1.16.99,1.26-.05,4.89-.11,7.81-.11,5.33,0,9.68.17,9.68,5.88,0,2.75-.77,7.09-2.2,10.17-2.47,5.28-7.75,7.53-13.8,7.53-2.03,0-4.18-.27-6.32-.77-1.65-.38-2.42-1.59-2.42-2.8,0-1.38,1.04-2.75,2.97-2.75.44,0,.88.11,1.37.22,1.65.44,3.3.66,4.79.66,3.63,0,6.54-1.32,7.92-3.85,1.32-2.47,2.09-5.55,2.09-7.7,0-1.92-1.32-1.98-3.79-1.98-3.13,0-8.85.17-10.12.17-3.63,0-4.95-1.54-4.95-3.74,0-.33.06-.77.11-1.15,1.76-9.18,3.13-10.78,7.37-10.78h.22c.83,0,7.81.17,8.63.17,1.54,0,1.98-.5,1.98-2.97,0-2.86-.22-3.35-1.98-3.35h-12.43ZM137.35,61.98c0-1.65,1.43-2.42,2.8-2.42,1.49,0,2.92.82,2.92,2.42v42.34c0,1.54-1.43,2.31-2.86,2.31s-2.86-.77-2.86-2.31v-42.34Z"/>
        <path class="cls-1" d="M161.78,80.73c-2.15-1.76-4.07-2.58-6.05-3.3-.99-.33-1.38-1.1-1.38-1.81,0-1.27,1.1-2.64,2.64-2.64,1.71,0,5.99,1.76,7.7,3.02.83.6,1.16,1.48,1.16,2.31,0,1.54-1.16,3.02-2.53,3.02-.5,0-1.04-.16-1.54-.6ZM157.54,105.26c-1.48,0-2.86-1.15-2.86-2.64,0-.44.17-.99.5-1.48,2.75-4.18,4.45-8.14,6.21-13.42.39-1.15,1.38-1.7,2.42-1.7,1.26,0,2.58.88,2.58,2.47,0,.49-1.71,7.86-6.1,15.07-.71,1.21-1.76,1.7-2.75,1.7ZM163.59,68.86c-1.71-2.09-3.9-3.35-5.22-4.18-.71-.44-1.04-1.1-1.04-1.7,0-1.21,1.26-2.47,2.75-2.47,1.15,0,8.14,3.19,8.14,6.32,0,1.54-1.38,2.97-2.8,2.97-.6,0-1.26-.27-1.81-.93ZM200.71,68.69c-2.8-.06-6.71-.11-10.61-.11-4.79,0-9.62.05-12.7.11-1.81.05-2.42.99-2.42,2.58v.6c0,2.09.05,4.4.05,6.93,0,8.47-.66,18.64-6.43,25.57-.71.88-1.54,1.21-2.36,1.21-1.49,0-2.8-1.21-2.8-2.53,0-.44.17-.88.5-1.32,5.33-6.71,6.21-15.4,6.21-22.55,0-3.02-.17-5.83-.22-8.03v-.39c0-4.34,1.87-6.54,6.54-6.6,2.2,0,4.84-.06,7.59-.06l-.05-3.41v-.05c0-1.48,1.32-2.25,2.69-2.25s2.69.77,2.69,2.25v.05l-.05,3.41c4.23,0,8.41.06,11.44.11,1.65,0,2.42,1.1,2.42,2.14,0,1.16-.83,2.31-2.42,2.31h-.05ZM177.94,91.02c-1.32,0-1.98-1.04-1.98-2.14s.66-2.09,1.92-2.09h2.25c3.02,0,6.65-.05,9.9-.05,1.43,0,2.75,0,3.96.05,3.13.06,4.45,1.76,4.45,3.52,0,2.2-3.02,6.05-6.05,8.74,3.02,1.26,6.38,1.98,9.73,2.25,1.48.11,2.25,1.15,2.25,2.31,0,1.32-1.04,2.69-3.08,2.69-1.54,0-7.42-.93-13.2-4.18-6.32,3.68-13.69,4.84-14.41,4.84-1.54,0-2.47-1.27-2.47-2.47,0-1.04.66-2.04,2.14-2.25,4.4-.6,7.86-1.65,10.61-2.91-.93-.71-4.45-3.68-4.45-5.11,0-1.27,1.43-2.36,2.69-2.36.5,0,.99.22,1.38.66,1.32,1.65,2.86,3.08,4.56,4.23.71-.6,4.34-4.12,4.34-5.28,0-.44-.38-.6-.71-.6h-1.48c-3.41,0-8.63.11-12.32.16h-.06ZM195.6,78.04c0,4.78,0,6.76-7.75,6.76-5.55,0-7.15,0-7.15-6.76h-3.08c-1.32,0-1.98-1.04-1.98-2.09s.66-2.09,1.98-2.09l3.08.05v-2.97c0-1.26,1.16-1.87,2.25-1.87,1.15,0,2.25.6,2.25,1.92v2.91h5.83v-2.86c0-1.32,1.04-1.98,2.14-1.98,1.16,0,2.31.71,2.36,2.03,0,.88.06,1.87.06,2.8l3.85-.05c1.37,0,2.03,1.04,2.03,2.09s-.66,2.09-2.03,2.09h-3.85ZM185.2,77.82c0,3.3.17,3.52,2.91,3.52s2.92-.71,2.92-1.37.05-1.38.05-2.15h-5.88Z"/>
        <path class="cls-1" d="M222.77,93.55c-.22-5.77.38-10.45.66-16.28.17-3.57.55-8.96.44-12.37-.11-4.07,6.1-3.74,5.99-.11-.11,3.46-.5,8.69-.77,12.37-.39,5.83-1.21,10.83-.99,16.17.33,8.03,10.12,7.48,19.69-.06,3.57-2.8,6.93,2.25,3.79,4.78-10.72,8.74-28.32,10.34-28.82-4.51Z"/>
        <path class="cls-1" d="M273.42,102.07c-4.4-10.83-.05-27.11.93-33.66.61-4.07,5.94-2.86,5.33.33-.88,4.45-4.18,17.38-2.86,22.49.17.71.39.55.61.06.11-.28.71-1.38.93-1.76,1.71-2.69,5.11-.06,3.85,2.14-2.04,3.57-2.92,6.1-3.24,7.7-.33,1.48.33,3.19-1.04,4.4-1.38,1.21-3.41.99-4.51-1.71ZM288.16,98.17c-2.25-2.47,1.04-6.38,3.9-3.79,2.97,2.69,9.57,1.81,13.86.93,4.45-.93,4.73,4.89,1.1,5.83-5.88,1.48-14.9,1.32-18.86-2.97ZM291.3,76.22c-3.03.77-4.79-4.12-.77-5.11,4.89-1.21,10.61-1.26,14.46-.33,3.85.94,2.8,6.1-.93,5.28-3.96-.82-8.14-.99-12.76.17Z"/>
        <path class="cls-1" d="M341.18,102.68c-5.11.82-5.5-5.22-1.1-5.83,6.93-.94,12.26-2.97,16.17-6.43,4.67-4.12,5-8.63,2.47-11.55-3.52-4.01-9.73-3.9-14.68-2.42-2.86.88-5.39,2.03-7.86,3.24s-4.95,2.47-7.64,3.74c-4.46,2.03-6.82-3.79-2.7-5.5,4.78-1.98,11.27-4.95,17.21-6.43,6.27-1.6,14.63-1.54,19.69,3.74,5.94,6.21,3.74,14.08-3.02,19.69-4.46,3.68-10.39,6.38-18.53,7.75Z"/>
        <path class="cls-1" d="M385.95,97.23c-3.96-4.29-5.77-10.67-6.21-17.6-.22-3.13-.33-4.12-.28-6.1.11-3.46,5.44-4.18,5.61-.06.11,2.15-.11,2.25,0,4.78.22,5.77,1.26,11.22,4.34,14.19,1.43,1.37,2.14,1.54,3.35-.11.66-.94,1.43-2.36,1.81-3.24,1.49-3.19,6.05-.88,5,1.98-.55,1.54-1.54,3.24-2.14,4.23-3.52,5.72-8.41,5.22-11.49,1.92ZM415.71,87.55c-.88-4.4-3.13-8.63-6.1-10.67-2.64-1.81.33-5.88,3.63-3.41,3.91,2.91,7.7,8.08,8.25,12.76.44,4.01-5,5.11-5.77,1.32Z"/>
        <path class="cls-1" d="M449.48,77.93c.55-1.04,1.04-1.92,1.76-2.86.88-1.15.6-1.1-.44-.77-4.12,1.32-3.19,1.32-6.93,2.75-1.76.66-3.3,1.21-4.95,1.65-4.84,1.32-6.27-5-1.87-5.94,1.16-.27,4.34-.88,6.1-1.32,2.69-.66,7.48-1.76,13.09-3.35,5.66-1.59,10.17-2.91,15.01-3.24,3.41-.22,4.34,2.47,3.74,4.23-.33.94-1.54,2.03-5.39,1.81-2.8-.17-6.32.88-8.19,1.54-3.08,1.1-5.83,4.4-7.04,6.43-4.84,8.08-1.16,19.63,11.16,19.19,5.77-.22,6.1,6.27.28,6.21-16.61-.06-22.33-15.29-16.33-26.34Z"/>
      </g>
    </g>
  </g>
</svg>