<?xml version="1.0" encoding="UTF-8"?>
<svg id="Layer_2" data-name="Layer 2" xmlns="http://www.w3.org/2000/svg" viewBox="0 0 160.65 173.64">
  <defs>
    <style>
      .cls-1 {
        fill: #f2cece;
        stroke-width: 0px;
      }
    </style>
  </defs>
  <g id="texture">
    <g>
      <path class="cls-1" d="M122.01,24.28c13.26,8.69,26.54,17.47,38.13,28.35,1.19.97-.02,2.33-.52,3.35-2,3.48-4,6.96-6.01,10.43-21.8,34.52-43.15,69.43-67.68,102.12-1.27,1.36-3.46,6.3-5.48,4.85-7.55-4.49-15.53-8.33-23-13.01-19.67-12.07-38.65-25.26-56.48-39.87-2.38-1.16.34-3.78.99-5.3,1.91-3.19,3.88-6.35,5.77-9.55,19.12-31.73,40.69-61.9,61.9-92.23,2.65-3.68,5.37-7.32,8.25-10.83.89-1.03,1.67-3.14,3.33-2.46,14.42,6.59,27.73,15.25,40.83,24.11l-.03.04ZM120.29,26.87c-12.43-8.53-25.18-16.59-38.66-23.38-.69-.37-.68-.39-1.15.29-2.61,3.79-5.41,7.45-8.13,11.17-18.25,25.87-36.45,51.82-53.5,78.5-5,7.81-9.64,15.85-14.51,23.75-.26.6-1.22,1.24-.42,1.82,14.99,12.06,30.65,23.3,46.95,33.56,8.68,5.74,17.87,10.62,26.84,15.85.85.33,3.07,2.23,3.57,1.18,1.44-2,2.9-3.99,4.37-5.97,15.56-20.61,29.44-42.4,43.28-64.17,7.55-11.97,15.54-23.66,22.67-35.9,1.78-3,3.62-5.96,5.43-8.94.4-.66.4-.65-.16-1.1-11.53-9.79-23.87-18.49-36.59-26.66Z"/>
      <path class="cls-1" d="M116.73,32.37c10.63,6.88,20.82,14.43,30.61,22.47.71.62,1.27,1.49.59,2.39-1.72,2.77-3.42,5.54-5.13,8.31-16.12,26.85-34.35,52.33-52.46,77.85-1.26,1.53-2.19,4.9-4.53,2.37-1.11-1.11-2.76-1.5-4.03-2.42-18.98-11.39-37.55-23.55-55.23-36.88-.93-.59-1.57-1.7-2.76-1.79-1.43-.16-1.44-2.36-.53-3.17,4.59-6.69,8.73-13.72,13-20.62,13.64-22.76,28.7-44.63,44.28-66.09.96-.87,1.14-2.8,2.89-2.25,2.73,1.19,5.27,2.81,7.93,4.17,8.61,4.95,17.16,10.04,25.36,15.65ZM57.8,52.89c-9.84,14.29-18.51,29.33-27.82,43.96-4.11,7.43-5.51,4.33,1.52,9.42,17.09,12.82,35.16,24.28,53.38,35.41.41.27.83.54,1.25.79.74.45.75.45,1.24-.27,6.9-10.11,14.19-19.95,21.29-29.92,12.43-17.51,23.51-35.91,35.18-53.92.31-.7,1.57-1.57.61-2.19-1.73-1.26-3.44-2.54-5.14-3.83-14.12-11-29.01-21.03-44.48-30.04-3.45-2.04-6.98-3.96-10.41-6.05-1.03-.61-.86-.76-1.64.37-8.18,12.18-17.14,23.84-24.99,36.26Z"/>
      <path class="cls-1" d="M42.31,131.1c4.98-7.63,17.31.18,12.14,8.05-5.13,7.98-17.43-.58-12.14-8.05ZM51.4,137.18c2.87-4.48-3.29-8.12-6.1-4.14-2.79,3.94,2.92,8.66,6.1,4.14Z"/>
      <path class="cls-1" d="M73.84,96.82c-15.68-11.49-3.37-27.67,12.12-17.26,1.78,1.35,3.49,2.8,4.74,4.69,3.12,4.49,2.85,12.02-2.6,14.48-4.63,2.05-10.17.72-14.26-1.91ZM75.49,94.14c3.8,2.53,11.28,4.51,13.66-.74,1.77-4.76-1.59-9.58-5.49-12.04-3.56-2.25-8.45-3.13-12.04-.43-4.81,3.82.04,10.6,3.88,13.2Z"/>
      <path class="cls-1" d="M76.08,61.34c-1.89,3.16-4.3,1.06-6.23-.89-1.77-1.58-3.41-3.27-4.71-5.27-4.76-6.26,7.67-7.05,11.48-7.19,7.95-.57,1.14,9.98-.53,13.35ZM73.9,58.95c1.22-2.41,2.63-4.74,3.24-7.38.29-.87-.25-.78-.96-.74-2.79.25-5.67.59-8.23,1.78-1.98.41,4.31,5.8,4.96,6.47.53.51.61.5,1-.12Z"/>
      <path class="cls-1" d="M105.95,80.77c2.44-2.99,4.79-6.49,8.49-8.04,3.2-.96,4.05,5.24,4.9,7.34.68,2.23.83,4.53.47,6.83-.51,3.18-4.32,1.86-6.43,1.31-2.25-.65-4.33-1.73-6.43-2.72-2.32-.99-2.59-2.85-1-4.72ZM109.15,81.59c-.4.72-1.16,1.19-.03,1.55,2.28,1.07,4.58,2.16,7.08,2.59,1.97.74-.47-7.81-.81-8.74-.37-1.22-.46-1.24-1.47-.45-1.88,1.46-3.31,3.35-4.77,5.05Z"/>
      <path class="cls-1" d="M101.81,85.51c3.35,2.31-.06,6.78-3.19,4.77-3.31-2.33.38-6.9,3.19-4.77Z"/>
      <path class="cls-1" d="M74.19,70.7c-2.02,3.06-6.83-.15-4.69-3.34,1.98-3.11,7,.18,4.69,3.34Z"/>
      <path class="cls-1" d="M82.84,87.7c.61-1.24,2.43-2.22,3.17-.55.75,1.7-1.38,8.12-4.01,6.53-1.87-1.29.07-4.46.84-5.98Z"/>
      <path class="cls-1" d="M78.64,85.07c-1.04,1.44-3.31,4.28-5.2,2.9-1.88-2.16,2.1-5.13,3.85-6,2.32-.66,2.74,1.67,1.35,3.1Z"/>
    </g>
  </g>
</svg>