<?xml version="1.0" encoding="UTF-8"?>
<svg id="Layer_2" data-name="Layer 2" xmlns="http://www.w3.org/2000/svg" viewBox="0 0 81.46 80.66">
  <defs>
    <style>
      .cls-1 {
        fill: #f2cece;
        stroke-width: 0px;
      }
    </style>
  </defs>
  <g id="texture">
    <g>
      <path class="cls-1" d="M25.98,8.09c4.44-1.89,8.73-4.18,13.36-5.56,2.17-.69,4.37-1.25,6.58-1.8,2.39-.49,4.85-1.08,7.28-.46,3.41.79,6.39,2.69,8.58,5.42,1.05,1.25,2.22,2.45,2.9,3.95.56.75,1.08,1.54,1.57,2.34,1.09,1.51,1.86,3.2,2.72,4.85.64,1.53,1.51,2.95,2.18,4.46,3.15,6.84,6.74,13.58,8.69,20.88.82,3.18,2.04,6.43,1.48,9.76-.33,1.77-.8,3.56-1.85,5.05-2,2.66-4.67,4.78-7.39,6.65-3.72,2.57-7.71,4.68-11.75,6.69-4.35,2.37-8.97,4.12-13.57,5.91-6.16,2.3-12.6,4.44-19.25,4.42-4.19-.19-7.87-2.96-10.08-6.41-.81-1.17-1.47-2.44-2.34-3.56-.94-1.47-1.71-3.04-2.61-4.52-2.76-5.29-4.85-10.89-7.25-16.34-.78-2.17-1.64-4.3-2.52-6.44-.48-1.22-.7-2.55-1.08-3.81-.12-.45-.27-.9-.34-1.37-.19-.76-.59-1.46-.67-2.26-.27-1.62-.51-3.24-.58-4.89-.25-3.13.79-6.24,2.45-8.86,1.35-1.88,3.31-3.24,5.2-4.53,5.56-4.16,11.98-6.8,18.29-9.58ZM27.32,11.19c-3.94,1.83-8.03,3.37-11.81,5.51-2.23,1.32-4.41,2.72-6.54,4.2-.96.76-1.99,1.45-2.88,2.31-2.45,2.58-3,6.42-2.45,9.82.17,1.06.21,2.17.56,3.19.42.84.54,1.78.77,2.67,1.24,5.01,3.52,9.68,5.43,14.46,2.44,5.59,4.7,11.34,8.16,16.38,1.08,1.57,1.95,3.29,3.3,4.66,1.33,1.46,3.26,2.48,5.21,2.81,2.82.21,5.64-.33,8.38-.94,4.95-1.22,9.75-2.96,14.46-4.94,3.52-1.17,6.77-3.01,10.07-4.66,3.51-1.73,6.95-3.62,10.17-5.85,1.22-.78,2.34-1.71,3.46-2.62,1.22-1.16,2.57-2.24,3.4-3.74,1.59-3.04,1.03-6.57-.05-9.68-1.36-6.11-4.05-11.78-6.7-17.42-.98-1.87-1.77-3.84-2.68-5.75-.83-1.37-1.52-2.82-2.19-4.28-.98-2.14-2.34-4.04-3.66-5.97-.36-.75-.78-1.47-1.35-2.06-1.82-2.25-3.85-4.47-6.71-5.32-2.53-1.06-5.23-.29-7.78.32-6.53,1.31-12.53,4.19-18.57,6.91Z"/>
      <path class="cls-1" d="M63.57,32.46c7.7,16.64-8.12,32.97-24.83,32.64-13.36.19-22.05-10.88-22.35-23.61-.09-.36.13-1.47-.25-1.57-1.04-.39-1.47-1.11-1.39-2.22.11-1.92.63-3.8,1.3-5.6.63-1.69,2.83-7.33,5.25-5.62.64.46.51.39,1.01-.09,2.4-2.44,5.3-4.32,8.44-5.67,3.66-1.74,7.58-3.04,11.66-3.12.4.02.24-.47.33-.72.4-2.16,3.13-1.39,4.65-1.11,2.96.86,5.99,2.01,8.35,4.04,1.38,1.47.04,2.3.57,2.65,3.07,2.78,5.68,6.14,7.22,10.01,0,0,.01,0,.02,0ZM60.54,33.75c-1.44-3.5-3.83-6.52-6.64-9.03-.12-.12-.23-.17-.4-.05-.52.4-1.08.76-1.64,1.11-1.71,1.08-3.63,1.8-5.5,2.56-1.1.43-2.04-.42-2.34-1.42-.69-1.87-1.1-3.85-1.36-5.82-.01-.19-.1-.2-.24-.2-3.41.11-6.67,1.14-9.75,2.56-3.06,1.31-5.94,3.06-8.24,5.48-.23.25.36.55.45.78,1.18,1.58,2.47,3.14,3.22,4.99.52,1.26-.49,2.13-1.55,2.52-1.21.54-2.41,1.1-3.63,1.62-.97.27-1.92.58-2.91.8-.4.09-.4.09-.39.49.03,5.31,1.41,10.88,4.81,15.06,5.92,7.67,16.99,8.15,25.22,4.17,4.67-2.26,8.66-6.05,11.01-10.69,2.07-4.66,2.12-10.33-.13-14.93Z"/>
      <path class="cls-1" d="M50.08,6.48c4-2.34,6.9,3.7,3.68,5.98-2.92,1.77-6.66-.85-5.44-4.2.29-.93.91-1.51,1.76-1.77Z"/>
      <path class="cls-1" d="M39.82,39.21c4.27-2.33,10.7-1.3,12.86,3.41.62,1.25,1.12,2.54.86,3.95-.67,7.13-14.69,12.83-19.03,6.11-3.27-5.14-.11-11.51,5.3-13.47ZM41.16,42.21c-2.65.93-4.99,3.58-4.65,6.52.23,1.09.62,2.34,1.6,2.97,3.32,2.56,14.03-2.41,11.9-7-1.18-3.62-5.88-4.17-8.85-2.49Z"/>
      <path class="cls-1" d="M49.38,31.7c1.42,2.96-3.5,4.94-4.04,1.34-.14-.85-.12-1.93.73-2.39,1.15-.72,2.86-.28,3.31,1.05Z"/>
      <path class="cls-1" d="M27.85,41.25c-.75-1.31.3-2.79,1.4-3.12,1.35-.4,2.48.97,2.86,2.13.64,2.45-3.39,3.52-4.25.99Z"/>
      <path class="cls-1" d="M39.28,50.13c-.38-1.08-.47-2.49-.56-3.68-.02-.52.13-1,.57-1.34,1.55-.83,2.01.75,2.07,2.12.11.86.39,1.72.33,2.6-.06,1.41-1.87,1.74-2.41.31Z"/>
      <path class="cls-1" d="M48.37,46.28c.28.61.15,1.17-.43,1.56-.67.48-1.48,0-1.93-.56-.56-.68-1.11-1.36-1.64-2.06-.71-.63-1.09-1.66-.19-2.3.61-.41,1.42-.09,1.87.43.83.98,1.75,1.71,2.31,2.93Z"/>
    </g>
  </g>
</svg>