<?xml version="1.0" encoding="UTF-8"?>
<svg id="Layer_2" data-name="Layer 2" xmlns="http://www.w3.org/2000/svg" viewBox="0 0 326.48 72.9">
  <defs>
    <style>
      .cls-1 {
        fill: none;
      }

      .cls-1, .cls-2 {
        stroke-width: 0px;
      }

      .cls-2 {
        fill: #b37474;
      }
    </style>
  </defs>
  <g id="text">
    <g>
      <rect class="cls-1" width="326.48" height="66.38"/>
      <path class="cls-2" d="M11.62,60.16c-1.17,0-2.07-.33-2.7-.98-.63-.65-.94-1.56-.94-2.73V13.54c0-1.21.31-2.13.94-2.76.63-.63,1.53-.95,2.7-.95s2.06.31,2.7.95.94,1.55.94,2.76v42.91c0,1.17-.3,2.08-.91,2.73-.61.65-1.52.98-2.73.98Z"/>
      <path class="cls-2" d="M29.47,60.16c-1.12,0-1.98-.32-2.59-.95s-.91-1.5-.91-2.62v-28c0-1.17.3-2.05.91-2.66.61-.61,1.45-.91,2.52-.91s1.97.3,2.55.91c.58.61.88,1.49.88,2.66v5.46l-.77-1.26c1.03-2.61,2.64-4.58,4.83-5.92,2.19-1.33,4.71-2,7.56-2s4.96.5,6.75,1.5c1.8,1,3.14,2.52,4.03,4.55.89,2.03,1.33,4.58,1.33,7.67v17.99c0,1.12-.3,2-.91,2.62-.61.63-1.47.95-2.59.95s-2.05-.32-2.66-.95c-.61-.63-.91-1.5-.91-2.62v-17.57c0-2.94-.57-5.09-1.71-6.44-1.14-1.35-2.93-2.03-5.36-2.03-2.85,0-5.12.89-6.82,2.66-1.7,1.77-2.56,4.15-2.56,7.14v16.24c0,2.38-1.19,3.57-3.57,3.57Z"/>
      <path class="cls-2" d="M78.26,60.3c-2.05,0-4.17-.23-6.33-.7s-4.17-1.26-5.99-2.38c-.61-.42-1.03-.89-1.26-1.4-.23-.51-.32-1.04-.25-1.58.07-.54.28-1,.63-1.4.35-.4.79-.64,1.33-.73.54-.09,1.11.02,1.71.35,1.82,1.03,3.57,1.74,5.25,2.13,1.68.4,3.34.59,4.97.59,2.47,0,4.34-.44,5.6-1.33s1.89-2.08,1.89-3.57c0-1.21-.42-2.16-1.26-2.83-.84-.68-2.1-1.2-3.78-1.58l-6.65-1.33c-2.89-.61-5.09-1.68-6.58-3.22-1.49-1.54-2.24-3.5-2.24-5.88,0-2.15.58-4.01,1.75-5.6,1.17-1.59,2.8-2.81,4.9-3.67,2.1-.86,4.53-1.29,7.28-1.29,2.05,0,3.99.26,5.81.77,1.82.51,3.5,1.28,5.04,2.31.61.33,1,.76,1.19,1.29.19.54.22,1.06.11,1.58-.12.51-.36.97-.74,1.37-.37.4-.83.63-1.37.7-.54.07-1.13-.06-1.78-.38-1.4-.89-2.79-1.52-4.17-1.89-1.38-.37-2.74-.56-4.1-.56-2.47,0-4.33.46-5.56,1.37-1.24.91-1.86,2.13-1.86,3.67,0,1.17.37,2.12,1.12,2.87.75.75,1.91,1.28,3.5,1.61l6.65,1.33c3.03.61,5.33,1.63,6.89,3.08s2.34,3.41,2.34,5.88c0,3.22-1.28,5.76-3.85,7.63-2.57,1.87-5.97,2.8-10.22,2.8Z"/>
      <path class="cls-2" d="M114.73,60.3c-2.8,0-5.16-.49-7.07-1.47-1.91-.98-3.34-2.43-4.27-4.34-.93-1.91-1.4-4.25-1.4-7v-16.52h-4.2c-.93,0-1.66-.25-2.17-.73-.51-.49-.77-1.16-.77-2,0-.89.26-1.56.77-2.03.51-.47,1.24-.7,2.17-.7h4.2v-7.21c0-1.17.31-2.05.94-2.66.63-.61,1.51-.91,2.62-.91s1.98.3,2.59.91c.61.61.91,1.49.91,2.66v7.21h8.19c.93,0,1.66.23,2.17.7.51.47.77,1.14.77,2.03,0,.84-.26,1.5-.77,2-.51.49-1.24.73-2.17.73h-8.19v15.96c0,2.47.53,4.34,1.58,5.6,1.05,1.26,2.77,1.89,5.15,1.89.84,0,1.57-.08,2.21-.25.63-.16,1.15-.27,1.57-.31.51,0,.93.17,1.26.52.33.35.49,1.02.49,2,0,.7-.13,1.35-.38,1.96-.26.61-.71,1-1.37,1.19-.56.19-1.32.36-2.27.52-.96.16-1.81.25-2.56.25Z"/>
      <path class="cls-2" d="M136.64,60.3c-2.38,0-4.52-.47-6.41-1.4-1.89-.93-3.37-2.19-4.45-3.78-1.07-1.59-1.61-3.38-1.61-5.39,0-2.52.64-4.51,1.92-5.98,1.28-1.47,3.41-2.52,6.37-3.15,2.96-.63,6.96-.94,12-.94h3.29v4.34h-3.22c-3.36,0-6.02.16-7.98.49-1.96.33-3.35.88-4.17,1.65-.82.77-1.22,1.83-1.22,3.18,0,1.77.61,3.21,1.82,4.31,1.21,1.1,2.89,1.64,5.04,1.64,1.73,0,3.24-.41,4.55-1.22s2.35-1.92,3.12-3.33c.77-1.4,1.16-3.01,1.16-4.83v-8.05c0-2.66-.56-4.57-1.68-5.74-1.12-1.17-2.96-1.75-5.53-1.75-1.49,0-3.04.19-4.66.56-1.61.37-3.28,1-5,1.89-.79.37-1.47.49-2.03.35-.56-.14-1-.46-1.33-.94-.33-.49-.5-1.03-.52-1.61-.02-.58.12-1.16.42-1.71.3-.56.83-.98,1.58-1.26,2.05-.98,4.08-1.68,6.09-2.1,2.01-.42,3.9-.63,5.67-.63,3.13,0,5.71.49,7.74,1.47,2.03.98,3.53,2.47,4.51,4.48.98,2.01,1.47,4.6,1.47,7.77v17.99c0,1.12-.28,2-.84,2.62s-1.38.95-2.45.95-1.84-.32-2.45-.95-.91-1.5-.91-2.62v-4.55h.63c-.37,1.73-1.06,3.21-2.07,4.45-1,1.24-2.25,2.18-3.75,2.83-1.49.65-3.2.98-5.11.98Z"/>
      <path class="cls-2" d="M178.78,72.9c-2.52,0-4.96-.26-7.32-.77-2.36-.51-4.49-1.35-6.4-2.52-.7-.37-1.17-.83-1.4-1.37-.23-.54-.29-1.08-.17-1.65.12-.56.36-1.05.73-1.47.37-.42.83-.7,1.37-.84.54-.14,1.11-.05,1.71.28,2.05,1.12,4,1.88,5.85,2.27,1.84.4,3.56.59,5.14.59,3.27,0,5.72-.83,7.35-2.48,1.63-1.66,2.45-4.09,2.45-7.32v-7.14h.63c-.7,2.57-2.17,4.6-4.41,6.09-2.24,1.49-4.83,2.24-7.77,2.24s-5.76-.71-8.05-2.13c-2.29-1.42-4.06-3.41-5.32-5.95-1.26-2.54-1.89-5.52-1.89-8.92,0-2.57.36-4.88,1.08-6.93.72-2.05,1.75-3.83,3.08-5.32,1.33-1.49,2.94-2.65,4.83-3.47,1.89-.82,3.98-1.22,6.26-1.22,2.99,0,5.59.75,7.8,2.24,2.22,1.49,3.65,3.52,4.31,6.09l-.7,1.19v-5.81c0-1.17.31-2.05.95-2.66.63-.61,1.48-.91,2.55-.91s1.98.3,2.59.91c.61.61.91,1.49.91,2.66v28.21c0,5.32-1.38,9.33-4.13,12.04-2.75,2.71-6.77,4.06-12.04,4.06ZM178.22,53.3c2.05,0,3.8-.47,5.25-1.4s2.57-2.26,3.36-3.99c.79-1.73,1.19-3.76,1.19-6.09,0-3.5-.88-6.28-2.62-8.33s-4.14-3.08-7.18-3.08c-2.01,0-3.73.47-5.18,1.4-1.45.93-2.58,2.25-3.39,3.96-.82,1.7-1.23,3.72-1.23,6.06,0,3.55.89,6.35,2.66,8.4,1.77,2.05,4.15,3.08,7.14,3.08Z"/>
      <path class="cls-2" d="M208.46,60.16c-1.17,0-2.05-.32-2.66-.95-.61-.63-.91-1.5-.91-2.62v-28c0-1.17.3-2.05.91-2.66s1.45-.91,2.52-.91,1.97.3,2.56.91c.58.61.88,1.49.88,2.66v5.11h-.7c.75-2.8,2.12-4.92,4.13-6.37,2.01-1.45,4.57-2.29,7.7-2.52.84-.05,1.5.16,2,.63.49.47.76,1.19.8,2.17.09.98-.12,1.76-.63,2.34-.51.58-1.31.92-2.38,1.01l-1.33.14c-3.03.28-5.34,1.24-6.93,2.87-1.59,1.63-2.38,3.87-2.38,6.72v15.89c0,1.12-.29,2-.88,2.62-.58.63-1.48.95-2.69.95Z"/>
      <path class="cls-2" d="M241.92,60.3c-2.38,0-4.52-.47-6.41-1.4-1.89-.93-3.37-2.19-4.45-3.78-1.07-1.59-1.61-3.38-1.61-5.39,0-2.52.64-4.51,1.92-5.98,1.28-1.47,3.41-2.52,6.37-3.15,2.96-.63,6.96-.94,12-.94h3.29v4.34h-3.22c-3.36,0-6.02.16-7.98.49-1.96.33-3.35.88-4.17,1.65-.82.77-1.22,1.83-1.22,3.18,0,1.77.61,3.21,1.82,4.31,1.21,1.1,2.89,1.64,5.04,1.64,1.73,0,3.24-.41,4.55-1.22s2.35-1.92,3.12-3.33c.77-1.4,1.16-3.01,1.16-4.83v-8.05c0-2.66-.56-4.57-1.68-5.74-1.12-1.17-2.96-1.75-5.53-1.75-1.49,0-3.04.19-4.66.56-1.61.37-3.28,1-5,1.89-.79.37-1.47.49-2.03.35-.56-.14-1-.46-1.33-.94-.33-.49-.5-1.03-.52-1.61-.02-.58.12-1.16.42-1.71.3-.56.83-.98,1.58-1.26,2.05-.98,4.08-1.68,6.09-2.1,2.01-.42,3.9-.63,5.67-.63,3.13,0,5.71.49,7.74,1.47,2.03.98,3.53,2.47,4.51,4.48.98,2.01,1.47,4.6,1.47,7.77v17.99c0,1.12-.28,2-.84,2.62s-1.38.95-2.45.95-1.84-.32-2.45-.95-.91-1.5-.91-2.62v-4.55h.63c-.37,1.73-1.06,3.21-2.07,4.45-1,1.24-2.25,2.18-3.75,2.83-1.49.65-3.2.98-5.11.98Z"/>
      <path class="cls-2" d="M272.23,60.16c-1.12,0-1.98-.32-2.59-.95-.61-.63-.91-1.5-.91-2.62v-28c0-1.17.3-2.05.91-2.66s1.45-.91,2.52-.91,1.97.3,2.56.91c.58.61.88,1.49.88,2.66v5.74l-.77-1.54c.93-2.47,2.38-4.41,4.34-5.81,1.96-1.4,4.32-2.1,7.07-2.1s5.16.68,6.93,2.03,2.99,3.43,3.64,6.23h-.98c.89-2.57,2.4-4.58,4.55-6.05s4.64-2.21,7.49-2.21c2.61,0,4.76.5,6.44,1.5,1.68,1,2.94,2.52,3.78,4.55.84,2.03,1.26,4.58,1.26,7.67v17.99c0,1.12-.32,2-.95,2.62s-1.5.95-2.62.95-1.98-.32-2.59-.95c-.61-.63-.91-1.5-.91-2.62v-17.64c0-2.89-.5-5.02-1.5-6.37-1-1.35-2.65-2.03-4.94-2.03-2.57,0-4.6.89-6.09,2.66-1.49,1.77-2.24,4.22-2.24,7.35v16.03c0,1.12-.3,2-.91,2.62-.61.63-1.47.95-2.59.95s-2-.32-2.62-.95-.94-1.5-.94-2.62v-17.64c0-2.89-.49-5.02-1.47-6.37-.98-1.35-2.61-2.03-4.9-2.03-2.57,0-4.58.89-6.06,2.66-1.47,1.77-2.2,4.22-2.2,7.35v16.03c0,2.38-1.19,3.57-3.57,3.57Z"/>
    </g>
  </g>
</svg>