<?xml version="1.0" encoding="UTF-8"?>
<svg id="Layer_2" data-name="Layer 2" xmlns="http://www.w3.org/2000/svg" viewBox="0 0 601.92 60.73">
  <defs>
    <style>
      .cls-1 {
        fill: #b37474;
        stroke-width: 0px;
      }
    </style>
  </defs>
  <g id="text">
    <g>
      <path class="cls-1" d="M31.35,43.85c.05-2.14.05-6.1.05-9.46,0-2.48,0-4.62-.05-5.55-.17-3.24-1.87-4.56-3.85-4.56-2.91,0-6.38,2.8-6.54,6.54-.05.88-.05,1.92-.05,3.19,0,2.36.05,5.55.17,9.84v.11c0,1.81-1.38,2.8-2.75,2.8s-2.64-.93-2.64-2.86v-.06c.05-2.14.05-6.1.05-9.46,0-2.48,0-4.62-.05-5.55-.22-3.3-1.92-4.62-3.85-4.62-2.86,0-6.27,2.8-6.43,6.6-.06.88-.06,1.92-.06,3.19,0,2.36.06,5.55.17,9.84.06,2.25-1.48,2.97-2.69,2.97-1.38,0-2.8-.99-2.8-2.91v-.11c.17-5.88.22-9.73.22-13.31,0-2.75-.05-5.39-.11-8.58v-.11c0-1.81,1.48-2.64,2.75-2.64s2.75.88,2.75,2.75c0,.17.05.27.05.27.06,0,.17-.11.22-.17,1.76-1.98,4.18-2.97,6.6-2.97,3.02,0,5.99,1.65,7.42,5,2.14-3.35,5.28-4.95,8.3-4.95,4.34,0,8.36,3.3,8.52,9.29.05,1.92.11,6.65.11,10.67,0,1.81,0,3.46-.05,4.67-.05,2.09-1.38,3.08-2.75,3.08s-2.7-1.04-2.7-2.91v-.06Z"/>
      <path class="cls-1" d="M44.83,8.32c0-2.69,2.31-3.74,3.85-3.74,1.98,0,3.85,1.65,3.85,3.74,0,1.98-1.49,3.9-3.85,3.9-2.14,0-3.85-1.38-3.85-3.9ZM48.67,46.82c-1.49,0-2.92-.94-2.92-2.8,0-4.56.05-10.83.05-15.84,0-2.47,0-4.67-.05-6.16-.05-1.81,1.32-2.8,2.97-2.8,1.43,0,2.92.88,2.92,2.64v.11c-.06,2.25-.11,6.6-.11,11.22,0,3.79.05,7.7.11,10.72v.11c0,1.87-1.49,2.8-2.97,2.8Z"/>
      <path class="cls-1" d="M66.6,22.07c.05,0,.11,0,.17-.06,2.04-1.76,4.62-2.86,7.64-2.86,7.59,0,13.31,5.5,13.31,13.8s-5.72,13.8-13.31,13.8c-3.03,0-5.61-1.15-7.64-2.91-.11-.06-.22-.17-.28-.17-.11,0-.16.11-.16.33,0,6.05.11,11.27.16,13.53.06,1.7-1.1,2.86-2.8,2.86-1.49,0-2.92-.99-2.92-2.86v-.27c.17-1.98.17-6.1.17-10.94,0-8.3-.11-18.64-.11-23.87,0-2.03,1.43-3.08,2.86-3.08,1.26,0,2.53.88,2.75,2.53.05.11.11.17.17.17ZM82.22,32.96c0-5.39-3.52-8.69-7.92-8.69s-7.92,3.3-7.92,8.69,3.52,8.8,7.92,8.8,7.92-3.35,7.92-8.8Z"/>
      <path class="cls-1" d="M94.05,8.32c0-2.69,2.31-3.74,3.85-3.74,1.98,0,3.85,1.65,3.85,3.74,0,1.98-1.49,3.9-3.85,3.9-2.14,0-3.85-1.38-3.85-3.9ZM97.9,46.82c-1.49,0-2.92-.94-2.92-2.8,0-4.56.05-10.83.05-15.84,0-2.47,0-4.67-.05-6.16-.05-1.81,1.32-2.8,2.97-2.8,1.43,0,2.92.88,2.92,2.64v.11c-.06,2.25-.11,6.6-.11,11.22,0,3.79.05,7.7.11,10.72v.11c0,1.87-1.49,2.8-2.97,2.8Z"/>
      <path class="cls-1" d="M114.67,40.55c0,.99.66,1.21,8.96,1.21s11.93,4.01,11.93,8.52c0,7.37-7.2,10.45-14.57,10.45-9.95,0-13.47-5.06-13.47-8.63,0-3.02,2.2-5.06,4.84-6.16.17-.06.28-.17.28-.22,0-.11-.11-.22-.5-.33-2.14-.66-3.02-2.47-3.02-3.9,0-2.03.99-3.74,3.13-4.89.38-.22.71-.33.71-.49s-.17-.33-.61-.66c-2.14-1.65-3.3-4.51-3.3-6.82,0-6.38,5.5-9.62,10.89-9.62h.11c2.09,0,4.23.44,6.1,1.32.38.22.71.27.93.27.33,0,.61-.11.88-.27,1.59-.83,2.53-1.16,3.68-1.16,1.59,0,3.9.17,3.9,2.86,0,1.26-.77,2.53-2.31,2.53-.22,0-.38,0-.6-.06-.28-.06-.55-.06-.71-.06-.61,0-.83.17-1.16.33-.11.06-.22.06-.22.27,0,.06,0,.17.05.33.38,1.04.5,1.59.5,3.24,0,5.28-3.63,8.96-10.39,9.24-2.31.06-6.05.49-6.05,2.69ZM121.05,46.43c-7.26,0-8.03,4.45-8.03,5.11,0,.5.17,4.29,8.08,4.29,1.54,0,8.69-.22,8.69-5.22,0-4.18-4.56-4.18-8.74-4.18ZM120.23,23.72c-3.24,0-5.77,2.03-5.77,4.84,0,1.43.66,4.73,5.55,4.73,3.24,0,5.99-1.59,5.99-4.78,0-2.48-1.65-4.78-5.77-4.78Z"/>
      <path class="cls-1" d="M151.52,50.39c-6.71-5.94-10.12-15.23-10.12-24.53s3.3-18.42,10.01-24.58c.71-.66,1.48-.93,2.14-.93,1.59,0,2.91,1.37,2.91,2.91,0,.82-.38,1.65-1.21,2.36-5.72,4.78-8.58,12.32-8.58,19.91s2.86,15.23,8.63,20.24c.71.6.99,1.37.99,2.14,0,1.59-1.38,3.19-3.03,3.19-.55,0-1.15-.22-1.76-.72Z"/>
      <path class="cls-1" d="M208.28,37.86c.99,1.87.22,3.57-1.04,4.4s-2.97.77-4.01-.94c-1.98-3.13-8.52-8.8-12.98-10.89-3.02-1.43-.38-6.16,3.46-4.18,2.09,1.04,4.51,2.47,6.82,4.07,3.13-1.92,8.8-6.27,11.33-8.8.71-.71,1.16-1.87-.5-1.87-6.87-.06-20.29.17-28.82.5-4.12.17-4.51-5.44-.06-5.55,8.63-.16,22.16-.44,31.29-.27,4.95.06,8.52,4.23,5.17,8.03-3.3,3.79-9.02,8.36-13.91,11.55,1.38,1.32,2.53,2.64,3.25,3.96Z"/>
      <path class="cls-1" d="M239.52,36.92c-5.06,3.08-7.92-2.53-4.18-4.34,10.12-4.95,20.62-15.07,26.84-24.86,2.42-3.79,7.26-.27,4.89,2.92-2.47,3.3-4.84,6.27-7.2,9.02-.17,5.61-.27,20.02-.11,25.52.11,4.18-5.83,4.67-5.77.17.05-4.4.27-13.36.33-19.8-4.34,4.23-9.07,7.92-14.79,11.38Z"/>
      <path class="cls-1" d="M301.89,35.22c-.11,2.69,1.1,4.01,4.4,4.45,3.19.44,12.1-.11,16-1.48,4.18-1.43,6.54,4.51,1.15,5.94-4.95,1.32-13.36,1.48-19.14.77-4.84-.6-7.75-3.74-7.81-8.25-.05-5.5.33-17.76.38-24.31,0-3.85,5.66-3.08,5.61.17-.05,2.97-.17,7.09-.28,11.16,4.34-.83,13.2-3.3,17.32-5.11,4.01-1.76,6.76,3.85,2.03,5.5-5.22,1.76-13.25,4.29-19.52,5-.06,2.42-.11,4.62-.17,6.16ZM327.52,17.56c-3.19,0-5.77-2.58-5.77-5.77s2.58-5.83,5.77-5.83,5.83,2.64,5.83,5.83-2.64,5.77-5.83,5.77ZM327.52,8.93c-1.54,0-2.75,1.32-2.75,2.86s1.21,2.75,2.75,2.75,2.86-1.21,2.86-2.75-1.32-2.86-2.86-2.86Z"/>
      <path class="cls-1" d="M355.35,32.36c-.77-1.54-1.92-3.19-3.13-4.23-2.25-1.92.93-5.39,3.52-3.08,1.48,1.32,3.02,3.08,4.07,4.89,1.76,2.97-2.8,5.66-4.45,2.42ZM354.25,47.26c-.5-1.15-.17-2.64,1.37-3.3,9.18-3.85,15.12-11.6,17.32-20.79.88-3.57,6.21-1.92,5.17,1.43-3.13,10.39-9.24,18.81-20.07,23.7-1.87.82-3.24.17-3.79-1.04ZM362.72,29.33c-.55-1.65-1.54-3.41-2.58-4.62-1.98-2.2,1.71-5.22,3.96-2.53,1.26,1.54,2.47,3.52,3.3,5.44,1.32,3.24-3.52,5.22-4.67,1.7Z"/>
      <path class="cls-1" d="M422.29,11.35c2.36-.17,5.06-.33,7.26-.44,4.23-.22,7.92,2.75,5.88,6.65-6.71,12.81-14.3,23.92-29.75,30.03-4.67,1.81-6.93-3.57-2.36-5.17,12.21-4.23,21.28-15.18,25.35-24.53.44-1.04,0-2.09-1.32-2.03-2.31.06-6.32.44-8.8.71-3.74,4.95-8.58,10.72-12.37,13.31-3.68,2.47-6.93-2.31-3.19-4.62,5.28-3.24,12.43-13.31,14.96-17.65,1.81-3.08,7.31-.44,4.73,3.24l-.38.5ZM433.83,8.43c-2.8-1.15-.6-4.45,1.92-3.52,1.49.55,4.23,1.98,5.44,3.3,2.14,2.31-1.04,5.66-2.86,3.52-.71-.88-3.41-2.8-4.51-3.3ZM438.84,3.71c-2.8-1.1-.83-4.4,1.76-3.57,1.48.5,4.29,1.87,5.55,3.13,2.2,2.2-.93,5.66-2.8,3.57-.77-.82-3.41-2.69-4.51-3.13Z"/>
      <path class="cls-1" d="M466.57,50.94c-1.59,0-2.92-1.48-2.92-3.02,0-.71.33-1.48,1.04-2.14,5.66-4.95,8.47-12.65,8.47-20.29s-2.8-15.18-8.36-19.85c-.88-.72-1.21-1.6-1.21-2.36,0-1.43,1.15-2.69,2.69-2.69.66,0,1.43.27,2.2.94,6.76,6.05,10.12,15.23,10.12,24.42s-3.46,18.48-10.23,24.31c-.6.49-1.21.71-1.81.71Z"/>
      <path class="cls-1" d="M513.75,11.57c-2.86-3.52,2.53-6.49,4.73-3.35,2.36,3.35,4.84,8.25,6.43,12.81,2.97-2.09,6.1-4.07,9.68-6.05,3.74-2.09,6.6,3.19,2.37,5.33-5.61,2.86-11.27,6.05-15.62,9.73-5.44,4.62-5.61,8.74-1.32,10.83,3.85,1.92,11.71.5,15.01-.71,4.62-1.76,6.27,4.56,1.37,5.94-4.34,1.21-13.53,2.31-18.97-.44-7.92-4.01-7.59-12.92,1.32-20.02.55-.44,1.04-.88,1.59-1.26-1.43-4.34-4.07-9.73-6.6-12.81Z"/>
      <path class="cls-1" d="M561.93,45.11c-1.76-5.55-1.59-12.65-.88-19.3s1.92-12.81,2.2-16.39c.33-4.45,6.1-3.35,5.55.11-.38,2.47-1.32,7.26-2.04,11.93s-1.26,9.29-1.04,11.49c.11.99.17,1.15.72.06.17-.33.55-1.32.66-1.59,1.27-2.64,5.44-.77,3.46,3.35-.71,1.48-1.26,2.97-1.71,4.34-.44,1.38-.77,2.58-.99,3.46-.44,1.54.27,3.08-1.1,4.4-1.43,1.32-3.9,1.1-4.84-1.87ZM579.04,46.27c-4.78-2.75-4.89-9.02.83-11.55,2.97-1.32,6.32-1.37,9.68-.66,0-.88-.11-1.71-.17-2.75-.17-2.25-.28-6.49-.44-10.83-2.97.44-5.88.66-9.02.39-3.79-.33-3.13-5.94,1.1-5.22,2.42.44,5.06.28,7.75-.17-.05-3.08-.11-5.88-.05-7.59.11-3.57,5.5-3.08,5.28-.11-.11,1.54-.17,3.85-.17,6.54.94-.27,1.92-.49,2.8-.77,3.57-1.1,5.94,3.9,1.21,5.06-1.32.33-2.64.66-3.96.94.06,4.29.22,8.58.33,11.27.06,1.37.28,3.19.33,4.95,2.31,1.1,4.51,2.47,6.21,4.01,3.13,2.86-.77,7.64-3.52,4.73-.99-.99-2.15-1.98-3.41-2.86-2.09,4.34-8.8,8.03-14.79,4.62ZM589.05,39.07c-2.75-1.04-5.5-1.32-7.59-.33-1.32.6-1.65,2.47-.33,3.24,2.64,1.48,7.09.33,7.97-2.91h-.05Z"/>
    </g>
  </g>
</svg>