<?xml version="1.0" encoding="UTF-8"?>
<svg id="Layer_2" data-name="Layer 2" xmlns="http://www.w3.org/2000/svg" viewBox="0 0 646.27 113.65">
  <defs>
    <style>
      .cls-1 {
        fill: #fff;
        stroke-width: 0px;
      }
    </style>
  </defs>
  <g id="text">
    <g>
      <path class="cls-1" d="M35.57,32.95c.86,1.63.19,3.12-.91,3.84-1.1.72-2.59.67-3.5-.82-1.73-2.74-7.44-7.68-11.33-9.5-2.64-1.25-.34-5.38,3.02-3.65,1.82.91,3.94,2.16,5.95,3.55,2.74-1.68,7.68-5.47,9.89-7.68.62-.62,1.01-1.63-.43-1.63-6-.05-17.71.14-25.15.43-3.6.14-3.94-4.75-.05-4.85,7.54-.14,19.35-.38,27.31-.24,4.32.05,7.44,3.7,4.51,7.01-2.88,3.31-7.87,7.3-12.14,10.08,1.2,1.15,2.21,2.3,2.83,3.46Z"/>
      <path class="cls-1" d="M65.71,32.13c-4.42,2.69-6.91-2.21-3.65-3.79,8.83-4.32,18-13.15,23.43-21.7,2.11-3.31,6.34-.24,4.27,2.54-2.16,2.88-4.22,5.47-6.29,7.87-.14,4.9-.24,17.47-.1,22.27.1,3.65-5.09,4.08-5.04.14.05-3.84.24-11.67.29-17.28-3.79,3.7-7.92,6.91-12.91,9.94Z"/>
      <path class="cls-1" d="M132.39,9.81c2.06-.14,4.42-.34,6.34-.43,3.7-.19,6.91,2.4,5.14,5.81-5.86,11.19-12.48,20.93-25.97,26.26-4.08,1.58-6.05-3.12-2.06-4.51,10.66-3.7,18.58-13.3,22.13-21.46.38-.91,0-1.82-1.15-1.78-2.02.05-5.52.38-7.68.62-3.26,4.32-7.49,9.36-10.8,11.62-3.22,2.16-6.05-1.97-2.78-3.98,4.61-2.83,10.85-11.67,13.06-15.46,1.58-2.69,6.38-.38,4.13,2.83l-.34.48Z"/>
      <path class="cls-1" d="M187.92,37.32c-5.95.19-9.26.14-13.92,0-4.9-.19-7.34-2.69-7.49-6.72-.14-4.75-.14-8.21,0-12.34.14-3.55,2.3-6.38,7.34-6.62,5.38-.24,9.84-.14,14.5,0,3.98.14,6.72,3.07,6.82,6.1.14,4.37.14,8.64,0,12.77-.14,4.03-2.74,6.67-7.25,6.82ZM190.13,19.36c-.1-2.06-1.1-3.26-3.55-3.36-4.13-.14-7.92-.14-11.67,0-2.69.1-3.5,1.44-3.6,3.41-.19,3.12-.19,6.86,0,10.13.1,2.11,1.06,3.02,3.7,3.12,4.37.14,7.25.24,11.62,0,2.02-.1,3.36-1.2,3.46-3.22.14-3.17.19-6.86.05-10.08Z"/>
      <path class="cls-1" d="M220.85,36.17c10.61-3.36,16.9-12.1,19.06-19.15.38-1.3.24-2.5-1.54-2.54-4.71-.14-12.29.14-19.2.38-3.17.1-3.5-4.61-.1-4.75,6.34-.29,15.31-.34,21.41-.24,3.89.05,6.62,2.98,5.23,6.91-3.36,9.6-9.22,18.91-22.66,24.05-4.08,1.54-5.86-3.5-2.21-4.66ZM242.83,7.36c-2.45-1.01-.53-3.89,1.68-3.07,1.3.48,3.7,1.73,4.75,2.88,1.87,2.02-.96,4.94-2.54,3.07-.62-.77-2.93-2.45-3.89-2.88ZM247.15,3.23c-2.45-.96-.67-3.84,1.58-3.12,1.3.43,3.74,1.63,4.85,2.74,1.92,1.92-.82,4.94-2.45,3.12-.67-.72-3.02-2.35-3.98-2.74Z"/>
      <path class="cls-1" d="M269.28,41.54c-3.84,1.49-5.71-3.02-2.06-4.22,6.62-2.21,11.95-6.34,16.03-10.94-1.73-1.06-3.5-1.87-5.04-2.3-2.69-.72-1.44-4.8,1.92-3.84,1.78.48,3.94,1.39,6.05,2.5,1.63-2.3,2.98-4.66,4.03-6.86.91-1.97.72-2.21-.53-2.16-1.92.05-6.86.53-8.5.72-3.36,4.42-7.78,9.46-10.99,11.71-3.22,2.21-6.05-1.97-2.78-3.98,4.66-2.88,11.09-10.99,12.82-15.12,1.68-4.08,6.62-1.1,4.94,1.68-.24.38-.53.82-.86,1.3,2.35-.19,4.99-.43,7.3-.53,4.94-.14,5.81,3.31,3.94,6.72-1.78,3.22-3.55,6.19-5.42,8.93,1.34.96,2.59,1.97,3.46,3.02,1.1,1.3.77,2.83-.1,3.65s-2.3,1.06-3.41-.14c-.72-.77-1.73-1.68-2.88-2.59-4.27,5.14-9.65,9.31-17.91,12.48Z"/>
      <path class="cls-1" d="M342.96,21c.86,1.3,3.31,5.42,3.55,7.73.38,3.41-2.45,4.22-4.94,2.5-.62-.43-1.3-.67-1.97-.82-3.79-.82-9.17-.96-11.86-.14s-3.5,3.26-.96,4.75c2.4,1.39,6.1,1.92,9.94,1.73,4.42-.19,4.13,5.14-.43,4.99-4.42-.14-8.64-.77-12-2.83-5.62-3.46-4.94-11.23,2.74-12.77,4.56-.91,9.22-.53,12.19-.34.72.05.91-.19.72-.82-.1-.34-.43-1.39-1.2-2.69-.86-1.49-2.02-3.22-3.17-5.04-.34.1-.62.14-.91.19-5.52,1.2-9.7.91-13.01-.82-2.98-1.54-1.49-5.9,1.97-4.22,3.07,1.54,5.71,1.44,9.31.62-1.15-1.87-2.21-3.6-2.78-4.9-1.78-3.89,3.6-4.99,4.56-1.54.29,1.1,1.25,2.93,2.5,5.14.67-.24,1.34-.48,2.06-.72.67-.24,1.1-.62,1.78-.96,3.89-1.97,5.57,2.69,2.64,4.18-1.25.62-2.64,1.25-3.98,1.73,1.1,1.73,2.26,3.46,3.26,5.04Z"/>
      <path class="cls-1" d="M383.95,33.77c0-2.21.34-3.55.24-5.71-.24-5.33-7.54-.82-8.88,1.58-1.15,2.06-2.5,4.18-3.02,6.53-.86,3.7-1.92,3.94-2.88,4.08-1.68.24-3.94-.91-2.83-3.7,2.16-5.42,4.9-10.23,7.68-14.55s5.28-8.4,7.63-12.15c.82-1.34,2.11-3.02,2.64-3.98,1.58-2.83,6.05-.43,4.46,2.59-.38.67-.72,1.2-1.1,1.68-.38.48-.86,1.01-1.39,1.63-2.3,2.59-3.84,4.61-5.09,6.38-1.25,1.78-2.21,3.31-3.26,4.9-.34.48-.19.38.14.1,1.73-1.54,10.03-3.79,10.71,4.32.14,1.87-.24,3.5-.24,5.28,0,4.27,4.13,3.74,6.96,1.2,2.45-2.21,3.5-4.51,4.37-6.72,1.39-3.55,6.43-1.1,4.61,2.5-1.34,2.64-3.22,5.76-6.05,7.97-5.18,4.08-14.79,5.14-14.69-3.94Z"/>
      <path class="cls-1" d="M425.86,10c-2.5-3.07,2.21-5.66,4.13-2.93,2.06,2.93,4.22,7.2,5.62,11.19,2.59-1.82,5.33-3.55,8.45-5.28,3.26-1.82,5.76,2.78,2.06,4.66-4.9,2.5-9.84,5.28-13.63,8.5-4.75,4.03-4.9,7.63-1.15,9.46,3.36,1.68,10.22.43,13.11-.62,4.03-1.54,5.47,3.98,1.2,5.18-3.79,1.06-11.81,2.02-16.56-.38-6.91-3.5-6.62-11.28,1.15-17.47.48-.38.91-.77,1.39-1.1-1.25-3.79-3.55-8.5-5.76-11.19Z"/>
      <path class="cls-1" d="M467.18,42.89c-1.39,0-2.64-1.25-2.64-2.54,0-.67.34-1.34,1.2-1.82,2.59-1.44,4.8-3.07,6.43-4.99.1-2.93.19-5.42.19-7.87,0-1.2-.62-1.34-2.21-1.34h-1.92c-.77,0-2.69,0-2.69-2.06,0-1.06.72-2.16,2.02-2.16,1.73,0,3.26,0,4.85.05,3.02.1,4.46,1.39,4.46,4.37v.14c-.05,2.78-.24,6.1-.24,9.17,2.35,3.74,7.06,4.85,14.35,4.85,4.99,0,10.46-.53,14.11-.82h.24c1.49,0,2.3,1.15,2.3,2.3s-.72,2.21-2.4,2.35c-3.02.29-7.58.58-12.14.58-12.34,0-15.94-2.21-18.67-5.9-2.4,2.69-5.38,5.71-7.25,5.71ZM472.9,11.4c-1.25-1.92-3.36-3.41-4.7-4.18-.67-.38-.96-.91-.96-1.49,0-1.06,1.15-2.16,2.45-2.16,1.44,0,7.44,3.7,7.44,6.14,0,1.39-1.3,2.69-2.59,2.69-.58,0-1.2-.29-1.63-1.01ZM484.18,34.63c0,1.1-1.06,1.68-2.11,1.68s-2.11-.58-2.16-1.73c0-2.21-.05-4.99-.05-7.78s.05-5.52.05-7.73c.05-2.06.62-3.26,2.54-3.74,0-2.78,0-6.24.05-8.59.05-2.5,1.58-4.13,4.66-4.27,1.63-.1,3.36-.1,5.14-.1s3.55,0,5.28.1c2.78.1,4.85,1.63,4.9,4.03.05,2.21.05,5.76.05,8.93,1.78.53,2.59,1.78,2.64,3.7.05,2.3.1,5.62.1,7.15,0,.67.05,3.22.1,4.7v.19c0,2.59-1.82,5.09-6.53,5.09-2.88,0-4.46-.43-4.46-2.26,0-1.06.67-2.11,1.87-2.11.1,0,.24,0,.38.05.77.14,1.49.29,2.16.29,1.25,0,2.11-.53,2.11-2.45v-3.84c0-2.11,0-4.61-.05-6.1-.1-1.49-.48-1.49-7.87-1.49-2.98,0-6,.05-7.25.1-1.15.05-1.54.48-1.54,1.39-.05,2.02-.05,5.09-.05,8.26,0,2.3,0,4.61.05,6.48v.05ZM490.03,15.09c0-1.3.05-2.93.1-3.98.1-1.58,1.3-2.69,3.55-2.74h4.75c0-.34-.05-.72-.05-1.01-.1-1.49-1.25-1.54-5.42-1.54-5.18,0-6.14.05-6.24,1.73-.1,1.97-.1,4.85-.1,7.54h3.41ZM492.1,30.98c-2.26,0-5.14-.1-5.28-2.69-.05-.72-.05-1.54-.05-2.35,0-1.1,0-2.26.05-3.22.1-2.5,2.83-2.54,5.86-2.54.77,0,1.54,0,2.16.05,1.87.1,3.26,1.1,3.31,2.5.05,1.1.05,2.16.05,3.17,0,3.94-.1,5.09-6.1,5.09ZM494.59,25.75c0-.72,0-1.44-.05-1.92s-.1-.77-2.06-.77c-2.11,0-2.16.05-2.16,2.5,0,2.26,0,2.35,2.26,2.35,1.92,0,2.02-.29,2.02-2.16ZM498.48,11.73c-1.06,0-2.59-.05-3.26-.05-.77,0-1.1.43-1.15,1.06v2.3c1.58,0,3.17.05,4.46.05,0-1.15-.05-2.26-.05-3.36Z"/>
      <path class="cls-1" d="M524.06,34.97c-1.73-2.45,1.39-5.76,3.98-3.12,4.08,4.18,11.86,3.84,19.11,1.78,3.98-1.1,5.14,4.08,1.25,5.28-9.5,2.98-21.03.72-24.34-3.94ZM529.44,15.38c-3.79.72-4.42-4.37-.14-4.99,4.56-.67,11.33-.72,15.31.14,4.03.86,2.98,5.81-.91,4.99-4.46-.96-9.55-1.06-14.26-.14ZM549.22,10.67c-.53-.82-2.64-2.78-3.55-3.31-2.3-1.3-.1-3.94,2.02-2.83,1.2.62,3.46,2.16,4.37,3.41,1.63,2.21-1.49,4.8-2.83,2.74ZM551.14,4.34c-2.35-1.25-.19-3.98,1.97-2.98,1.25.58,3.5,2.11,4.46,3.31,1.68,2.16-1.34,4.8-2.74,2.78-.58-.82-2.78-2.64-3.7-3.12Z"/>
      <path class="cls-1" d="M581.47,28.2c-1.68-4.66.91-8.11,3.84-9.02,1.39-.43,2.83-.62,4.13-.43-.05-1.06-.1-2.5-.14-3.89-4.03.38-8.02.96-10.51,1.34-3.46.53-5.71,1.15-7.15,1.39-3.22.58-4.18-4.22-.38-4.85,1.92-.34,5.04-.67,7.06-1.01,2.4-.38,6.72-.91,10.94-1.3v-.86c.05-2.98-.24-3.17-.24-4.7,0-3.5,4.85-3.17,5.04-.14.05,1.1-.1,3.31-.19,4.61,0,.24-.05.48-.05.72,1.39-.1,2.64-.14,3.7-.14,2.35,0,4.03-.05,7.3,0,4.03.1,3.84,5.18,0,4.9-3.41-.29-4.56-.29-7.54-.34-1.1,0-2.26.05-3.5.1.05,1.54.1,3.02.1,4.42,0,.67.1,1.68.14,2.74,4.27,6.72-.82,16.9-5.9,20.98-3.22,2.54-7.39-.86-3.22-3.84,2.3-1.63,4.32-4.32,5.47-7.06-3.17,1.63-7.34.72-8.88-3.6ZM589.54,23.16c-.67-.58-2.06-.67-3.07-.19-1.15.53-1.92,2.02-1.39,3.65.86,2.59,5.04,2.59,5.52-.82.14-1.01,0-1.44-.29-1.82-.24-.29-.48-.58-.77-.82Z"/>
      <path class="cls-1" d="M624.58,42.6c-1.2-1.78-3.84-3.98-5.91-5.04-.91-.48-1.3-1.2-1.3-1.92,0-1.1.86-2.11,2.26-2.11,1.68,0,9.36,4.22,9.36,7.49,0,1.54-1.3,2.64-2.59,2.64-.67,0-1.34-.34-1.82-1.06Z"/>
      <path class="cls-1" d="M13.58,104.58c.38,6.86-5.76,6.77-9.7,4.85-5.71-2.78-4.13-6.19-1.58-8.98,1.49-1.58,3.94-3.46,6.77-5.09-.05-2.02-.1-4.08-.1-6-1.97.38-3.94.43-5.76.19-3.55-.43-2.98-5.23,1.01-4.42,1.2.24,2.98.05,4.85-.43,0-2.26-.1-3.79-.19-5.62-.19-3.55,5.09-3.46,4.85-.05-.1,1.06-.14,2.59-.24,4.03.72-.34,1.34-.72,1.92-1.1,2.59-1.73,5.52,2.06,2.16,4.08-1.44.86-2.98,1.58-4.51,2.16-.05,1.49-.05,3.26,0,5.09,1.34-.62,2.74-1.1,4.03-1.49,4.13-1.2,8.21-.82,10.66.05,7.92,2.74,6.62,9.22,4.18,12.77-3.12,4.51-9.84,6.05-15.41,2.88-2.74-1.58-.86-5.52,2.06-4.08,3.74,1.82,6.82,1.87,9.12-1.2,1.15-1.54,2.5-4.94-1.68-6.48-1.87-.72-4.42-.86-7.78-.1-1.73.38-3.41,1.06-5.04,1.82.1,2.54.29,5.04.38,7.1ZM5.52,103.04c-1.01,1.1-1.01,2.35.1,2.88,2.06,1.01,3.46.86,3.5-1.01.05-1.3.05-3.07,0-5.04-1.39,1.01-2.59,2.06-3.6,3.17ZM32.74,87.88c-1.25-1.1-3.89-2.26-6.34-1.97-2.93.34-3.7-3.94-.24-4.22,3.46-.29,8.26.91,9.99,2.74,1.15,1.2.86,2.54.05,3.41s-2.26,1.1-3.46.05Z"/>
      <path class="cls-1" d="M55.1,109.14c-1.44,3.22-6.53,1.82-4.51-2.26,2.06-4.22,5.47-11.52,8.4-20.83-2.54.29-4.99.19-7.01-.67-2.45-1.06-1.97-5.42,1.63-4.13,2.02.72,4.37.72,6.62.29.29-1.78.1-3.07-.05-5.18-.19-2.74,4.32-2.88,4.8-.24.19,1.2.19,2.5.05,3.84.67-.34,1.25-.67,1.82-1.01,2.5-1.63,5.47,2.35,1.87,4.13-1.34.67-3.07,1.39-4.85,1.92-3.02,10.51-6.43,18.82-8.79,24.15ZM66.77,106.98c-2.06-2.3.91-6.1,3.41-3.55,2.45,2.5,5.38,2.26,10.99,1.78,3.5-.29,3.79,4.32.62,4.94-6.96,1.39-12.91-.82-15.03-3.17ZM72.19,90.23c-2.5.91-3.98-3.02-.82-4.13,2.45-.86,6.82-1.44,11.52.24,3.22,1.15,1.92,5.38-1.1,4.37-2.69-.91-7.06-1.44-9.6-.48ZM77.62,79.09c-2.45-1.01-.53-3.94,1.68-3.12,1.3.48,3.7,1.73,4.75,2.88,1.87,2.02-.96,4.94-2.54,3.07-.62-.77-2.93-2.4-3.89-2.83ZM81.94,74.87c-2.45-.96-.72-3.89,1.54-3.17,1.3.43,3.74,1.68,4.85,2.78,1.92,1.92-.82,4.9-2.45,3.07-.67-.72-2.98-2.3-3.94-2.69Z"/>
      <path class="cls-1" d="M118.03,97.19c2.45,4.46,4.75,8.88,5.67,11.67.72,2.16-.19,3.7-1.44,4.13s-2.88-.24-3.41-2.35c-.72-2.88-2.78-7.25-5.09-11.62-1.15-2.21-2.35-4.42-3.46-6.43-2.21,1.25-4.46,2.3-6.82,3.02-3.02.91-5.04-3.55-1.15-4.7,1.97-.58,3.84-1.39,5.76-2.35-.24-.48-.43-.91-.67-1.34-.43-.82-.86-1.73-1.3-2.64-.43-.91-.77-1.78-1.01-2.64-.72-2.83,3.26-4.42,4.51-1.34.62,1.58,1.1,3.17,1.87,4.7.19.34.38.72.58,1.1,3.17-1.78,6.29-3.7,9.55-4.94,4.75-1.82,9.5-2.45,13.2-.14,4.08,2.59,4.22,7.25,1.54,11.09-3.84,5.42-12.34,6.43-17.47,3.41-1.3-.77-1.34-2.3-.67-3.36s2.06-1.63,3.55-.62c2.83,1.97,8.16,1.3,10.51-1.92,1.25-1.68,1.2-3.7-.48-4.94-1.78-1.3-4.85-1.01-8.83.58-3.12,1.25-5.95,3.02-8.78,4.75,1.2,2.16,2.54,4.56,3.84,6.91ZM116.88,80.48c-.19-.77-.62-1.39-1.06-1.92-.38-.48-.77-.91-1.2-1.34-1.58-1.63,1.63-4.13,4.03-2.16.82.67,2.3,2.16,2.83,3.94.86,2.93-3.74,4.56-4.61,1.49Z"/>
      <path class="cls-1" d="M168,84.85c4.03-.34,7.1,2.02,7.3,7.39.1,3.36-.38,7.68-1.63,10.7-1.97,4.75-6.67,7.1-11.28,5.76-3.79-1.1-2.26-5.52.67-4.8,2.74.67,4.75.24,6.1-2.59,1.1-2.35,1.54-5.76,1.54-8.3,0-2.93-1.01-4.32-3.22-4.13-.72.05-1.44.14-2.21.24-2.35,7.44-5.57,13.97-9.31,19.3-2.3,3.26-7.3.48-4.18-3.02,3.31-3.7,6.29-9.17,8.5-15.6l-.58.1c-2.06.38-3.94.67-5.18.67-3.26,0-3.22-4.32-.14-4.61,1.49-.14,2.98-.1,4.7-.24l2.4-.24c.58-2.11,1.2-4.94,1.49-7.63.34-3.12,5.23-2.83,4.85.38-.19,1.63-.82,4.51-1.39,6.77l1.58-.14ZM185.67,95.65c-1.15-2.64-3.31-6.29-6.87-8.26-2.35-1.3-.24-4.9,2.74-3.17,3.84,2.26,7.25,5.66,8.54,9.12,1.2,3.17-3.12,5.28-4.42,2.3Z"/>
      <path class="cls-1" d="M215.33,88.12c.48-.91.91-1.68,1.54-2.5.77-1.01.53-.96-.38-.67-3.6,1.15-2.78,1.15-6.05,2.4-1.54.58-2.88,1.06-4.32,1.44-4.22,1.15-5.52-4.37-1.68-5.18,1.01-.24,3.79-.77,5.33-1.15,2.35-.58,6.58-1.54,11.47-2.93,4.94-1.39,8.83-2.54,13.06-2.83,2.98-.19,3.79,2.16,3.26,3.7-.29.82-1.34,1.78-4.7,1.58-2.45-.14-5.47.77-7.11,1.34-2.69.96-5.14,3.84-6.19,5.62-4.22,7.06-1.01,17.14,9.75,16.75,5.04-.19,5.38,5.47.29,5.42-14.5-.05-19.49-13.35-14.26-22.99ZM230.11,91.28c-2.54-1.1-.62-4.08,1.73-3.22,1.34.48,3.94,1.82,5.04,3.02,1.97,2.11-1.01,5.18-2.69,3.22-.67-.77-3.07-2.59-4.08-3.02ZM234.96,87.11c-2.59-1.01-.72-4.08,1.63-3.31,1.34.43,3.94,1.73,5.09,2.88,2.02,2.02-.82,5.18-2.54,3.26-.67-.77-3.17-2.45-4.18-2.83Z"/>
      <path class="cls-1" d="M256.42,112.6c-1.2-1.78-3.84-3.98-5.9-5.04-.91-.48-1.3-1.2-1.3-1.92,0-1.1.86-2.11,2.26-2.11,1.68,0,9.36,4.22,9.36,7.49,0,1.54-1.3,2.64-2.59,2.64-.67,0-1.34-.34-1.82-1.06Z"/>
      <path class="cls-1" d="M316.85,105.54c-1.78,1.3-3.55,2.4-5.23,3.26-2.98,1.54-7.54.77-7.01-5.66.38-4.7,4.22-9.94,8.59-12.72.62-.38,1.3-.77,2.02-1.15.14-1.82.34-3.74.58-5.71-2.3.14-4.37,0-6-.48-2.83-.82-1.87-5.23,1.34-4.22,1.34.43,3.17.53,5.18.38.19-1.39.43-2.83.62-4.27.53-3.55,5.18-2.78,4.66.1-.19,1.2-.43,2.4-.62,3.5,2.21-.48,4.42-1.1,6.48-1.87,2.78-1.06,4.9,3.02,1.1,4.27-2.64.86-5.52,1.63-8.3,2.11-.24,1.54-.43,2.93-.62,4.27,1.68-.58,3.41-.96,5.04-1.06h.58v-.1c.34-2.83,4.75-1.92,4.56.38,14.02,2.54,13.3,20.21-3.07,25.59-4.32,1.44-5.52-3.02-1.58-4.32,11.95-3.89,12.43-15.22,3.74-17.38-1.58,4.51-4.7,8.59-8.3,11.95.14.34.34.67.53.96,1.68,2.78-2.3,5.86-4.13,2.45l-.14-.29ZM314.98,93.73c-3.79,2.78-5.95,6.19-6.14,9.02-.14,1.92,1.15,2.11,2.4,1.44,1.44-.82,2.88-1.73,4.27-2.78-.43-2.26-.58-4.85-.53-7.68ZM324.15,90.18c-1.39.14-3.22.62-4.95,1.3-.19,2.45-.14,4.61.1,6.53,2.16-2.26,3.94-4.9,4.99-7.82h-.14Z"/>
      <path class="cls-1" d="M360.62,109.14c-1.44,3.22-6.53,1.82-4.51-2.26,2.06-4.22,5.47-11.52,8.4-20.83-2.54.29-4.99.19-7.01-.67-2.45-1.06-1.97-5.42,1.63-4.13,2.02.72,4.37.72,6.62.29.29-1.78.1-3.07-.05-5.18-.19-2.74,4.32-2.88,4.8-.24.19,1.2.19,2.5.05,3.84.67-.34,1.25-.67,1.82-1.01,2.5-1.63,5.47,2.35,1.87,4.13-1.34.67-3.07,1.39-4.85,1.92-3.02,10.51-6.43,18.82-8.78,24.15ZM372.29,106.98c-2.06-2.3.91-6.1,3.41-3.55,2.45,2.5,5.38,2.26,10.99,1.78,3.5-.29,3.79,4.32.62,4.94-6.96,1.39-12.91-.82-15.03-3.17ZM377.71,90.23c-2.5.91-3.98-3.02-.82-4.13,2.45-.86,6.82-1.44,11.52.24,3.22,1.15,1.92,5.38-1.1,4.37-2.69-.91-7.06-1.44-9.6-.48Z"/>
      <path class="cls-1" d="M411.5,109.14c-1.44,3.22-6.53,1.82-4.51-2.26,2.06-4.22,5.47-11.52,8.4-20.83-2.54.29-4.99.19-7.01-.67-2.45-1.06-1.97-5.42,1.63-4.13,2.02.72,4.37.72,6.62.29.29-1.78.1-3.07-.05-5.18-.19-2.74,4.32-2.88,4.8-.24.19,1.2.19,2.5.05,3.84.67-.34,1.25-.67,1.82-1.01,2.5-1.63,5.47,2.35,1.87,4.13-1.34.67-3.07,1.39-4.85,1.92-3.02,10.51-6.43,18.82-8.78,24.15ZM423.17,106.98c-2.06-2.3.91-6.1,3.41-3.55,2.45,2.5,5.38,2.26,10.99,1.78,3.5-.29,3.79,4.32.62,4.94-6.96,1.39-12.91-.82-15.03-3.17ZM428.59,90.23c-2.5.91-3.98-3.02-.82-4.13,2.45-.86,6.82-1.44,11.52.24,3.22,1.15,1.92,5.38-1.1,4.37-2.69-.91-7.06-1.44-9.6-.48Z"/>
      <path class="cls-1" d="M473.28,84.85c4.03-.34,7.1,2.02,7.3,7.39.1,3.36-.38,7.68-1.63,10.7-1.97,4.75-6.67,7.1-11.28,5.76-3.79-1.1-2.26-5.52.67-4.8,2.74.67,4.75.24,6.1-2.59,1.1-2.35,1.54-5.76,1.54-8.3,0-2.93-1.01-4.32-3.22-4.13-.72.05-1.44.14-2.21.24-2.35,7.44-5.57,13.97-9.31,19.3-2.3,3.26-7.3.48-4.18-3.02,3.31-3.7,6.29-9.17,8.5-15.6l-.58.1c-2.06.38-3.94.67-5.18.67-3.26,0-3.22-4.32-.14-4.61,1.49-.14,2.98-.1,4.7-.24l2.4-.24c.58-2.11,1.2-4.94,1.49-7.63.34-3.12,5.23-2.83,4.85.38-.19,1.63-.82,4.51-1.39,6.77l1.58-.14ZM490.95,95.65c-1.15-2.64-3.31-6.29-6.87-8.26-2.35-1.3-.24-4.9,2.74-3.17,3.84,2.26,7.25,5.66,8.54,9.12,1.2,3.17-3.12,5.28-4.42,2.3Z"/>
      <path class="cls-1" d="M512.16,83.89c-2.93-.82-2.02-5.23,1.39-4.13,1.58.53,4.08.48,6.58-.14.48-1.58.72-3.12.96-4.85.43-2.83,4.66-2.3,4.56.43-.05.72-.34,1.78-.67,2.93.58-.29,1.1-.53,1.54-.82,2.16-1.54,5.18,1.44,2.11,3.65-1.2.86-3.17,1.63-5.14,2.21-2.26,5.42-5.52,11.19-8.59,16.18-1.78,2.88-6.38,1.01-4.27-2.11,2.69-3.98,5.52-8.06,7.87-13.1-2.45.48-4.51.29-6.34-.24ZM520.42,110.92c-4.46-2.26-4.99-7.44-.05-9.65,2.98-1.34,6.24-1.44,9.22-.91v-1.68c0-1.2-.1-2.4-.14-3.6-.05-.96.05-2.3.24-3.22.58-2.64,4.8-2.02,4.32.86-.14.72-.29,1.25-.29,2.26,0,1.1,0,2.3.05,3.7.05.91.14,1.92.19,2.98,2.54,1.06,4.66,2.54,5.86,3.84,2.74,3.02-1.15,6.43-3.46,3.65-.72-.86-1.63-1.73-2.74-2.5-1.39,3.84-7.39,7.2-13.2,4.27ZM521.95,104.63c-1.3.67-1.39,2.06.05,2.78,2.88,1.44,6.77.05,7.3-2.54.05-.14,0-.34.05-.48-2.45-.82-5.04-.91-7.39.24ZM532.66,86.92c-2.64.14-2.83-3.84.24-4.13,3.17-.29,6.53.29,8.83,1.68,3.26,1.97.77,5.95-1.58,4.46-2.26-1.44-4.7-2.16-7.49-2.02Z"/>
      <path class="cls-1" d="M563.14,105.78c-.96,0-1.87-.05-2.74-.1-2.3-.19-3.94-1.97-3.94-4.51-.05-3.36-.05-8.4-.05-13.1,0-3.41,0-6.62.05-8.88.1-4.32,3.98-4.32,6.53-4.32,1.01,0,1.97,0,2.93.05,2.54.1,4.27,1.78,4.32,4.08.05,2.74.1,6.38.1,10.08,0,4.46-.05,9.02-.1,12.15-.1,4.56-4.22,4.56-7.11,4.56ZM566.11,87.97c0-3.02-.05-5.9-.14-7.92-.1-1.34-1.44-1.39-2.64-1.39-1.73,0-2.69.24-2.69,1.44-.05,1.82-.05,4.75-.05,7.87h5.52ZM560.59,91.76c0,3.31,0,6.53.05,8.59,0,1.06.53,1.39,2.69,1.39,1.97,0,2.59-.34,2.64-1.44.1-2.21.14-5.33.14-8.54h-5.52ZM573.02,89.12c-1.44,0-2.11-.91-2.11-1.87,0-1.01.77-2.06,2.11-2.06l8.35.05v-4.03h-6.19c-1.49,0-2.16-.91-2.16-1.87,0-1.01.77-2.02,2.16-2.02h6.14v-4.37c0-1.39,1.15-2.06,2.26-2.06s2.3.67,2.3,2.06v4.37h6.82c1.39,0,2.06.96,2.06,1.92,0,1.01-.67,1.97-2.06,1.97h-6.87v4.03l9.46-.05c1.34,0,2.02.96,2.02,1.97s-.67,1.97-2.02,1.97h-22.27ZM590.79,97.24l.05,3.12.14,6.72v.14c0,2.64-2.06,6.05-7.68,6.05-3.94,0-5.09-.86-5.09-2.59,0-1.15.77-2.26,2.06-2.26.14,0,.29,0,.48.05.91.19,1.87.34,2.74.34,1.68,0,2.93-.58,2.93-2.59l-.05-8.98-13.34.05c-1.44,0-2.11-.91-2.11-1.87,0-1.01.77-2.06,2.11-2.06l13.3.05v-1.82c0-1.3,1.1-1.97,2.21-1.97s2.21.67,2.21,1.97l.05,1.82,4.8-.05c1.34,0,2.02.96,2.02,1.97s-.67,1.97-2.02,1.97l-4.8-.05ZM579.41,105.59c-1.3-1.68-2.93-2.83-3.94-3.36-.72-.38-1.06-.91-1.06-1.49,0-1.01.96-2.02,2.21-2.02s6.62,2.74,6.62,5.28c0,1.3-1.1,2.5-2.26,2.5-.53,0-1.1-.29-1.58-.91Z"/>
      <path class="cls-1" d="M609.69,113.37c-1.15,0-2.3-.67-2.3-1.97v-.1c.34-8.78.24-23.95.34-34.37,0-4.7,3.31-4.7,8.21-4.7,1.82,0,3.74,0,4.66.05,2.45.1,4.27,1.63,4.37,3.79.05,1.68.1,3.41.1,5.09,0,6.05-.1,7.25-9.55,7.25-1.25,0-2.45-.05-3.31-.1v4.32c0,5.18-.05,11.91-.19,18.67,0,1.39-1.15,2.06-2.3,2.06ZM620.83,78.75c0-.53-.05-1.01-.05-1.49-.1-1.34-.34-1.49-4.18-1.49s-4.27.14-4.37,1.87c0,.34-.05.72-.05,1.1h8.64ZM612.19,81.92v2.93c.67.05,2.11.05,3.55.05,4.66,0,4.99-.19,5.04-1.54,0-.43.05-.91.05-1.44h-8.64ZM630.82,108.04c-1.3.1-2.74.14-4.13.14s-2.88-.05-4.18-.14c-2.88-.24-4.66-1.97-4.75-4.46-.05-.67-.05-1.49-.05-2.3,0-2.16.1-4.66.19-6.58.14-2.11,1.54-4.13,4.51-4.27,1.25-.05,2.59-.1,3.89-.1,1.58,0,3.17.05,4.56.1,2.35.1,4.22,1.92,4.37,3.94.14,1.68.19,3.79.19,5.76,0,1.25,0,2.4-.05,3.41-.1,2.4-1.97,4.32-4.56,4.51ZM621.46,100.64c0,3.74.05,3.79,4.99,3.79,3.55,0,4.94-.05,5.04-1.92,0-.53.05-1.2.05-1.87h-10.08ZM631.49,97.24c0-.58-.1-1.06-.1-1.49-.1-1.78-1.01-1.92-4.27-1.92-1.2,0-2.5,0-3.65.05-1.34.05-1.82,1.01-1.87,1.92,0,.43-.1.91-.1,1.44h9.98ZM638.21,88.4c-5.66,0-9.65,0-9.79-4.22-.05-.96-.05-2.02-.05-3.02,0-1.68.05-3.41.1-5.09.1-2.16,1.82-3.7,4.27-3.79.91-.05,2.93-.05,4.8-.05,1.39,0,2.74,0,3.55.05,3.55.19,5.04,2.11,5.04,4.27v3.6c0,7.2.1,14.64.1,20.74,0,2.26.05,4.27.05,5.95,0,3.41-1.68,6.38-7.15,6.38-3.36,0-5.09-.43-5.09-2.54,0-1.1.67-2.11,1.87-2.11.14,0,.24.05.38.05.91.14,1.78.29,2.54.29,1.58,0,2.78-.58,2.83-2.93.05-1.92.1-3.98.1-6.14,0-3.22-.05-6.53-.05-9.55v-1.97c-.86.05-2.11.1-3.5.1ZM641.62,78.75c0-2.93-.1-2.98-4.51-2.98-3.84,0-4.37,0-4.46,1.54,0,.43-.05.96-.05,1.44h9.02ZM641.71,81.92h-9.12c0,.53.05,1.01.05,1.44.05,1.34.19,1.54,5.28,1.54,1.58,0,3.12,0,3.79-.05v-2.93Z"/>
    </g>
  </g>
</svg>