<?xml version="1.0" encoding="UTF-8"?>
<svg id="Layer_2" data-name="Layer 2" xmlns="http://www.w3.org/2000/svg" viewBox="0 0 355.39 243.17">
  <defs>
    <style>
      .cls-1 {
        fill: #e6c3c3;
        stroke-width: 0px;
      }

      .cls-2 {
        opacity: .5;
      }
    </style>
  </defs>
  <g id="object">
    <g class="cls-2">
      <g>
        <path class="cls-1" d="M.1,213.05c-.6-6.44,1.47-11.43,5.11-15.75,7.64-9.07,16.61-16.67,26.53-23.14,1.49-.97,3.27-1.78,5.01-2.06,4.65-.76,6.86,2.36,5.78,6.89-5.03,21.1-7.14,30.23-27.26,49.32-2.49,2.36-5.85,2.84-9.03-.99-3.82-4.59-4.95-9.17-6.12-14.27Z"/>
        <path class="cls-1" d="M38.11,242.99c-5.91.37-11.21.45-16.15-2.83-2.72-1.81-4.7-5.05-2.55-7.85,7.84-10.23,15.21-24.05,29.23-30.9,4.01-1.96,8.84-4.49,12.5-7.07,1.64-1.16,3.41-2.33,5.49-1.08,2.18,1.3,3.18,3.4,3.03,5.88-.09,1.47-.41,2.98-.93,4.36-4.27,11.4-9.63,22.22-17.2,31.83-3.41,4.32-7.69,7.28-13.41,7.66Z"/>
      </g>
      <g>
        <path class="cls-1" d="M48.28,61.72c.95-6.4,4.14-10.75,8.7-14.09,9.57-7,20.09-12.25,31.26-16.19,1.68-.59,3.59-.95,5.35-.82,4.7.37,6.1,3.92,3.98,8.07-9.9,19.31-14.11,27.67-38.18,41.44-2.98,1.7-6.36,1.37-8.54-3.11-2.62-5.37-2.64-10.09-2.56-15.31Z"/>
        <path class="cls-1" d="M78.1,99.82c-5.83-1.04-11-2.22-15.02-6.58-2.22-2.4-3.37-6.02-.61-8.23,10.05-8.08,20.48-19.76,35.72-23.08,4.36-.95,9.66-2.26,13.82-3.9,1.86-.73,3.87-1.45,5.59.25,1.81,1.78,2.28,4.05,1.55,6.43-.43,1.41-1.1,2.8-1.93,4.02-6.85,10.06-14.63,19.3-24.26,26.84-4.33,3.39-9.2,5.25-14.85,4.26Z"/>
      </g>
      <g>
        <path class="cls-1" d="M161.02,116.4c1.79-6.22,5.53-10.11,10.49-12.81,10.42-5.67,21.54-9.48,33.13-11.9,1.74-.36,3.69-.47,5.41-.1,4.61.99,5.53,4.69,2.87,8.52-12.37,17.83-17.65,25.56-43.34,36.02-3.18,1.29-6.48.51-8.05-4.21-1.88-5.67-1.28-10.35-.51-15.52Z"/>
        <path class="cls-1" d="M185.53,158.12c-5.64-1.8-10.6-3.66-14.02-8.52-1.88-2.68-2.54-6.41.48-8.24,11.03-6.68,22.92-16.87,38.47-18.15,4.45-.37,9.87-.96,14.22-2.03,1.95-.48,4.02-.92,5.51.99,1.55,2.01,1.72,4.32.68,6.58-.62,1.34-1.46,2.63-2.45,3.72-8.12,9.06-17.06,17.19-27.6,23.39-4.74,2.79-9.81,3.99-15.28,2.26Z"/>
      </g>
      <g>
        <path class="cls-1" d="M286.43,19.58c2.49-5.97,6.66-9.4,11.9-11.51,11-4.43,22.49-6.93,34.28-8,1.78-.16,3.72-.04,5.39.53,4.46,1.51,4.95,5.3,1.87,8.8-14.34,16.28-20.48,23.35-47.21,30.77-3.31.92-6.5-.24-7.51-5.11-1.22-5.85-.07-10.42,1.28-15.47Z"/>
        <path class="cls-1" d="M305.95,63.85c-5.4-2.44-10.11-4.86-12.94-10.08-1.56-2.88-1.79-6.66,1.43-8.13,11.72-5.36,24.72-14.11,40.3-13.59,4.46.15,9.92.19,14.35-.38,1.99-.25,4.1-.45,5.36,1.62,1.31,2.17,1.21,4.49-.08,6.62-.77,1.26-1.76,2.44-2.86,3.42-9.11,8.06-18.93,15.11-30.12,20.04-5.03,2.22-10.21,2.83-15.44.48Z"/>
      </g>
    </g>
  </g>
</svg>