<?xml version="1.0" encoding="UTF-8"?>
<svg id="Layer_2" data-name="Layer 2" xmlns="http://www.w3.org/2000/svg" viewBox="0 0 523.72 530.71">
  <defs>
    <style>
      .cls-1 {
        fill: #e6c3c3;
        stroke-width: 0px;
      }

      .cls-2 {
        opacity: .5;
      }
    </style>
  </defs>
  <g id="object">
    <g class="cls-2">
      <g>
        <path class="cls-1" d="M1.13,486.82c2.08-6.13,6-9.84,11.08-12.3,10.67-5.17,21.96-8.45,33.65-10.33,1.76-.28,3.71-.3,5.41.15,4.56,1.2,5.3,4.95,2.47,8.65-13.19,17.22-18.84,24.7-44.99,33.93-3.24,1.14-6.5.21-7.85-4.59-1.61-5.75-.79-10.39.22-15.52Z"/>
        <path class="cls-1" d="M23.64,529.65c-5.55-2.07-10.42-4.15-13.6-9.17-1.75-2.76-2.24-6.52.87-8.21,11.33-6.15,23.69-15.77,39.28-16.31,4.46-.16,9.9-.49,14.3-1.36,1.97-.39,4.06-.73,5.45,1.25,1.46,2.08,1.52,4.4.37,6.61-.68,1.31-1.59,2.55-2.62,3.6-8.54,8.67-17.85,16.37-28.68,22.06-4.87,2.56-9.99,3.52-15.37,1.54Z"/>
      </g>
      <g>
        <path class="cls-1" d="M175.55,491.59c.66-6.44,3.66-10.93,8.07-14.46,9.26-7.41,19.53-13.13,30.51-17.55,1.65-.67,3.55-1.11,5.31-1.05,4.71.16,6.27,3.65,4.33,7.88-9.03,19.73-12.87,28.27-36.31,43.09-2.9,1.83-6.29,1.65-8.67-2.73-2.85-5.25-3.08-9.96-3.24-15.18Z"/>
        <path class="cls-1" d="M207.02,528.34c-5.87-.78-11.08-1.73-15.3-5.91-2.32-2.3-3.63-5.86-.98-8.2,9.68-8.51,19.59-20.64,34.67-24.64,4.31-1.14,9.55-2.68,13.63-4.5,1.83-.82,3.8-1.62,5.59,0,1.88,1.7,2.46,3.95,1.83,6.36-.37,1.42-.98,2.84-1.75,4.1-6.4,10.35-13.76,19.93-23.05,27.89-4.18,3.58-8.96,5.65-14.64,4.92Z"/>
      </g>
      <g>
        <path class="cls-1" d="M141.18,353.01c2.06-6.14,5.96-9.86,11.04-12.34,10.66-5.21,21.93-8.53,33.62-10.44,1.76-.29,3.71-.31,5.41.14,4.56,1.19,5.32,4.93,2.5,8.64-13.13,17.27-18.75,24.76-44.87,34.09-3.23,1.15-6.5.23-7.86-4.56-1.63-5.75-.82-10.39.17-15.52Z"/>
        <path class="cls-1" d="M163.84,395.77c-5.56-2.05-10.43-4.12-13.63-9.12-1.76-2.76-2.26-6.52.84-8.21,11.31-6.19,23.64-15.85,39.22-16.45,4.46-.17,9.9-.53,14.29-1.41,1.96-.39,4.06-.75,5.46,1.23,1.47,2.07,1.53,4.39.39,6.6-.67,1.31-1.58,2.56-2.61,3.61-8.51,8.7-17.79,16.43-28.6,22.16-4.86,2.58-9.98,3.56-15.37,1.59Z"/>
      </g>
      <g>
        <path class="cls-1" d="M314.8,355.98c-.6-6.44,1.47-11.43,5.11-15.75,7.64-9.07,16.61-16.67,26.53-23.14,1.49-.97,3.27-1.78,5.01-2.06,4.65-.76,6.86,2.36,5.78,6.89-5.03,21.1-7.14,30.23-27.26,49.32-2.49,2.36-5.85,2.84-9.03-.99-3.82-4.59-4.95-9.17-6.12-14.27Z"/>
        <path class="cls-1" d="M352.81,385.93c-5.91.37-11.21.45-16.15-2.83-2.72-1.81-4.7-5.05-2.55-7.85,7.84-10.23,15.21-24.05,29.23-30.9,4.01-1.96,8.84-4.49,12.5-7.07,1.64-1.16,3.41-2.33,5.49-1.08,2.18,1.3,3.18,3.4,3.03,5.88-.09,1.47-.41,2.98-.93,4.36-4.27,11.4-9.63,22.22-17.2,31.83-3.41,4.32-7.69,7.28-13.41,7.66Z"/>
      </g>
      <g>
        <path class="cls-1" d="M312.89,197.77c.95-6.4,4.14-10.75,8.7-14.09,9.57-7,20.09-12.25,31.26-16.19,1.68-.59,3.59-.95,5.35-.82,4.7.37,6.1,3.92,3.98,8.07-9.9,19.31-14.11,27.67-38.18,41.44-2.98,1.7-6.36,1.37-8.54-3.11-2.62-5.37-2.64-10.09-2.56-15.31Z"/>
        <path class="cls-1" d="M342.7,235.88c-5.83-1.04-11-2.22-15.02-6.58-2.22-2.4-3.37-6.02-.61-8.23,10.05-8.08,20.48-19.76,35.72-23.08,4.36-.95,9.66-2.26,13.82-3.9,1.86-.73,3.87-1.45,5.59.25,1.81,1.78,2.28,4.05,1.55,6.43-.43,1.41-1.1,2.8-1.93,4.02-6.85,10.06-14.63,19.3-24.26,26.84-4.33,3.39-9.2,5.25-14.85,4.26Z"/>
      </g>
      <g>
        <path class="cls-1" d="M455.38,222.09c-1.07-6.38.63-11.5,3.95-16.08,6.96-9.6,15.35-17.83,24.77-25.01,1.42-1.08,3.13-2.01,4.84-2.42,4.58-1.1,7.01,1.85,6.26,6.45-3.48,21.41-4.91,30.67-23.59,51.18-2.31,2.54-5.63,3.26-9.08-.33-4.14-4.3-5.61-8.79-7.15-13.78Z"/>
        <path class="cls-1" d="M495.47,249.18c-5.87.8-11.15,1.27-16.32-1.65-2.85-1.61-5.06-4.69-3.12-7.65,7.08-10.77,13.42-25.1,26.89-32.95,3.85-2.25,8.49-5.12,11.95-7.96,1.55-1.27,3.23-2.57,5.39-1.48,2.27,1.14,3.42,3.15,3.45,5.65.02,1.47-.19,3-.6,4.42-3.42,11.68-7.99,22.87-14.83,33-3.08,4.56-7.14,7.83-12.82,8.62Z"/>
      </g>
      <g>
        <path class="cls-1" d="M454.29,52.77c-2.98-5.75-2.94-11.14-1.19-16.51,3.67-11.28,9.13-21.69,15.88-31.41,1.02-1.46,2.36-2.88,3.86-3.79,4.03-2.45,7.24-.39,7.94,4.22,3.27,21.45,4.75,30.7-6.72,55.95-1.42,3.12-4.36,4.83-8.74,2.48-5.26-2.82-8.04-6.64-11.04-10.92Z"/>
        <path class="cls-1" d="M500.77,66.23c-5.34,2.57-10.22,4.63-16.03,3.45-3.2-.65-6.25-2.91-5.32-6.32,3.42-12.43,5.05-28.01,15.46-39.62,2.98-3.32,6.51-7.48,8.93-11.25,1.08-1.69,2.29-3.44,4.68-3.07,2.51.39,4.22,1.95,5.02,4.31.47,1.39.74,2.91.78,4.39.33,12.16-.57,24.21-3.97,35.96-1.53,5.29-4.39,9.64-9.55,12.14Z"/>
      </g>
    </g>
  </g>
</svg>