<?xml version="1.0" encoding="UTF-8"?>
<svg id="Layer_2" data-name="Layer 2" xmlns="http://www.w3.org/2000/svg" viewBox="0 0 523.15 124.38">
  <defs>
    <style>
      .cls-1 {
        fill: #b37474;
      }

      .cls-1, .cls-2, .cls-3 {
        stroke-width: 0px;
      }

      .cls-2 {
        fill: #b37474;
      }

      .cls-3 {
        fill: #f2cece;
      }
    </style>
  </defs>
  <g id="text">
    <g>
      <path class="cls-3" d="M287.73,34.31c4.57-5.38.93-14.72-4.03-21.53,2.93-1.1,2.8-4.17-4.25-9.07-1.43-.99-3.98.77-4.33,1.82-1.74-1.29-5.51-1.93-10.05-2.09-7.3,0-11.86,2.37-13.6,3.66-.35-1.05-1.9-2.43-3.39-1.52-8.61,5.32-7.78,8.78-4.85,9.88-4.96,6.81-8.93,16.15-4.36,21.53-5.18,3.39-1.54,6.27.5,6.19,3.06-.12,5.9-2.88,5.9-4.91,2.87,0,12.83,0,17.06,0h0c1.01,0,12.85,0,15.94,0,0,2.04,2.82,4.61,5.87,4.91,4.13.41,8.5-5.89,3.58-8.88Z"/>
      <g>
        <path class="cls-2" d="M261.72,35.02c5.73,0,9.58-2.56,9.58-6.38s-4.3-7.18-9.58-7.18-9.58,3.22-9.58,7.18,3.85,6.38,9.58,6.38ZM261.72,23.96c3.84,0,7.08,2.14,7.08,4.68,0,2.67-3.67,3.88-7.08,3.88s-7.08-1.21-7.08-3.88,3.24-4.68,7.08-4.68Z"/>
        <path class="cls-2" d="M274.63,23.92c1.08,0,1.95-.87,1.95-1.95s-.87-1.95-1.95-1.95-1.95.87-1.95,1.95.87,1.95,1.95,1.95Z"/>
        <path class="cls-2" d="M265.89,30.69c.77-.28,1.03-1.55.56-2.83-.46-1.28-1.65-2.6-2.42-2.33-.77.28-.84,2.05-.38,3.34.46,1.28,1.47,2.1,2.24,1.82Z"/>
        <path class="cls-2" d="M248.84,23.92c1.08,0,1.95-.87,1.95-1.95s-.87-1.95-1.95-1.95-1.95.87-1.95,1.95.87,1.95,1.95,1.95Z"/>
        <path class="cls-2" d="M257.58,30.69c.77.28,1.78-.53,2.24-1.82.46-1.28.39-3.06-.38-3.34-.77-.28-1.96,1.04-2.42,2.33-.46,1.28-.21,2.55.56,2.83Z"/>
        <path class="cls-2" d="M1.25,39.75h231.26c.93,2.9,4.01,4.91,6.82,4.91s5.89-2.01,6.82-4.91h31.13c.93,2.9,4.01,4.91,6.82,4.91s5.89-2.01,6.82-4.91h230.6c.69,0,1.25-.56,1.25-1.25s-.56-1.25-1.25-1.25h-230.36c-.12-.92-.52-2.12-1.67-3.06,3.99-6.05-.01-13.49-4.17-20.77.86-.64,1.49-1.46,1.56-2.47.16-2.37-3.07-5.87-5.3-7.49-1.97-1.43-3.62-1.9-4.9-1.38-.54.22-1.01.58-1.42,1.03-4.41-2.5-11.3-3.1-13.54-3.1s-9.15.59-13.54,3.1c-.41-.44-.88-.81-1.42-1.03-1.28-.51-2.92-.05-4.89,1.38-2.23,1.62-5.46,5.12-5.3,7.5.07,1.01.69,1.81,1.53,2.45-4.16,7.28-8.18,14.73-4.18,20.78-1.14.94-1.55,2.14-1.67,3.06H1.25c-.69,0-1.25.56-1.25,1.25s.56,1.25,1.25,1.25ZM239.33,42.16c-2.09,0-4.62-1.88-4.62-4.21,0-.69,0-2.78,4.62-2.78s4.62,2.09,4.62,2.78c0,2.33-2.52,4.21-4.62,4.21ZM284.11,42.16c-2.09,0-4.62-1.88-4.62-4.21,0-.69,0-2.78,4.62-2.78s4.62,2.09,4.62,2.78c0,2.33-2.52,4.21-4.62,4.21ZM277.63,4.39c.17-.07.98,0,2.5,1.09,2.44,1.77,4.33,4.47,4.27,5.3,0,.15-.5.91-2.6,1.66-3.01,1.08-5.95.97-6.39.5-.28-.32-.49-2.08.08-4.47.55-2.33,1.5-3.82,2.15-4.08ZM243.35,5.47c1.26-.91,2.04-1.11,2.36-1.11.06,0,.11,0,.14.02.65.26,1.6,1.75,2.15,4.08.57,2.39.35,4.16.08,4.47-.44.47-3.38.58-6.39-.5-2.1-.75-2.59-1.52-2.6-1.66-.06-.83,1.84-3.54,4.27-5.3ZM240.31,14.59c.22.09.45.17.66.25,1.45.5,3.46.94,5.27.94,1.53,0,2.91-.31,3.68-1.16,1.52-1.67.79-5.48.53-6.61-.15-.66-.44-1.73-.93-2.8,3.63-2.03,9.64-2.71,12.21-2.71s8.56.68,12.2,2.71c-.48,1.07-.77,2.14-.92,2.8-.26,1.13-.99,4.94.53,6.61.77.85,2.16,1.16,3.68,1.16,1.81,0,3.82-.44,5.27-.94.21-.07.42-.15.63-.24,4.15,7.26,7.55,13.58,4.09,18.45-.85-.24-1.88-.38-3.12-.38-5.59,0-6.84,2.8-7.07,4.57h-30.64c-.23-1.77-1.48-4.57-7.07-4.57-1.25,0-2.27.14-3.12.38-3.46-4.88-.05-11.2,4.1-18.46Z"/>
        <path class="cls-2" d="M521.9,121.88H1.62c-.69,0-1.25.56-1.25,1.25s.56,1.25,1.25,1.25h520.28c.69,0,1.25-.56,1.25-1.25s-.56-1.25-1.25-1.25Z"/>
        <path class="cls-2" d="M354.45,45.84h-10c-.41,0-.75.34-.75.75s.34.75.75.75h10c.41,0,.75-.34.75-.75s-.34-.75-.75-.75Z"/>
        <path class="cls-2" d="M374.45,45.84h-10c-.41,0-.75.34-.75.75s.34.75.75.75h10c.41,0,.75-.34.75-.75s-.34-.75-.75-.75Z"/>
        <path class="cls-2" d="M274.45,45.84h-10c-.41,0-.75.34-.75.75s.34.75.75.75h10c.41,0,.75-.34.75-.75s-.34-.75-.75-.75Z"/>
        <path class="cls-2" d="M334.45,45.84h-10c-.41,0-.75.34-.75.75s.34.75.75.75h10c.41,0,.75-.34.75-.75s-.34-.75-.75-.75Z"/>
        <path class="cls-2" d="M314.45,45.84h-10c-.41,0-.75.34-.75.75s.34.75.75.75h10c.41,0,.75-.34.75-.75s-.34-.75-.75-.75Z"/>
        <path class="cls-2" d="M294.45,45.84h-10c-.41,0-.75.34-.75.75s.34.75.75.75h10c.41,0,.75-.34.75-.75s-.34-.75-.75-.75Z"/>
        <path class="cls-2" d="M394.45,45.84h-10c-.41,0-.75.34-.75.75s.34.75.75.75h10c.41,0,.75-.34.75-.75s-.34-.75-.75-.75Z"/>
        <path class="cls-2" d="M474.45,45.84h-10c-.41,0-.75.34-.75.75s.34.75.75.75h10c.41,0,.75-.34.75-.75s-.34-.75-.75-.75Z"/>
        <path class="cls-2" d="M494.45,45.84h-10c-.41,0-.75.34-.75.75s.34.75.75.75h10c.41,0,.75-.34.75-.75s-.34-.75-.75-.75Z"/>
        <path class="cls-2" d="M414.45,45.84h-10c-.41,0-.75.34-.75.75s.34.75.75.75h10c.41,0,.75-.34.75-.75s-.34-.75-.75-.75Z"/>
        <path class="cls-2" d="M514.45,45.84h-10c-.41,0-.75.34-.75.75s.34.75.75.75h10c.41,0,.75-.34.75-.75s-.34-.75-.75-.75Z"/>
        <path class="cls-2" d="M434.45,45.84h-10c-.41,0-.75.34-.75.75s.34.75.75.75h10c.41,0,.75-.34.75-.75s-.34-.75-.75-.75Z"/>
        <path class="cls-2" d="M454.45,45.84h-10c-.41,0-.75.34-.75.75s.34.75.75.75h10c.41,0,.75-.34.75-.75s-.34-.75-.75-.75Z"/>
        <path class="cls-2" d="M14.45,45.84H4.45c-.41,0-.75.34-.75.75s.34.75.75.75h10c.41,0,.75-.34.75-.75s-.34-.75-.75-.75Z"/>
        <path class="cls-2" d="M194.45,45.84h-10c-.41,0-.75.34-.75.75s.34.75.75.75h10c.41,0,.75-.34.75-.75s-.34-.75-.75-.75Z"/>
        <path class="cls-2" d="M214.45,45.84h-10c-.41,0-.75.34-.75.75s.34.75.75.75h10c.41,0,.75-.34.75-.75s-.34-.75-.75-.75Z"/>
        <path class="cls-2" d="M94.45,45.84h-10c-.41,0-.75.34-.75.75s.34.75.75.75h10c.41,0,.75-.34.75-.75s-.34-.75-.75-.75Z"/>
        <path class="cls-2" d="M74.45,45.84h-10c-.41,0-.75.34-.75.75s.34.75.75.75h10c.41,0,.75-.34.75-.75s-.34-.75-.75-.75Z"/>
        <path class="cls-2" d="M114.45,45.84h-10c-.41,0-.75.34-.75.75s.34.75.75.75h10c.41,0,.75-.34.75-.75s-.34-.75-.75-.75Z"/>
        <path class="cls-2" d="M154.45,45.84h-10c-.41,0-.75.34-.75.75s.34.75.75.75h10c.41,0,.75-.34.75-.75s-.34-.75-.75-.75Z"/>
        <path class="cls-2" d="M134.45,45.84h-10c-.41,0-.75.34-.75.75s.34.75.75.75h10c.41,0,.75-.34.75-.75s-.34-.75-.75-.75Z"/>
        <path class="cls-2" d="M174.45,45.84h-10c-.41,0-.75.34-.75.75s.34.75.75.75h10c.41,0,.75-.34.75-.75s-.34-.75-.75-.75Z"/>
        <path class="cls-2" d="M34.45,45.84h-10c-.41,0-.75.34-.75.75s.34.75.75.75h10c.41,0,.75-.34.75-.75s-.34-.75-.75-.75Z"/>
        <path class="cls-2" d="M234.45,45.84h-10c-.41,0-.75.34-.75.75s.34.75.75.75h10c.41,0,.75-.34.75-.75s-.34-.75-.75-.75Z"/>
        <path class="cls-2" d="M254.45,45.84h-10c-.41,0-.75.34-.75.75s.34.75.75.75h10c.41,0,.75-.34.75-.75s-.34-.75-.75-.75Z"/>
        <path class="cls-2" d="M54.45,45.84h-10c-.41,0-.75.34-.75.75s.34.75.75.75h10c.41,0,.75-.34.75-.75s-.34-.75-.75-.75Z"/>
        <path class="cls-2" d="M514.45,113.87h-10c-.41,0-.75.34-.75.75s.34.75.75.75h10c.41,0,.75-.34.75-.75s-.34-.75-.75-.75Z"/>
        <path class="cls-2" d="M14.45,113.87H4.45c-.41,0-.75.34-.75.75s.34.75.75.75h10c.41,0,.75-.34.75-.75s-.34-.75-.75-.75Z"/>
        <path class="cls-2" d="M74.45,113.87h-10c-.41,0-.75.34-.75.75s.34.75.75.75h10c.41,0,.75-.34.75-.75s-.34-.75-.75-.75Z"/>
        <path class="cls-2" d="M154.45,113.87h-10c-.41,0-.75.34-.75.75s.34.75.75.75h10c.41,0,.75-.34.75-.75s-.34-.75-.75-.75Z"/>
        <path class="cls-2" d="M34.45,113.87h-10c-.41,0-.75.34-.75.75s.34.75.75.75h10c.41,0,.75-.34.75-.75s-.34-.75-.75-.75Z"/>
        <path class="cls-2" d="M54.45,113.87h-10c-.41,0-.75.34-.75.75s.34.75.75.75h10c.41,0,.75-.34.75-.75s-.34-.75-.75-.75Z"/>
        <path class="cls-2" d="M94.45,113.87h-10c-.41,0-.75.34-.75.75s.34.75.75.75h10c.41,0,.75-.34.75-.75s-.34-.75-.75-.75Z"/>
        <path class="cls-2" d="M134.45,113.87h-10c-.41,0-.75.34-.75.75s.34.75.75.75h10c.41,0,.75-.34.75-.75s-.34-.75-.75-.75Z"/>
        <path class="cls-2" d="M114.45,113.87h-10c-.41,0-.75.34-.75.75s.34.75.75.75h10c.41,0,.75-.34.75-.75s-.34-.75-.75-.75Z"/>
        <path class="cls-2" d="M494.45,113.87h-10c-.41,0-.75.34-.75.75s.34.75.75.75h10c.41,0,.75-.34.75-.75s-.34-.75-.75-.75Z"/>
        <path class="cls-2" d="M434.45,113.87h-10c-.41,0-.75.34-.75.75s.34.75.75.75h10c.41,0,.75-.34.75-.75s-.34-.75-.75-.75Z"/>
        <path class="cls-2" d="M234.45,113.87h-10c-.41,0-.75.34-.75.75s.34.75.75.75h10c.41,0,.75-.34.75-.75s-.34-.75-.75-.75Z"/>
        <path class="cls-2" d="M334.45,113.87h-10c-.41,0-.75.34-.75.75s.34.75.75.75h10c.41,0,.75-.34.75-.75s-.34-.75-.75-.75Z"/>
        <path class="cls-2" d="M374.45,113.87h-10c-.41,0-.75.34-.75.75s.34.75.75.75h10c.41,0,.75-.34.75-.75s-.34-.75-.75-.75Z"/>
        <path class="cls-2" d="M354.45,113.87h-10c-.41,0-.75.34-.75.75s.34.75.75.75h10c.41,0,.75-.34.75-.75s-.34-.75-.75-.75Z"/>
        <path class="cls-2" d="M294.45,113.87h-10c-.41,0-.75.34-.75.75s.34.75.75.75h10c.41,0,.75-.34.75-.75s-.34-.75-.75-.75Z"/>
        <path class="cls-2" d="M254.45,113.87h-10c-.41,0-.75.34-.75.75s.34.75.75.75h10c.41,0,.75-.34.75-.75s-.34-.75-.75-.75Z"/>
        <path class="cls-2" d="M474.45,113.87h-10c-.41,0-.75.34-.75.75s.34.75.75.75h10c.41,0,.75-.34.75-.75s-.34-.75-.75-.75Z"/>
        <path class="cls-2" d="M314.45,113.87h-10c-.41,0-.75.34-.75.75s.34.75.75.75h10c.41,0,.75-.34.75-.75s-.34-.75-.75-.75Z"/>
        <path class="cls-2" d="M454.45,113.87h-10c-.41,0-.75.34-.75.75s.34.75.75.75h10c.41,0,.75-.34.75-.75s-.34-.75-.75-.75Z"/>
        <path class="cls-2" d="M174.45,113.87h-10c-.41,0-.75.34-.75.75s.34.75.75.75h10c.41,0,.75-.34.75-.75s-.34-.75-.75-.75Z"/>
        <path class="cls-2" d="M274.45,113.87h-10c-.41,0-.75.34-.75.75s.34.75.75.75h10c.41,0,.75-.34.75-.75s-.34-.75-.75-.75Z"/>
        <path class="cls-2" d="M194.45,113.87h-10c-.41,0-.75.34-.75.75s.34.75.75.75h10c.41,0,.75-.34.75-.75s-.34-.75-.75-.75Z"/>
        <path class="cls-2" d="M394.45,113.87h-10c-.41,0-.75.34-.75.75s.34.75.75.75h10c.41,0,.75-.34.75-.75s-.34-.75-.75-.75Z"/>
        <path class="cls-2" d="M214.45,113.87h-10c-.41,0-.75.34-.75.75s.34.75.75.75h10c.41,0,.75-.34.75-.75s-.34-.75-.75-.75Z"/>
        <path class="cls-2" d="M414.45,113.87h-10c-.41,0-.75.34-.75.75s.34.75.75.75h10c.41,0,.75-.34.75-.75s-.34-.75-.75-.75Z"/>
      </g>
      <g>
        <path class="cls-1" d="M134.33,80.56c0,10.5-4.45,19.3-14.57,25.13-4.4,2.53-6.6-2.53-3.19-4.4,8.52-4.67,12.32-11.66,12.32-20.51v-1.26c-2.97,0-5.88.05-8.8.11,0,3.13,0,6.05-.05,8.19-.05,1.87-1.38,2.86-2.8,2.86s-2.86-.99-2.75-2.8c.11-2.25.17-5.11.17-8.14-3.46.11-6.87.22-9.95.38-4.29.22-4.12-5-.33-5.11,3.3-.11,6.76-.17,10.23-.22-.05-2.58-.11-5-.22-6.87-.17-3.74,5.22-4.18,5.44-.22.11,1.81.17,4.29.22,6.98,2.97-.05,5.88-.11,8.85-.16,0-2.86,0-5.55-.05-7.09-.22-4.56,5.55-4.29,5.5-.06-.05,2.2-.05,4.62-.05,7.09,3.52-.06,7.04-.11,10.34-.11,5.17-.06,4.01,5.44.16,5.33-3.41-.11-6.87-.16-10.45-.16v1.04Z"/>
        <path class="cls-1" d="M162.21,85.35c-1.98,0-2.92-1.32-2.92-2.64s1.04-2.8,2.92-2.8h34.54c1.87,0,2.8,1.38,2.8,2.75s-.93,2.69-2.8,2.69h-34.54Z"/>
        <path class="cls-1" d="M226.29,92.66c-.11,2.69,1.1,4.01,4.4,4.45,3.19.44,12.1-.11,16-1.48,4.18-1.43,6.54,4.51,1.15,5.94-4.95,1.32-13.36,1.48-19.14.77-4.84-.6-7.75-3.74-7.81-8.25-.05-5.5.33-17.76.38-24.31,0-3.85,5.66-3.08,5.61.17-.05,2.97-.17,7.09-.28,11.16,4.34-.83,13.2-3.3,17.32-5.11,4.01-1.76,6.76,3.85,2.03,5.5-5.22,1.76-13.25,4.29-19.52,5-.06,2.42-.11,4.62-.17,6.16ZM246.09,71.98c-2.8-1.15-.6-4.51,1.92-3.57,1.48.55,4.23,2.03,5.44,3.35,2.14,2.31-1.04,5.66-2.86,3.52-.71-.88-3.41-2.8-4.51-3.3ZM251.09,67.25c-2.8-1.1-.83-4.4,1.76-3.57,1.48.49,4.29,1.87,5.55,3.13,2.2,2.2-.88,5.66-2.75,3.57-.77-.83-3.46-2.69-4.56-3.13Z"/>
        <path class="cls-1" d="M272.1,102.5c-4.01,1.48-5.88-3.9-1.76-5.33,10.01-3.46,18.7-12.26,23.04-20.46.5-.94.28-1.81-.93-1.81-3.46-.06-11.05.22-15.89.33-3.3.11-3.52-5.17,0-5.33,4.01-.17,12.1-.27,17.65-.27,4.95,0,7.75,3.13,5.61,6.87-1.87,3.24-3.85,6.38-6.1,9.35,4.56,2.75,11.55,7.37,14.08,10.89,2.2,3.08-1.92,7.37-4.51,4.12-2.7-3.35-8.36-8.36-12.87-11.05-4.84,5.39-10.78,9.84-18.31,12.7Z"/>
        <path class="cls-1" d="M323.48,86.12c-2.04,0-3.08-1.48-3.08-2.97s1.04-2.97,3.08-2.97h41.74c1.98,0,2.92,1.48,2.92,2.91,0,1.54-.99,3.02-2.92,3.02h-41.74Z"/>
        <path class="cls-1" d="M399.98,98.71c-1.43,0-2.8-.06-4.18-.06.66.44,1.1,1.1,1.1,1.87,0,2.91-9.02,7.53-18.42,7.59-1.87,0-2.8-1.21-2.8-2.42s.83-2.25,2.58-2.25h.27c5.44,0,11.05-1.98,13.42-4.23.28-.27.55-.44.83-.6-1.1,0-2.09-.05-3.13-.05-3.74-.06-5.72-1.87-5.88-4.29-.05-1.54-.11-3.3-.11-4.95s.06-3.41.11-4.78c.11-1.98,1.65-4.07,5.72-4.12,2.75-.06,5.66-.06,8.58-.06,3.63,0,7.31,0,11.11.11,3.13.06,5.33,1.92,5.5,3.79.17,1.48.22,3.24.22,5s-.06,3.46-.22,5c-.17,2.25-2.36,4.29-5.77,4.34-1.21,0-2.42.06-3.68.06-.06.71-.06,1.43-.06,2.2.11,1.87,1.82,2.09,5.39,2.09,5.39,0,7.09-1.04,7.09-3.9,0-1.65,1.27-2.42,2.58-2.42s2.92.71,2.92,2.69c0,6.93-5.77,7.81-12.59,7.81-5.17,0-10.56,0-10.56-5.11v-3.3ZM398.27,75.39c1.16,0,1.76.88,1.76,1.7,0,.88-.6,1.7-1.81,1.76-1.32.06-4.29.11-7.31.11-3.74,0-7.53-.05-8.63-.11-2.64-.17-4.51-1.38-4.62-4.12-.11-2.03-.17-3.85-.17-5.61s.05-3.52.17-5.44c.11-2.31,2.09-3.85,4.56-3.85h15.78c1.21,0,1.81.88,1.81,1.7,0,.88-.6,1.7-1.87,1.76h-6.32v1.98c1.32,0,2.37.05,3.03.05,3.46.17,3.57,1.71,3.57,4.34s-.71,3.57-6.6,3.57v2.25c2.86,0,5.55-.06,6.6-.11h.05ZM394.15,68.79c-.05-.55-.33-.77-1.1-.83h-11v2.42c2.92,0,8.8,0,10.78-.06.99-.06,1.27-.22,1.32-.82v-.71ZM387.38,63.29h-3.74c-.88.06-1.43.22-1.48,1.21l-.06.77h5.28v-1.98ZM387.38,73.3c-1.92,0-3.85,0-5.28-.06l.06,1.04c.05,1.21.55,1.21,5.22,1.21v-2.2ZM409.88,88.43h-21.5v2.09h21.5v-2.09ZM409.77,85.62c-.06-1.15-.55-1.7-2.31-1.76-3.08-.06-6.76-.11-10.34-.11-2.2,0-4.4,0-6.32.05-1.65.06-2.25.88-2.31,1.81v.17h21.28v-.17ZM409.82,93.16h-21.34v.28c.05,1.87.5,1.92,11.93,1.92,8.25,0,9.18,0,9.35-1.92l.05-.28ZM405.92,68.13c-2.14,2.91-2.97,3.9-4.34,3.9-1.26,0-2.53-.88-2.53-2.03,0-.44.22-.88.6-1.32,2.42-2.58,4.18-5.28,5.55-8.63.33-.88,1.15-1.21,1.98-1.21,1.32,0,2.8.94,2.8,2.25,0,.22-.05.5-.17.77-.33.71-.71,1.43-1.16,2.14l11.6-.05c1.49,0,2.2,1.04,2.2,2.09,0,1.1-.71,2.15-2.2,2.15l-14.35-.06ZM403.83,77.43c-1.54,0-2.31-1.1-2.31-2.15s.77-2.09,2.31-2.09h15.51c1.48,0,2.2,1.04,2.2,2.09,0,1.1-.71,2.15-2.2,2.15h-15.51Z"/>
      </g>
    </g>
  </g>
</svg>