<?xml version="1.0" encoding="UTF-8"?>
<svg id="Layer_2" data-name="Layer 2" xmlns="http://www.w3.org/2000/svg" viewBox="0 0 113.05 112.54">
  <defs>
    <style>
      .cls-1, .cls-2 {
        stroke-width: 0px;
      }

      .cls-1, .cls-3, .cls-4 {
        fill: #b37474;
      }

      .cls-2, .cls-5, .cls-6 {
        fill: #665151;
      }

      .cls-3, .cls-4, .cls-5, .cls-6 {
        font-family: KGTheLastTime, 'KG The Last Time';
      }

      .cls-3, .cls-5 {
        font-size: 7.72px;
        letter-spacing: .08em;
      }

      .cls-4, .cls-6 {
        font-size: 32.16px;
        letter-spacing: .04em;
      }
    </style>
  </defs>
  <g id="object">
    <g>
      <g>
        <g>
          <path class="cls-1" d="M61.82,62.32c-11.98,0-20.92-1.53-27.32-4.66-8.04-3.94-12.12-10.47-12.12-19.41,0-18.55,17.69-33.64,39.44-33.64,1.18,0,2.13.96,2.13,2.13s-.96,2.13-2.13,2.13c-19.39,0-35.17,13.17-35.17,29.37,0,17.75,20.07,19.81,35.17,19.81,31.53,0,35.17-11.3,35.17-19.81,0-7.52-3.41-14.68-9.6-20.15-.88-.78-.97-2.13-.19-3.01.78-.88,2.13-.97,3.01-.19,7.12,6.3,11.04,14.59,11.04,23.35s-4.08,15.47-12.12,19.41c-6.4,3.14-15.34,4.66-27.32,4.66Z"/>
          <g>
            <path class="cls-1" d="M60.39,18.44c-1.18,0-2.13-.96-2.13-2.13,0-8.12,2.87-16.31,9.29-16.31,4.49,0,9.29,4.05,9.29,15.42,0,1.18-.96,2.13-2.13,2.13s-2.13-.96-2.13-2.13c0-6.78-1.97-11.16-5.02-11.16-2.43,0-5.02,4.22-5.02,12.04,0,1.18-.96,2.13-2.13,2.13Z"/>
            <path class="cls-1" d="M89,18.44c-1.18,0-2.13-.96-2.13-2.13,0-7.82-2.59-12.04-5.02-12.04-3.05,0-5.02,4.38-5.02,11.16,0,1.18-.96,2.13-2.13,2.13s-2.13-.96-2.13-2.13c0-11.37,4.8-15.42,9.29-15.42,6.42,0,9.29,8.19,9.29,16.31,0,1.18-.96,2.13-2.13,2.13Z"/>
          </g>
          <circle class="cls-1" cx="62.8" cy="25.7" r="2.73"/>
          <circle class="cls-1" cx="86.59" cy="25.7" r="2.73"/>
          <path class="cls-1" d="M5.85,54.56c-1.32,0-2.77-.23-4.39-.77-1.12-.37-1.73-1.58-1.36-2.7.37-1.12,1.58-1.73,2.7-1.36,2.62.87,4.47.66,6.27-.3-1.41-.6-2.53-1.65-3.18-2.88-1.42-2.68-.75-6.9,2.48-8.68,1.5-.83,3.24-1.01,4.9-.52,1.65.49,3.06,1.64,3.86,3.15.38.71.62,1.47.74,2.23,2.08-1.53,3.95-3.79,4.54-7.45.19-1.16,1.28-1.96,2.44-1.77,1.16.18,1.96,1.28,1.77,2.44-1.2,7.58-6.49,10.76-10.09,12.48-.59.92-1.36,1.79-2.3,2.57-2.27,1.89-4.86,3.53-8.38,3.53ZM11.43,41.37c-.35,0-.69.09-.99.26-1.12.62-1.13,2.26-.77,2.95.01.02,1.03,1.88,3.36.8l.4-.18c.38-1.02.3-1.97-.07-2.67-.27-.5-.74-.89-1.3-1.06-.21-.06-.42-.09-.63-.09Z"/>
          <path class="cls-1" d="M74.69,29.29c-6.16,0-11.15,4.07-11.15,9.09s4.99,6.97,11.15,6.97,11.15-1.95,11.15-6.97-4.99-9.09-11.15-9.09ZM72.02,38.62c-.79,2.05-2.05,2.73-3.13,2.35-1.08-.37-1.59-1.65-.79-3.7.79-2.05,2.65-4,3.64-3.66.99.34,1.08,2.96.28,5.01ZM80.5,40.98c-1.08.37-2.34-.3-3.13-2.35-.79-2.05-.7-4.67.28-5.01.99-.34,2.85,1.61,3.64,3.66.79,2.05.29,3.33-.79,3.7Z"/>
        </g>
        <g>
          <path class="cls-2" d="M61.82,62.32c-11.98,0-20.92-1.53-27.32-4.66-8.04-3.94-12.12-10.47-12.12-19.41,0-18.55,17.69-33.64,39.44-33.64,1.18,0,2.13.96,2.13,2.13s-.96,2.13-2.13,2.13c-19.39,0-35.17,13.17-35.17,29.37,0,17.75,20.07,19.81,35.17,19.81,31.53,0,35.17-11.3,35.17-19.81,0-7.52-3.41-14.68-9.6-20.15-.88-.78-.97-2.13-.19-3.01.78-.88,2.13-.97,3.01-.19,7.12,6.3,11.04,14.59,11.04,23.35s-4.08,15.47-12.12,19.41c-6.4,3.14-15.34,4.66-27.32,4.66Z"/>
          <g>
            <path class="cls-2" d="M60.39,18.44c-1.18,0-2.13-.96-2.13-2.13,0-8.12,2.87-16.31,9.29-16.31,4.49,0,9.29,4.05,9.29,15.42,0,1.18-.96,2.13-2.13,2.13s-2.13-.96-2.13-2.13c0-6.78-1.97-11.16-5.02-11.16-2.43,0-5.02,4.22-5.02,12.04,0,1.18-.96,2.13-2.13,2.13Z"/>
            <path class="cls-2" d="M89,18.44c-1.18,0-2.13-.96-2.13-2.13,0-7.82-2.59-12.04-5.02-12.04-3.05,0-5.02,4.38-5.02,11.16,0,1.18-.96,2.13-2.13,2.13s-2.13-.96-2.13-2.13c0-11.37,4.8-15.42,9.29-15.42,6.42,0,9.29,8.19,9.29,16.31,0,1.18-.96,2.13-2.13,2.13Z"/>
          </g>
          <circle class="cls-2" cx="62.8" cy="25.7" r="2.73"/>
          <circle class="cls-2" cx="86.59" cy="25.7" r="2.73"/>
          <path class="cls-2" d="M5.85,54.56c-1.32,0-2.77-.23-4.39-.77-1.12-.37-1.73-1.58-1.36-2.7.37-1.12,1.58-1.73,2.7-1.36,2.62.87,4.47.66,6.27-.3-1.41-.6-2.53-1.65-3.18-2.88-1.42-2.68-.75-6.9,2.48-8.68,1.5-.83,3.24-1.01,4.9-.52,1.65.49,3.06,1.64,3.86,3.15.38.71.62,1.47.74,2.23,2.08-1.53,3.95-3.79,4.54-7.45.19-1.16,1.28-1.96,2.44-1.77,1.16.18,1.96,1.28,1.77,2.44-1.2,7.58-6.49,10.76-10.09,12.48-.59.92-1.36,1.79-2.3,2.57-2.27,1.89-4.86,3.53-8.38,3.53ZM11.43,41.37c-.35,0-.69.09-.99.26-1.12.62-1.13,2.26-.77,2.95.01.02,1.03,1.88,3.36.8l.4-.18c.38-1.02.3-1.97-.07-2.67-.27-.5-.74-.89-1.3-1.06-.21-.06-.42-.09-.63-.09Z"/>
          <path class="cls-2" d="M74.69,29.29c-6.16,0-11.15,4.07-11.15,9.09s4.99,6.97,11.15,6.97,11.15-1.95,11.15-6.97-4.99-9.09-11.15-9.09ZM72.02,38.62c-.79,2.05-2.05,2.73-3.13,2.35-1.08-.37-1.59-1.65-.79-3.7.79-2.05,2.65-4,3.64-3.66.99.34,1.08,2.96.28,5.01ZM80.5,40.98c-1.08.37-2.34-.3-3.13-2.35-.79-2.05-.7-4.67.28-5.01.99-.34,2.85,1.61,3.64,3.66.79,2.05.29,3.33-.79,3.7Z"/>
        </g>
      </g>
      <g>
        <text class="cls-4" transform="translate(.08 91.37)"><tspan x="0" y="0">mipig</tspan></text>
        <text class="cls-6" transform="translate(.08 91.37)"><tspan x="0" y="0">mipig</tspan></text>
      </g>
      <g>
        <text class="cls-3" transform="translate(13.04 110.47)"><tspan x="0" y="0">MICRO PIG FARM </tspan></text>
        <text class="cls-5" transform="translate(13.04 110.47)"><tspan x="0" y="0">MICRO PIG FARM </tspan></text>
      </g>
    </g>
  </g>
</svg>