<?xml version="1.0" encoding="UTF-8"?>
<svg id="Layer_2" data-name="Layer 2" xmlns="http://www.w3.org/2000/svg" viewBox="0 0 354.39 96.89">
  <defs>
    <style>
      .cls-1 {
        fill: #fff;
        stroke-width: 0px;
      }
    </style>
  </defs>
  <g id="object">
    <g>
      <g>
        <path class="cls-1" d="M141.68,24.47c-.2-12.32-4.69-24.47-14.43-24.47-4.07,0-8.3,2.15-11.12,7.44-2.82-5.29-7.05-7.44-11.12-7.44-4.72,0-8.21,2.86-10.57,7.2-30.88.72-56.13,20.98-59.29,46.78-.13.28-.25.58-.3.9-.9,5.69-3.81,9.2-7.05,11.58-.18-1.2-.57-2.37-1.15-3.48-1.24-2.34-3.43-4.13-6-4.89-2.58-.77-5.29-.48-7.62.8-5.02,2.77-6.06,9.34-3.85,13.5,1.01,1.91,2.75,3.54,4.94,4.47-2.79,1.49-5.68,1.81-9.74.46-1.74-.57-3.62.37-4.19,2.11-.58,1.74.37,3.62,2.11,4.19,2.51.83,4.77,1.19,6.82,1.19,5.48,0,9.5-2.56,13.03-5.5,1.46-1.21,2.65-2.56,3.57-4,3.06-1.46,6.9-3.61,10.06-7.17,2.19,9.5,8.17,16.71,17.89,21.47,9.95,4.88,23.84,7.25,42.47,7.25s32.52-2.37,42.47-7.25c12.51-6.13,18.84-16.28,18.84-30.18,0-13.03-5.59-25.38-15.75-34.99ZM20.87,70.26l-.63.29c-3.62,1.67-5.2-1.22-5.22-1.25-.57-1.07-.54-3.62,1.19-4.58.48-.26,1.01-.4,1.55-.4.32,0,.65.05.97.14.88.26,1.61.86,2.03,1.64.58,1.09.69,2.57.1,4.16ZM96.12,90.25c-23.47,0-54.68-3.19-54.68-30.79,0-23.99,22.27-43.7,50.45-45.51-.89,3.55-1.32,7.48-1.32,11.4,0,1.83,1.49,3.32,3.32,3.32s3.32-1.49,3.32-3.32c0-12.16,4.02-18.71,7.8-18.71,4.74,0,7.8,6.81,7.8,17.34,0,1.83,1.49,3.32,3.32,3.32s3.32-1.49,3.32-3.32c0-10.54,3.06-17.34,7.81-17.34,3.68,0,7.56,6.2,7.78,17.7-.55,1.28-.26,2.82.84,3.79,9.63,8.51,14.93,19.64,14.93,31.33,0,13.22-5.67,30.79-54.68,30.79Z"/>
        <path class="cls-1" d="M101.87,39.95c0-2.35-1.9-4.25-4.25-4.25s-4.25,1.9-4.25,4.25,1.9,4.25,4.25,4.25,4.25-1.9,4.25-4.25Z"/>
        <path class="cls-1" d="M134.62,35.7c-2.35,0-4.25,1.9-4.25,4.25s1.9,4.25,4.25,4.25,4.25-1.9,4.25-4.25-1.9-4.25-4.25-4.25Z"/>
        <path class="cls-1" d="M116.13,45.54c-9.58,0-17.34,6.33-17.34,14.13s7.76,10.84,17.34,10.84,17.34-3.04,17.34-10.84-7.76-14.13-17.34-14.13ZM111.97,60.05c-1.23,3.19-3.19,4.24-4.87,3.66-1.68-.58-2.47-2.56-1.23-5.75,1.23-3.19,4.12-6.22,5.66-5.7,1.54.53,1.68,4.59.44,7.79ZM125.14,63.71c-1.68.58-3.64-.47-4.87-3.66-1.23-3.19-1.09-7.26.44-7.79,1.54-.53,4.42,2.51,5.66,5.7,1.23,3.19.45,5.17-1.23,5.75Z"/>
      </g>
      <g>
        <path class="cls-1" d="M210.31,39.12c-1.4.2-2.55.91-3.44,2.15-.9,1.24-1.56,2.92-2,5.05s-.68,4.69-.73,7.67.06,6.29.32,9.94l-11.47-.24c.03-.65.13-1.73.29-3.25.16-1.51.29-3.19.39-5.03s.12-3.74.07-5.71-.27-3.74-.66-5.32-1-2.85-1.83-3.81-1.96-1.38-3.39-1.25c-1.27.13-2.35.68-3.25,1.66-.9.98-1.66,2.48-2.29,4.52s-1.17,4.66-1.61,7.86-.82,7.1-1.15,11.69l-10.06-.88c.29-1.14.54-2.59.73-4.35s.33-3.68.39-5.76c.06-2.08.09-4.25.07-6.49-.02-2.25-.07-4.4-.15-6.47-.08-2.07-.2-3.97-.34-5.71s-.32-3.17-.51-4.27l10.6-.39c-.03.29-.05.72-.05,1.29s-.02,1-.05,1.29c.42-.36.93-.73,1.51-1.12s1.27-.74,2.05-1.05,1.69-.58,2.73-.81c1.04-.23,2.25-.34,3.61-.34,2.05-.03,3.85.35,5.4,1.15,1.55.8,2.89,1.88,4.03,3.25,1.43-1.56,3.2-2.77,5.3-3.61,2.1-.85,4.68-1.17,7.74-.98,2.44.16,4.53.87,6.27,2.12,1.74,1.25,3.21,2.86,4.39,4.81,1.19,1.95,2.13,4.14,2.83,6.57.7,2.42,1.24,4.91,1.61,7.45.37,2.54.6,5.01.68,7.42.08,2.41.09,4.56.02,6.45l-11.04.49c.13-1.89.2-3.87.2-5.93s-.07-4.08-.22-6.05-.39-3.84-.73-5.62-.79-3.3-1.34-4.59c-.55-1.29-1.24-2.28-2.05-2.98-.81-.7-1.77-.97-2.88-.81Z"/>
        <path class="cls-1" d="M235.92,64.08c.03-.36.11-.76.22-1.2.11-.44.23-1.03.34-1.76.11-.73.22-1.65.32-2.76.1-1.11.15-2.48.15-4.13s-.05-3.61-.15-5.91-.28-4.99-.54-8.08l11.23-.54c-.33,1.66-.56,3.54-.71,5.64s-.2,4.25-.15,6.45.2,4.36.46,6.49c.26,2.13.65,4.03,1.17,5.69l-12.35.1ZM236.16,33.02c0-1.2.27-2.21.81-3s1.21-1.4,2.03-1.81c.81-.41,1.69-.61,2.64-.61s1.82.2,2.64.61c.81.41,1.49,1.01,2.03,1.81s.81,1.8.81,3-.27,2.15-.81,2.93-1.21,1.37-2.03,1.76c-.81.39-1.69.59-2.64.59s-1.82-.2-2.64-.59c-.81-.39-1.49-.98-2.03-1.76s-.81-1.76-.81-2.93Z"/>
        <path class="cls-1" d="M266.7,30.04c-.07.2-.11.46-.15.78-.03.33-.07.67-.12,1.03-.05.36-.1.71-.15,1.05s-.09.61-.12.81c1.66-1.33,3.43-2.26,5.3-2.78,1.87-.52,3.74-.72,5.59-.59,2.51.2,4.69.78,6.54,1.76s3.38,2.21,4.57,3.69c1.19,1.48,2.05,3.15,2.59,5s.76,3.74.66,5.64-.52,3.76-1.27,5.57c-.75,1.81-1.81,3.43-3.17,4.88s-3.05,2.62-5.05,3.52-4.31,1.39-6.91,1.49c-1.56.07-3.13-.11-4.71-.54-1.58-.42-3.15-1.12-4.71-2.1v3.3c0,.86,0,1.79-.02,2.78-.02.99-.02,1.92-.02,2.78v3.3l-10.89-.93c.2-1.07.37-2.64.54-4.69.16-2.05.31-4.33.44-6.84.13-2.51.22-5.14.27-7.91.05-2.77.05-5.41,0-7.93s-.15-4.81-.32-6.86c-.16-2.05-.39-3.65-.68-4.79l11.82-1.42ZM267.19,46.74c-.07,1.82.25,3.3.95,4.42.7,1.12,1.6,1.93,2.71,2.42,1.11.49,2.3.67,3.59.54,1.29-.13,2.47-.54,3.56-1.22,1.09-.68,1.99-1.63,2.69-2.83.7-1.2,1-2.65.9-4.35-.1-1.63-.51-2.93-1.25-3.91s-1.63-1.68-2.69-2.1c-1.06-.42-2.19-.57-3.39-.44-1.2.13-2.32.5-3.34,1.12-1.03.62-1.9,1.46-2.61,2.54-.72,1.07-1.09,2.34-1.12,3.81Z"/>
        <path class="cls-1" d="M298.94,64.08c.03-.36.11-.76.22-1.2.11-.44.23-1.03.34-1.76.11-.73.22-1.65.32-2.76.1-1.11.15-2.48.15-4.13s-.05-3.61-.15-5.91-.28-4.99-.54-8.08l11.23-.54c-.33,1.66-.56,3.54-.71,5.64s-.2,4.25-.15,6.45.2,4.36.46,6.49c.26,2.13.65,4.03,1.17,5.69l-12.35.1ZM299.19,33.02c0-1.2.27-2.21.81-3,.54-.8,1.21-1.4,2.03-1.81.81-.41,1.69-.61,2.64-.61s1.82.2,2.64.61c.81.41,1.49,1.01,2.03,1.81s.81,1.8.81,3-.27,2.15-.81,2.93-1.21,1.37-2.03,1.76c-.81.39-1.69.59-2.64.59s-1.82-.2-2.64-.59c-.81-.39-1.49-.98-2.03-1.76-.54-.78-.81-1.76-.81-2.93Z"/>
        <path class="cls-1" d="M327.48,62.22c1.66.75,3.4,1.07,5.22.98,1.82-.1,3.52-.53,5.08-1.29s2.89-1.83,3.98-3.2c1.09-1.37,1.75-2.98,1.98-4.83-1.95,1.63-3.96,2.74-6.01,3.34s-4.03.83-5.93.68-3.7-.62-5.4-1.42c-1.69-.8-3.18-1.82-4.47-3.08-1.29-1.25-2.3-2.65-3.05-4.2-.75-1.55-1.14-3.15-1.17-4.81-.03-1.86.23-3.69.78-5.49.55-1.81,1.42-3.44,2.59-4.91s2.67-2.68,4.49-3.64c1.82-.96,4-1.54,6.54-1.73,1.86-.13,3.72.07,5.59.59,1.87.52,3.64,1.45,5.3,2.78,0-.33-.02-.69-.07-1.1s-.1-.81-.15-1.2-.11-.75-.2-1.07c-.08-.33-.14-.59-.17-.78l10.6-.68c.06,1.27.18,2.75.34,4.44.16,1.69.33,3.52.49,5.47.16,1.95.3,4,.42,6.13.11,2.13.15,4.24.12,6.32-.03,3.32-.39,6.28-1.07,8.89-.68,2.6-1.75,4.85-3.2,6.74-1.45,1.89-3.3,3.43-5.57,4.61-2.26,1.19-4.99,2.01-8.18,2.47-2.44.36-4.83.29-7.18-.22s-4.49-1.33-6.45-2.47l4.74-7.32ZM327.67,43.18c-.07,1.53.24,2.78.93,3.76s1.55,1.68,2.61,2.12c1.06.44,2.21.63,3.44.59,1.24-.05,2.38-.33,3.44-.83,1.06-.5,1.93-1.25,2.61-2.22s.99-2.15.93-3.52c-.07-1.24-.42-2.28-1.05-3.12-.63-.85-1.43-1.5-2.39-1.95-.96-.46-2.01-.7-3.15-.73-1.14-.03-2.21.16-3.22.59-1.01.42-1.9,1.07-2.66,1.95-.77.88-1.26,2-1.49,3.37Z"/>
      </g>
      <g>
        <path class="cls-1" d="M198.14,85.5s.02.09.07.24.13.35.22.59.2.52.32.84.25.64.38.98.26.68.38,1.01.24.65.34.94c.08-.21.16-.46.23-.73s.16-.57.23-.87.15-.61.23-.93.14-.6.21-.87.12-.51.16-.71.09-.37.12-.47h3.12c.05.18.11.43.18.76s.13.71.21,1.15.17.93.27,1.46.22,1.08.35,1.66.29,1.16.46,1.76.37,1.19.59,1.76l-2.84.47-.08-.53c-.04-.25-.07-.54-.12-.87s-.09-.69-.15-1.08-.12-.78-.18-1.18-.13-.78-.21-1.15-.15-.71-.23-1c-.1.25-.22.58-.35,1s-.26.84-.39,1.29-.26.88-.38,1.29-.23.76-.32,1.01l-2.29.16c-.08-.26-.17-.55-.29-.89s-.24-.68-.37-1.03-.27-.7-.4-1.05-.26-.67-.38-.96-.22-.54-.3-.74-.13-.34-.16-.41c-.05.31-.11.65-.15,1.02s-.09.74-.14,1.12-.09.76-.12,1.14-.07.73-.09,1.07-.04.64-.05.91,0,.5,0,.68l-2.73-.21c.27-1.17.48-2.21.64-3.1s.3-1.68.4-2.36.19-1.27.26-1.78.13-.95.21-1.34l3.12-.06Z"/>
        <path class="cls-1" d="M207.99,85.27c.15.05.38.09.71.12s.7.06,1.13.09.89.04,1.39.04.99,0,1.48-.03.96-.06,1.4-.11.83-.12,1.16-.21l-.05,2.53c-.3-.09-.67-.15-1.11-.19s-.92-.07-1.44-.08c-.02.34-.04.7-.05,1.08s-.02.76-.02,1.14,0,.77.02,1.15.04.74.07,1.07c.51-.05.98-.12,1.41-.21s.79-.2,1.08-.32l.14,2.74c-.26,0-.63-.02-1.11-.05s-1.05-.05-1.7-.07-1.38-.02-2.2,0-1.68.06-2.6.16l.09-2.47c.27.09.61.16,1.02.21s.84.09,1.31.11c.03-.47.05-1.07.06-1.79s0-1.62-.02-2.67c-.45.03-.86.07-1.24.11s-.71.09-.98.15v-2.5Z"/>
        <path class="cls-1" d="M224.87,91.64c-.11.37-.25.71-.43,1.02s-.4.59-.68.82-.61.42-.99.56-.84.21-1.36.22c-.76.02-1.42-.1-2-.34s-1.05-.56-1.44-.97-.67-.86-.86-1.38-.29-1.05-.3-1.59.08-1.08.26-1.6.46-.99.83-1.41.84-.75,1.39-1,1.21-.38,1.96-.39c.5,0,.95.06,1.34.17s.73.28,1.01.49.51.47.69.78.3.64.38,1.01l-2.03.56c-.02-.17-.07-.33-.15-.49s-.19-.28-.33-.39-.32-.18-.53-.22-.45-.04-.72.01c-.41.08-.75.24-1.01.49s-.45.54-.57.88-.17.69-.16,1.07.1.73.25,1.06.36.61.63.85.6.38.98.44c.48.06.87-.03,1.18-.28s.53-.61.66-1.08l2,.69Z"/>
        <path class="cls-1" d="M228.92,85.16c-.02.09-.04.21-.04.37s0,.28.01.37c.34-.26.69-.46,1.07-.6s.75-.23,1.13-.26.75,0,1.11.06.69.2,1,.37c.43.25.77.58,1.02,1s.4.86.44,1.33-.02.93-.19,1.39-.46.85-.88,1.17c-.23.18-.49.34-.77.47s-.57.24-.87.32c.4.52.75,1.02,1.05,1.51s.55.99.73,1.5l-2.52.07c-.15-.35-.32-.71-.5-1.07s-.39-.71-.61-1.04-.46-.64-.71-.93-.52-.53-.8-.72c0,.02,0,.13.01.32s.02.42.03.69.02.56.04.87.02.6.04.87.02.5.03.69.01.29.01.32l-2.58-.19c.05-.23.09-.55.14-.97s.09-.9.13-1.44.08-1.11.1-1.72.04-1.21.04-1.8,0-1.16-.04-1.69-.08-1-.15-1.39l2.54.13ZM229.22,88.11c-.03.28.03.51.19.7.16.18.36.32.6.4s.52.12.81.11.57-.07.83-.17.47-.25.64-.45.25-.43.25-.71-.08-.52-.24-.69-.36-.29-.6-.36-.5-.09-.77-.07-.54.09-.79.19-.46.25-.63.43-.27.39-.29.62Z"/>
        <path class="cls-1" d="M240.13,85.4c.71-.04,1.34.06,1.88.29s1,.56,1.37.97.65.88.84,1.42.3,1.08.31,1.65-.07,1.11-.23,1.65-.43,1.02-.77,1.45-.79.77-1.32,1.02-1.16.38-1.88.37c-.65,0-1.22-.13-1.72-.38s-.92-.57-1.26-.98-.6-.87-.79-1.38-.29-1.04-.3-1.58.04-1.07.19-1.59.38-.99.7-1.41.73-.76,1.22-1.03,1.08-.42,1.76-.45ZM240.32,92.26c.43,0,.78-.12,1.05-.38s.47-.56.6-.94.18-.78.18-1.22-.08-.84-.22-1.21-.33-.68-.59-.93-.56-.37-.92-.36c-.4,0-.73.14-1,.39s-.46.57-.59.94-.19.77-.19,1.21.06.83.19,1.2.32.67.56.92.55.37.91.37Z"/>
        <path class="cls-1" d="M253.43,85.48c-.02.11-.04.25-.04.41,0,.08,0,.15,0,.22s0,.12,0,.16c.37-.29.76-.51,1.17-.66s.83-.22,1.24-.22c.63,0,1.18.11,1.64.33s.84.51,1.14.87.52.76.67,1.21.22.89.22,1.34c0,.47-.1.92-.31,1.37s-.49.83-.84,1.17-.76.61-1.24.81-.97.3-1.51.3c-.4,0-.8-.07-1.22-.21s-.82-.35-1.23-.65c0,.02,0,.09.01.21s.02.26.02.42.02.33.03.52.02.36.03.52.02.3.02.42.01.19.01.21l-2.48-.02c.03-.2.06-.46.09-.77s.06-.66.08-1.05.04-.8.05-1.23.02-.87.02-1.32c0-.42,0-.84-.02-1.25s-.03-.8-.05-1.17-.05-.7-.09-1-.09-.55-.14-.74l2.71-.19ZM253.68,89.33c0,.23.04.44.13.61s.21.31.36.43.32.2.52.25.4.08.61.08c.23,0,.47-.04.7-.11s.44-.17.63-.31.33-.31.45-.51.18-.44.18-.7-.04-.5-.13-.69-.2-.36-.34-.48-.3-.22-.49-.28-.38-.09-.59-.09c-.23,0-.47.04-.71.12s-.45.2-.64.35-.35.34-.47.56-.19.48-.2.77Z"/>
        <path class="cls-1" d="M261.32,85.27c.15.05.38.09.71.12s.7.06,1.13.09.89.04,1.39.04.99,0,1.48-.03.96-.06,1.4-.11.83-.12,1.16-.21l-.05,2.53c-.3-.09-.67-.15-1.11-.19s-.92-.07-1.44-.08c-.02.34-.04.7-.05,1.08s-.02.76-.02,1.14,0,.77.02,1.15.04.74.07,1.07c.51-.05.98-.12,1.41-.21s.79-.2,1.08-.32l.14,2.74c-.26,0-.63-.02-1.11-.05s-1.05-.05-1.7-.07-1.38-.02-2.2,0-1.68.06-2.6.16l.09-2.47c.27.09.61.16,1.02.21s.84.09,1.31.11c.03-.47.05-1.07.06-1.79s0-1.62-.02-2.67c-.45.03-.86.07-1.24.11s-.71.09-.98.15v-2.5Z"/>
        <path class="cls-1" d="M278.47,89.34c.05,1.03-.03,1.89-.23,2.57s-.47,1.22-.83,1.62-.76.69-1.23.85c-.47.16-.95.25-1.44.25-.75,0-1.41-.14-1.97-.41s-1.03-.61-1.41-1.04-.66-.92-.84-1.47-.28-1.12-.29-1.69.09-1.14.27-1.69.46-1.04.83-1.47.83-.78,1.38-1.04,1.19-.4,1.93-.41c.5,0,.97.07,1.41.2s.82.33,1.15.59.6.58.81.97.35.82.41,1.32l-2.19.32c-.02-.17-.07-.35-.13-.54s-.16-.36-.28-.52-.27-.29-.46-.39-.4-.15-.65-.15c-.43,0-.79.12-1.08.36s-.51.55-.66.91-.23.77-.24,1.21.05.86.17,1.25.31.74.56,1.04.57.49.96.58c.14.03.31.04.51.04s.39-.05.57-.13.34-.21.47-.38.21-.4.22-.69c-.02,0-.09-.02-.22-.03s-.29-.02-.48-.04-.38-.02-.59-.01-.39.02-.56.05l.02-2.12c.09.02.28.06.55.12s.6.1.98.13.79.04,1.24.02.89-.08,1.34-.19Z"/>
        <path class="cls-1" d="M284.62,94.29c.05-.17.12-.51.21-1.03s.16-1.16.21-1.93.06-1.67.04-2.67-.13-2.07-.31-3.21c.52.09,1.08.16,1.68.19s1.19.05,1.8.04,1.2-.04,1.79-.1,1.15-.13,1.67-.23l.07,2.27c-.55-.08-1.06-.13-1.54-.15s-.91-.03-1.29-.02-.72.04-1,.07-.51.07-.67.11c-.02.18-.04.38-.06.62s-.04.47-.05.73c.55.02,1.08,0,1.61-.06s1.05-.14,1.56-.23l-.11,2.37c-.73-.19-1.34-.3-1.83-.34s-.92-.04-1.29.01c-.02.1-.02.25-.02.46s0,.43.02.67.03.5.06.76.06.5.09.72.07.4.11.55.08.23.12.25l-2.86.14Z"/>
        <path class="cls-1" d="M299.46,85.42c.09.38.23.8.4,1.28s.41,1.04.71,1.71.67,1.43,1.11,2.31.96,1.91,1.58,3.09l-2.46.55c-.07-.13-.19-.39-.36-.77s-.36-.83-.58-1.34c-.55-.05-1.14-.07-1.75-.06s-1.2.04-1.76.11c-.14.47-.26.89-.35,1.25s-.15.64-.17.82l-2.59-.39c.42-.99.81-1.94,1.18-2.85s.69-1.73.98-2.48.54-1.4.76-1.96.39-.99.53-1.29l2.78.02ZM298.07,87.67c-.17.35-.35.75-.52,1.18-.18.44-.35.89-.51,1.36.29.04.6.06.94.07s.7,0,1.08-.04c-.2-.49-.38-.96-.55-1.41s-.32-.84-.43-1.17Z"/>
        <path class="cls-1" d="M307.31,85.16c-.02.09-.04.21-.04.37s0,.28.01.37c.34-.26.69-.46,1.07-.6s.75-.23,1.13-.26.75,0,1.11.06.69.2,1,.37c.43.25.77.58,1.02,1s.4.86.44,1.33-.02.93-.19,1.39-.46.85-.88,1.17c-.23.18-.49.34-.77.47s-.57.24-.87.32c.4.52.75,1.02,1.05,1.51s.55.99.73,1.5l-2.52.07c-.15-.35-.32-.71-.5-1.07s-.39-.71-.61-1.04-.46-.64-.71-.93-.52-.53-.8-.72c0,.02,0,.13.01.32s.02.42.03.69.02.56.04.87.02.6.04.87.02.5.03.69.01.29.01.32l-2.58-.19c.05-.23.09-.55.14-.97s.09-.9.13-1.44.08-1.11.1-1.72.04-1.21.04-1.8,0-1.16-.04-1.69-.08-1-.15-1.39l2.54.13ZM307.6,88.11c-.03.28.03.51.19.7s.36.32.6.4.52.12.81.11.57-.07.83-.17.47-.25.64-.45.25-.43.25-.71-.08-.52-.24-.69-.36-.29-.6-.36-.5-.09-.77-.07-.54.09-.79.19-.46.25-.63.43-.27.39-.29.62Z"/>
        <path class="cls-1" d="M319.25,85.5s.02.09.07.24.13.35.22.59.2.52.32.84.25.64.38.98.26.68.38,1.01.24.65.34.94c.08-.21.16-.46.23-.73s.16-.57.23-.87.15-.61.23-.93.14-.6.21-.87.12-.51.16-.71c.05-.21.09-.37.12-.47h3.12c.05.18.11.43.18.76s.13.71.21,1.15.17.93.27,1.46.22,1.08.35,1.66c.13.57.29,1.16.46,1.76s.37,1.19.59,1.76l-2.84.47-.08-.53c-.04-.25-.07-.54-.12-.87s-.09-.69-.15-1.08-.12-.78-.18-1.18-.13-.78-.21-1.15-.15-.71-.23-1c-.1.25-.22.58-.35,1s-.26.84-.39,1.29-.26.88-.38,1.29-.23.76-.32,1.01l-2.29.16c-.08-.26-.17-.55-.29-.89s-.24-.68-.37-1.03c-.13-.35-.27-.7-.4-1.05s-.26-.67-.38-.96-.22-.54-.3-.74-.13-.34-.16-.41c-.05.31-.11.65-.15,1.02s-.09.74-.14,1.12-.09.76-.12,1.14-.07.73-.09,1.07-.04.64-.05.91,0,.5,0,.68l-2.73-.21c.27-1.17.48-2.21.64-3.1s.3-1.68.4-2.36.19-1.27.26-1.78.13-.95.21-1.34l3.12-.06Z"/>
      </g>
    </g>
  </g>
</svg>