<?xml version="1.0" encoding="UTF-8"?>
<svg id="Layer_2" data-name="Layer 2" xmlns="http://www.w3.org/2000/svg" viewBox="0 0 119.66 110.71">
  <defs>
    <style>
      .cls-1 {
        fill: #665151;
        stroke-width: 0px;
      }
    </style>
  </defs>
  <g id="object">
    <g>
      <g>
        <path class="cls-1" d="M94.77,15.83c-.13-7.97-3.03-15.83-9.34-15.83-2.63,0-5.37,1.39-7.2,4.81-1.83-3.42-4.56-4.81-7.2-4.81-3.06,0-5.31,1.85-6.84,4.66-19.98.46-36.32,13.58-38.37,30.27-.09.18-.16.38-.19.59-.58,3.68-2.47,5.96-4.56,7.5-.12-.77-.37-1.53-.75-2.25-.8-1.52-2.22-2.67-3.88-3.17-1.67-.5-3.42-.31-4.93.52-3.25,1.79-3.92,6.04-2.49,8.74.65,1.23,1.78,2.29,3.2,2.89-1.81.96-3.67,1.17-6.3.3-1.13-.37-2.34.24-2.71,1.36-.37,1.13.24,2.34,1.36,2.71,1.63.54,3.09.77,4.41.77,3.55,0,6.15-1.65,8.43-3.56.94-.78,1.72-1.66,2.31-2.59,1.98-.95,4.46-2.34,6.51-4.64,1.42,6.15,5.28,10.81,11.58,13.9,6.44,3.16,15.43,4.69,27.49,4.69s21.05-1.53,27.49-4.69c8.09-3.97,12.2-10.54,12.2-19.53,0-8.43-3.62-16.42-10.2-22.65ZM16.59,45.47l-.41.19c-2.34,1.08-3.37-.79-3.38-.81-.37-.69-.35-2.34.77-2.97.31-.17.65-.26,1-.26.21,0,.42.03.63.09.57.17,1.04.56,1.31,1.06.37.7.45,1.66.07,2.69ZM65.28,58.41c-15.19,0-35.39-2.07-35.39-19.93,0-15.52,14.41-28.28,32.65-29.45-.58,2.3-.86,4.84-.86,7.38,0,1.19.96,2.15,2.15,2.15s2.15-.96,2.15-2.15c0-7.87,2.6-12.11,5.05-12.11,3.07,0,5.05,4.41,5.05,11.22,0,1.19.96,2.15,2.15,2.15s2.15-.96,2.15-2.15c0-6.82,1.98-11.22,5.05-11.22,2.38,0,4.89,4.02,5.04,11.45-.36.83-.17,1.82.54,2.45,6.23,5.51,9.66,12.71,9.66,20.28,0,8.55-3.67,19.93-35.39,19.93Z"/>
        <path class="cls-1" d="M69.01,25.85c0-1.52-1.23-2.75-2.75-2.75s-2.75,1.23-2.75,2.75,1.23,2.75,2.75,2.75,2.75-1.23,2.75-2.75Z"/>
        <path class="cls-1" d="M90.2,23.1c-1.52,0-2.75,1.23-2.75,2.75s1.23,2.75,2.75,2.75,2.75-1.23,2.75-2.75-1.23-2.75-2.75-2.75Z"/>
        <path class="cls-1" d="M78.23,29.47c-6.2,0-11.22,4.09-11.22,9.15s5.02,7.02,11.22,7.02,11.22-1.96,11.22-7.02-5.02-9.15-11.22-9.15ZM75.54,38.86c-.8,2.07-2.06,2.74-3.15,2.37s-1.6-1.66-.8-3.72c.8-2.07,2.67-4.03,3.66-3.69.99.34,1.09,2.97.29,5.04ZM84.07,41.23c-1.09.37-2.35-.3-3.15-2.37-.8-2.07-.71-4.7.29-5.04s2.86,1.62,3.66,3.69c.8,2.07.29,3.35-.8,3.72Z"/>
      </g>
      <g>
        <path class="cls-1" d="M26.42,76.73c-.91.13-1.65.59-2.23,1.39-.58.8-1.01,1.89-1.3,3.27s-.44,3.03-.47,4.96.04,4.07.21,6.43l-7.43-.16c.02-.42.08-1.12.19-2.1.11-.98.19-2.06.25-3.25s.08-2.42.05-3.7-.17-2.42-.43-3.44-.65-1.84-1.18-2.46-1.27-.89-2.2-.81c-.82.08-1.52.44-2.1,1.07-.58.63-1.07,1.61-1.49,2.92s-.76,3.01-1.04,5.09-.53,4.6-.74,7.57l-6.51-.57c.19-.74.35-1.67.47-2.81s.21-2.38.25-3.73c.04-1.35.06-2.75.05-4.2-.01-1.45-.04-2.85-.09-4.19-.05-1.34-.13-2.57-.22-3.7s-.21-2.05-.33-2.76l6.86-.25c-.02.19-.03.47-.03.84s-.01.65-.03.84c.27-.23.6-.47.98-.73s.82-.48,1.33-.68,1.1-.37,1.77-.52c.67-.15,1.45-.22,2.34-.22,1.33-.02,2.49.23,3.49.74,1,.52,1.87,1.22,2.61,2.1.93-1.01,2.07-1.79,3.43-2.34,1.36-.55,3.03-.76,5.01-.63,1.58.11,2.93.56,4.06,1.37,1.13.81,2.07,1.85,2.84,3.11.77,1.26,1.38,2.68,1.83,4.25.45,1.57.8,3.18,1.04,4.82.24,1.64.39,3.24.44,4.8.05,1.56.06,2.95.02,4.17l-7.14.32c.08-1.22.13-2.5.13-3.84s-.05-2.64-.14-3.92-.25-2.49-.47-3.63-.51-2.14-.87-2.97c-.36-.83-.8-1.47-1.33-1.93-.53-.45-1.15-.63-1.86-.52Z"/>
        <path class="cls-1" d="M42.99,92.88c.02-.23.07-.49.14-.77.07-.28.15-.66.22-1.14.07-.47.14-1.07.21-1.79.06-.72.09-1.61.09-2.67s-.03-2.34-.09-3.82-.18-3.23-.35-5.23l7.27-.35c-.21,1.07-.36,2.29-.46,3.65s-.13,2.75-.09,4.17.13,2.82.3,4.2c.17,1.38.42,2.61.76,3.68l-7.99.06ZM43.14,72.78c0-.78.17-1.43.52-1.94s.78-.91,1.31-1.17c.53-.26,1.1-.39,1.71-.39s1.18.13,1.71.39c.53.26.96.65,1.31,1.17s.52,1.16.52,1.94-.17,1.39-.52,1.9-.78.88-1.31,1.14c-.53.25-1.1.38-1.71.38s-1.18-.13-1.71-.38c-.53-.25-.96-.63-1.31-1.14s-.52-1.14-.52-1.9Z"/>
        <path class="cls-1" d="M62.91,70.86c-.04.13-.07.3-.09.51-.02.21-.05.43-.08.66-.03.23-.06.46-.09.68s-.06.39-.08.52c1.07-.86,2.22-1.46,3.43-1.8,1.21-.34,2.42-.46,3.62-.38,1.62.13,3.03.51,4.23,1.14s2.19,1.43,2.95,2.39c.77.96,1.33,2.04,1.67,3.24s.49,2.42.43,3.65-.34,2.43-.82,3.6c-.48,1.17-1.17,2.22-2.05,3.16s-1.97,1.7-3.27,2.28-2.79.9-4.47.96c-1.01.04-2.03-.07-3.05-.35-1.02-.27-2.04-.73-3.05-1.36v2.13c0,.56,0,1.16-.02,1.8-.01.64-.02,1.24-.02,1.8v2.13l-7.05-.6c.13-.7.24-1.71.35-3.03.11-1.33.2-2.8.28-4.42.08-1.62.14-3.33.17-5.12.03-1.79.03-3.5,0-5.13s-.1-3.11-.21-4.44c-.11-1.33-.25-2.36-.44-3.1l7.65-.92ZM63.22,81.66c-.04,1.18.16,2.13.62,2.86.45.73,1.04,1.25,1.75,1.56.72.32,1.49.43,2.32.35.83-.08,1.6-.35,2.31-.79.71-.44,1.28-1.05,1.74-1.83.45-.78.65-1.72.58-2.81-.06-1.05-.33-1.9-.81-2.53s-1.05-1.08-1.74-1.36c-.68-.27-1.42-.37-2.2-.28-.78.08-1.5.33-2.16.73-.66.4-1.23.95-1.69,1.64-.46.7-.71,1.52-.73,2.46Z"/>
        <path class="cls-1" d="M83.77,92.88c.02-.23.07-.49.14-.77.07-.28.15-.66.22-1.14.07-.47.14-1.07.21-1.79.06-.72.09-1.61.09-2.67s-.03-2.34-.09-3.82-.18-3.23-.35-5.23l7.27-.35c-.21,1.07-.36,2.29-.46,3.65s-.13,2.75-.09,4.17.13,2.82.3,4.2c.17,1.38.42,2.61.76,3.68l-7.99.06ZM83.93,72.78c0-.78.17-1.43.52-1.94.35-.52.78-.91,1.31-1.17.53-.26,1.1-.39,1.71-.39s1.18.13,1.71.39c.53.26.96.65,1.31,1.17s.52,1.16.52,1.94-.17,1.39-.52,1.9-.78.88-1.31,1.14c-.53.25-1.1.38-1.71.38s-1.18-.13-1.71-.38c-.53-.25-.96-.63-1.31-1.14-.35-.51-.52-1.14-.52-1.9Z"/>
        <path class="cls-1" d="M102.24,91.68c1.07.48,2.2.7,3.38.63,1.18-.06,2.28-.34,3.29-.84s1.87-1.18,2.58-2.07c.71-.88,1.13-1.93,1.28-3.13-1.26,1.05-2.56,1.77-3.89,2.16s-2.61.54-3.84.44-2.4-.4-3.49-.92c-1.1-.52-2.06-1.18-2.89-1.99-.83-.81-1.49-1.72-1.97-2.72-.48-1-.74-2.04-.76-3.11-.02-1.2.15-2.39.51-3.55.36-1.17.92-2.23,1.67-3.18s1.73-1.73,2.91-2.35c1.18-.62,2.59-1,4.23-1.12,1.2-.08,2.41.04,3.62.38,1.21.34,2.35.94,3.43,1.8,0-.21-.02-.45-.05-.71s-.06-.52-.09-.77-.07-.48-.13-.7c-.05-.21-.09-.38-.11-.51l6.86-.44c.04.82.12,1.78.22,2.88.1,1.1.21,2.28.32,3.54.1,1.26.19,2.59.27,3.97.07,1.38.1,2.74.08,4.09-.02,2.15-.25,4.07-.7,5.75-.44,1.69-1.13,3.14-2.07,4.36-.94,1.22-2.14,2.22-3.6,2.99-1.46.77-3.23,1.3-5.29,1.6-1.58.23-3.13.18-4.64-.14s-2.91-.86-4.17-1.6l3.07-4.74ZM102.37,79.36c-.04.99.16,1.8.6,2.43s1.01,1.09,1.69,1.37c.68.28,1.43.41,2.23.38.8-.03,1.54-.21,2.23-.54.68-.33,1.25-.81,1.69-1.44s.64-1.39.6-2.28c-.04-.8-.27-1.47-.68-2.02-.41-.55-.93-.97-1.55-1.26-.62-.29-1.3-.45-2.04-.47-.74-.02-1.43.11-2.09.38-.65.27-1.23.7-1.72,1.26-.5.57-.82,1.3-.96,2.18Z"/>
      </g>
      <g>
        <path class="cls-1" d="M18.54,104.8s.01.06.05.16.08.23.14.38.13.34.21.54.16.42.25.64.17.44.25.66.15.42.22.61c.05-.14.1-.29.15-.47s.1-.37.15-.56.1-.4.15-.6.09-.39.13-.56.08-.33.11-.46.06-.24.08-.31h2.02c.04.12.07.28.11.49s.09.46.14.75.11.6.17.94.14.7.23,1.07.18.75.3,1.14.24.77.38,1.14l-1.84.3-.05-.35c-.02-.16-.05-.35-.08-.56s-.06-.45-.1-.7-.08-.51-.12-.76-.08-.5-.13-.74-.1-.46-.15-.65c-.07.16-.14.38-.22.64s-.17.55-.25.83-.17.57-.25.84-.15.49-.2.66l-1.48.11c-.05-.17-.11-.36-.19-.58s-.15-.44-.24-.67-.17-.45-.26-.68-.17-.43-.24-.62-.14-.35-.19-.48-.09-.22-.1-.27c-.04.2-.07.42-.1.66s-.06.48-.09.73-.06.49-.08.74-.04.47-.06.69-.03.41-.03.59,0,.32,0,.44l-1.77-.14c.17-.76.31-1.43.42-2.01s.19-1.09.26-1.53.12-.82.17-1.15.09-.62.13-.87l2.02-.04Z"/>
        <path class="cls-1" d="M24.91,104.65c.1.03.25.06.46.08s.45.04.73.06.58.02.9.03.64,0,.96-.02.62-.04.91-.07.54-.08.75-.13l-.03,1.64c-.19-.06-.43-.1-.72-.13s-.6-.04-.93-.05c-.02.22-.03.46-.03.7s-.01.49-.01.74,0,.5.02.74.03.48.05.69c.33-.03.63-.07.91-.13s.51-.13.7-.21l.09,1.77c-.17,0-.41-.01-.72-.03s-.68-.04-1.1-.05-.9-.01-1.42,0-1.09.04-1.68.1l.06-1.6c.18.06.4.1.66.14s.55.06.85.07c.02-.3.03-.69.04-1.16s0-1.05-.01-1.73c-.29.02-.55.04-.8.07s-.46.06-.63.09v-1.62Z"/>
        <path class="cls-1" d="M35.84,108.78c-.07.24-.16.46-.28.66s-.26.38-.44.53-.39.27-.64.36-.54.14-.88.14c-.49.01-.92-.06-1.29-.22s-.68-.37-.93-.63-.43-.56-.56-.89-.19-.68-.19-1.03.05-.7.17-1.04.3-.64.54-.91.54-.48.9-.64.78-.25,1.27-.25c.32,0,.61.04.86.11s.47.18.65.32.33.31.44.5.2.41.25.65l-1.31.36c-.02-.11-.05-.22-.1-.31s-.12-.18-.22-.25-.21-.12-.34-.14-.29-.02-.47,0c-.27.05-.49.16-.66.32s-.29.35-.37.57-.11.45-.1.69.06.47.16.69.23.4.41.55.39.25.63.28c.31.04.56-.02.76-.18s.34-.39.43-.7l1.3.45Z"/>
        <path class="cls-1" d="M38.46,104.58c-.02.06-.02.14-.02.24s0,.18,0,.24c.22-.17.45-.3.69-.39s.49-.15.73-.17.48,0,.72.04.45.13.64.24c.28.16.5.38.66.65s.26.56.28.86-.01.6-.13.9-.3.55-.57.75c-.15.12-.32.22-.5.3s-.37.15-.56.2c.26.33.49.66.68.98s.35.64.47.97l-1.63.05c-.1-.23-.2-.46-.33-.69s-.25-.46-.39-.67-.29-.41-.46-.6-.34-.34-.52-.47c0,.02,0,.08,0,.2s.01.27.02.44.02.36.02.56.02.39.02.56.01.32.02.44,0,.19,0,.2l-1.67-.12c.03-.15.06-.36.09-.63s.06-.58.09-.93.05-.72.06-1.11.02-.78.03-1.16,0-.75-.03-1.1-.05-.65-.1-.9l1.65.08ZM38.65,106.5c-.02.18.02.33.12.45.1.12.23.21.39.26s.33.08.52.07.37-.04.53-.11.3-.16.41-.29.16-.28.16-.46-.05-.34-.16-.45-.23-.19-.39-.24-.32-.06-.5-.05-.35.06-.51.13-.29.16-.41.28-.17.25-.19.4Z"/>
        <path class="cls-1" d="M45.72,104.74c.46-.03.87.04,1.22.19s.65.36.88.63.42.57.55.92.19.7.2,1.07-.04.72-.15,1.07-.28.66-.5.94-.51.5-.85.66-.75.24-1.21.24c-.42,0-.79-.09-1.11-.25s-.6-.37-.82-.63-.39-.56-.51-.89-.18-.67-.2-1.02.03-.69.12-1.03.24-.64.45-.91.47-.49.79-.67.7-.27,1.14-.29ZM45.84,109.18c.28,0,.51-.08.68-.24s.31-.36.39-.61.12-.51.11-.79-.05-.54-.14-.78-.21-.44-.38-.6-.36-.24-.6-.23c-.26,0-.47.09-.64.25s-.3.37-.38.61-.12.5-.12.78.04.54.13.78.2.44.36.6.36.24.59.24Z"/>
        <path class="cls-1" d="M54.32,104.79c-.02.07-.02.16-.02.27,0,.05,0,.1,0,.14s0,.08,0,.1c.24-.19.49-.33.76-.42s.54-.14.8-.14c.41,0,.76.07,1.06.22s.54.33.74.56.34.49.43.78.14.58.14.86c0,.3-.07.6-.2.88s-.31.54-.54.76-.49.4-.8.53-.63.2-.97.2c-.26,0-.52-.04-.79-.13s-.53-.23-.8-.42c0,.02,0,.06,0,.14s.01.17.02.27.01.21.02.33.01.23.02.33.01.19.02.27,0,.12,0,.14l-1.61-.02c.02-.13.04-.3.06-.5s.04-.43.05-.68.02-.52.03-.8.01-.56.01-.85c0-.27,0-.54-.01-.81s-.02-.52-.03-.75-.04-.45-.06-.64-.06-.36-.09-.48l1.75-.12ZM54.48,107.28c0,.15.03.28.09.39s.14.2.23.28.21.13.33.16.26.05.39.05c.15,0,.3-.02.46-.07s.29-.11.41-.2.22-.2.29-.33.11-.28.11-.46-.03-.32-.08-.45-.13-.23-.22-.31-.2-.14-.32-.18-.25-.06-.38-.06c-.15,0-.3.03-.46.08s-.29.13-.42.23-.23.22-.31.36-.12.31-.13.5Z"/>
        <path class="cls-1" d="M59.43,104.65c.1.03.25.06.46.08s.45.04.73.06.58.02.9.03.64,0,.96-.02.62-.04.91-.07.54-.08.75-.13l-.03,1.64c-.19-.06-.43-.1-.72-.13s-.6-.04-.93-.05c-.02.22-.03.46-.03.7s-.01.49-.01.74,0,.5.02.74.03.48.05.69c.33-.03.63-.07.91-.13s.51-.13.7-.21l.09,1.77c-.17,0-.41-.01-.72-.03s-.68-.04-1.1-.05-.9-.01-1.42,0-1.09.04-1.68.1l.06-1.6c.18.06.4.1.66.14s.55.06.85.07c.02-.3.03-.69.04-1.16s0-1.05-.01-1.73c-.29.02-.55.04-.8.07s-.46.06-.63.09v-1.62Z"/>
        <path class="cls-1" d="M70.53,107.29c.03.67-.02,1.22-.15,1.66s-.31.79-.53,1.05-.49.44-.8.55c-.3.11-.61.16-.93.16-.49,0-.91-.09-1.27-.27s-.67-.4-.91-.67-.42-.6-.55-.95-.18-.72-.19-1.1.06-.74.17-1.1.3-.67.54-.95.54-.5.89-.67.77-.26,1.25-.27c.32,0,.63.04.91.13s.53.21.74.38.39.38.52.63.22.53.27.86l-1.42.2c-.02-.11-.04-.23-.09-.35s-.1-.23-.18-.33-.18-.18-.3-.25-.26-.1-.42-.1c-.28,0-.51.08-.7.24s-.33.35-.43.59-.15.5-.16.78.03.56.11.81.2.48.36.67.37.32.62.38c.09.02.2.03.33.02s.25-.03.37-.09.22-.13.31-.24.13-.26.14-.44c-.01,0-.06-.01-.14-.02s-.19-.02-.31-.02-.25-.01-.38,0-.25.01-.36.03l.02-1.37c.06.02.18.04.36.08s.39.06.63.08.51.03.8.02.58-.05.86-.12Z"/>
        <path class="cls-1" d="M74.51,110.49c.03-.11.07-.33.13-.66s.1-.75.14-1.25.04-1.08.02-1.73-.08-1.34-.2-2.08c.34.06.7.1,1.08.13s.77.03,1.16.03.78-.03,1.16-.06.74-.09,1.08-.15l.05,1.47c-.35-.05-.69-.08-.99-.1s-.59-.02-.83-.01-.46.02-.65.05-.33.05-.44.07c-.02.12-.03.25-.04.4s-.02.31-.03.47c.35.02.7,0,1.04-.04s.68-.09,1.01-.15l-.07,1.53c-.47-.12-.86-.19-1.18-.22s-.6-.02-.83,0c-.01.07-.02.16-.02.3s0,.28.01.44.02.32.04.49.04.32.06.47.05.26.07.36.05.15.08.16l-1.85.09Z"/>
        <path class="cls-1" d="M84.11,104.75c.06.24.15.52.26.83s.26.68.46,1.1.43.93.72,1.5.62,1.24,1.02,2l-1.59.36c-.05-.09-.12-.25-.23-.5s-.23-.53-.38-.87c-.36-.03-.74-.04-1.13-.04s-.78.03-1.14.07c-.09.3-.17.57-.22.81s-.09.41-.11.53l-1.68-.25c.27-.64.53-1.26.76-1.84s.45-1.12.63-1.61.35-.91.49-1.27.26-.64.34-.84l1.8.02ZM83.21,106.21c-.11.23-.22.48-.34.77-.11.28-.22.58-.33.88.19.03.39.04.61.05s.45,0,.7-.02c-.13-.32-.25-.62-.36-.91s-.2-.54-.28-.76Z"/>
        <path class="cls-1" d="M89.19,104.58c-.02.06-.02.14-.02.24s0,.18,0,.24c.22-.17.45-.3.69-.39s.49-.15.73-.17.48,0,.72.04.45.13.64.24c.28.16.5.38.66.65s.26.56.28.86-.01.6-.13.9-.3.55-.57.75c-.15.12-.32.22-.5.3s-.37.15-.56.2c.26.33.49.66.68.98s.35.64.47.97l-1.63.05c-.1-.23-.2-.46-.33-.69s-.25-.46-.39-.67-.29-.41-.46-.6-.34-.34-.52-.47c0,.02,0,.08,0,.2s.01.27.02.44.02.36.02.56.02.39.02.56.01.32.02.44,0,.19,0,.2l-1.67-.12c.03-.15.06-.36.09-.63s.06-.58.09-.93.05-.72.06-1.11.02-.78.03-1.16,0-.75-.03-1.1-.05-.65-.1-.9l1.65.08ZM89.38,106.5c-.02.18.02.33.12.45s.23.21.39.26.33.08.52.07.37-.04.53-.11.3-.16.41-.29.16-.28.16-.46-.05-.34-.16-.45-.23-.19-.39-.24-.32-.06-.5-.05-.35.06-.51.13-.29.16-.41.28-.17.25-.19.4Z"/>
        <path class="cls-1" d="M96.92,104.8s.01.06.05.16.08.23.14.38.13.34.21.54.16.42.25.64.17.44.25.66.15.42.22.61c.05-.14.1-.29.15-.47s.1-.37.15-.56.1-.4.15-.6.09-.39.13-.56.08-.33.11-.46c.03-.13.06-.24.08-.31h2.02c.04.12.07.28.11.49s.09.46.14.75.11.6.17.94.14.7.23,1.07c.09.37.18.75.3,1.14s.24.77.38,1.14l-1.84.3-.05-.35c-.02-.16-.05-.35-.08-.56s-.06-.45-.1-.7-.08-.51-.12-.76-.08-.5-.13-.74-.1-.46-.15-.65c-.07.16-.14.38-.22.64s-.17.55-.25.83-.17.57-.25.84-.15.49-.2.66l-1.48.11c-.05-.17-.11-.36-.19-.58s-.15-.44-.24-.67c-.09-.23-.17-.45-.26-.68s-.17-.43-.24-.62-.14-.35-.19-.48-.09-.22-.1-.27c-.04.2-.07.42-.1.66s-.06.48-.09.73-.06.49-.08.74-.04.47-.06.69-.03.41-.03.59,0,.32,0,.44l-1.77-.14c.17-.76.31-1.43.42-2.01s.19-1.09.26-1.53.12-.82.17-1.15.09-.62.13-.87l2.02-.04Z"/>
      </g>
    </g>
  </g>
</svg>