<?xml version="1.0" encoding="UTF-8"?>
<svg id="Layer_2" data-name="Layer 2" xmlns="http://www.w3.org/2000/svg" viewBox="0 0 355.41 97.29">
  <defs>
    <style>
      .cls-1 {
        font-size: 50px;
        letter-spacing: .1em;
      }

      .cls-1, .cls-2 {
        font-family: KGTheLastTime, 'KG The Last Time';
      }

      .cls-1, .cls-2, .cls-3 {
        fill: #fff;
      }

      .cls-2 {
        font-size: 12px;
        letter-spacing: .1em;
      }

      .cls-3 {
        stroke-width: 0px;
      }
    </style>
  </defs>
  <g id="object">
    <g>
      <g>
        <path class="cls-3" d="M96.12,96.89c-18.63,0-32.52-2.37-42.47-7.25-12.5-6.13-18.85-16.28-18.85-30.18,0-28.83,27.51-52.29,61.32-52.29,1.83,0,3.32,1.49,3.32,3.32s-1.49,3.32-3.32,3.32c-30.15,0-54.68,20.48-54.68,45.66,0,27.6,31.21,30.79,54.68,30.79,49.01,0,54.68-17.57,54.68-30.79,0-11.69-5.3-22.82-14.93-31.33-1.37-1.21-1.5-3.31-.29-4.68,1.22-1.37,3.31-1.5,4.68-.29,11.07,9.79,17.17,22.68,17.17,36.31s-6.34,24.05-18.84,30.18c-9.95,4.88-23.84,7.25-42.47,7.25Z"/>
        <g>
          <path class="cls-3" d="M93.88,28.67c-1.83,0-3.32-1.49-3.32-3.32,0-12.62,4.47-25.35,14.44-25.35,6.98,0,14.44,6.3,14.44,23.98,0,1.83-1.49,3.32-3.32,3.32s-3.32-1.49-3.32-3.32c0-10.54-3.06-17.34-7.8-17.34-3.78,0-7.8,6.56-7.8,18.71,0,1.83-1.49,3.32-3.32,3.32Z"/>
          <path class="cls-3" d="M138.37,28.67c-1.83,0-3.32-1.49-3.32-3.32,0-12.16-4.02-18.71-7.8-18.71-4.74,0-7.81,6.81-7.81,17.34,0,1.83-1.49,3.32-3.32,3.32s-3.32-1.49-3.32-3.32c0-17.68,7.46-23.98,14.44-23.98,9.98,0,14.44,12.73,14.44,25.35,0,1.83-1.49,3.32-3.32,3.32Z"/>
        </g>
        <circle class="cls-3" cx="97.63" cy="39.95" r="4.25"/>
        <circle class="cls-3" cx="134.62" cy="39.95" r="4.25"/>
        <path class="cls-3" d="M9.1,84.83c-2.05,0-4.31-.36-6.82-1.19-1.74-.58-2.68-2.45-2.11-4.19.58-1.74,2.45-2.68,4.19-2.11,4.07,1.34,6.95,1.03,9.74-.46-2.19-.93-3.93-2.57-4.94-4.47-2.21-4.16-1.17-10.73,3.85-13.5,2.33-1.29,5.04-1.57,7.62-.8,2.57.77,4.76,2.55,6,4.89.59,1.11.97,2.28,1.15,3.48,3.24-2.38,6.15-5.89,7.05-11.58.29-1.81,1.98-3.04,3.8-2.76,1.81.29,3.04,1.99,2.76,3.8-1.87,11.79-10.09,16.73-15.69,19.41-.92,1.43-2.12,2.79-3.57,4-3.54,2.94-7.55,5.5-13.03,5.5ZM17.77,64.32c-.54,0-1.07.13-1.55.4-1.74.96-1.76,3.51-1.19,4.58.02.03,1.6,2.92,5.22,1.25l.63-.29c.59-1.59.47-3.07-.1-4.16-.41-.78-1.15-1.38-2.03-1.64-.32-.1-.65-.14-.97-.14Z"/>
        <path class="cls-3" d="M116.13,45.54c-9.58,0-17.34,6.33-17.34,14.13s7.76,10.84,17.34,10.84,17.34-3.04,17.34-10.84-7.76-14.13-17.34-14.13ZM111.97,60.05c-1.23,3.19-3.19,4.24-4.87,3.66-1.69-.58-2.47-2.56-1.23-5.75,1.23-3.19,4.12-6.22,5.66-5.7,1.54.53,1.68,4.59.44,7.79ZM125.14,63.71c-1.68.58-3.64-.47-4.87-3.66-1.23-3.19-1.09-7.26.44-7.79,1.54-.53,4.42,2.51,5.66,5.7,1.23,3.19.45,5.17-1.23,5.75Z"/>
      </g>
      <text class="cls-1" transform="translate(167.78 64.22)"><tspan x="0" y="0">mipig</tspan></text>
      <text class="cls-2" transform="translate(193.36 94.08)"><tspan x="0" y="0">MICRO PIG FARM </tspan></text>
    </g>
  </g>
</svg>